<mxfile host="app.diagrams.net" modified="2024-03-06T09:30:56.530Z" agent="Mozilla/5.0 (Windows NT 10.0; Win64; x64) AppleWebKit/537.36 (KHTML, like Gecko) Chrome/122.0.0.0 Safari/537.36" etag="Ghcz-1phnO7HGsmVoxeS" version="24.0.1" type="device" pages="2">
  <diagram name="Wiring" id="XwpcuUbIKoePZjwx3v08">
    <mxGraphModel dx="1300" dy="656" grid="1" gridSize="10" guides="1" tooltips="1" connect="1" arrows="1" fold="1" page="1" pageScale="1" pageWidth="827" pageHeight="1169" math="0" shadow="0">
      <root>
        <mxCell id="0" />
        <mxCell id="1" parent="0" />
        <mxCell id="ZFm3JVolr57umnqWpC2B-1" value="" style="line;strokeWidth=2;html=1;fillColor=none;strokeColor=#000000;" parent="1" vertex="1">
          <mxGeometry x="390" y="83" width="34.5" height="10" as="geometry" />
        </mxCell>
        <mxCell id="wLL7lNvXAYViG3V05X7u-30" value="" style="line;strokeWidth=2;html=1;fillColor=#f8cecc;strokeColor=#b85450;" parent="1" vertex="1">
          <mxGeometry x="390" y="62" width="20" height="10" as="geometry" />
        </mxCell>
        <mxCell id="wLL7lNvXAYViG3V05X7u-28" value="" style="line;strokeWidth=2;html=1;fillColor=none;strokeColor=#000000;" parent="1" vertex="1">
          <mxGeometry x="144" y="83" width="43" height="5" as="geometry" />
        </mxCell>
        <mxCell id="wLL7lNvXAYViG3V05X7u-26" value="" style="line;strokeWidth=2;html=1;fillColor=#f8cecc;strokeColor=#b85450;" parent="1" vertex="1">
          <mxGeometry x="154" y="62" width="43" height="5" as="geometry" />
        </mxCell>
        <mxCell id="wLL7lNvXAYViG3V05X7u-12" value="" style="line;strokeWidth=2;html=1;movable=1;resizable=1;rotatable=1;deletable=1;editable=1;locked=0;connectable=1;" parent="1" vertex="1">
          <mxGeometry x="10" y="20" width="135" height="10" as="geometry" />
        </mxCell>
        <mxCell id="wLL7lNvXAYViG3V05X7u-13" value="" style="line;strokeWidth=2;html=1;fillColor=#f8cecc;strokeColor=#b85450;movable=0;resizable=0;rotatable=0;deletable=0;editable=0;locked=1;connectable=0;" parent="1" vertex="1">
          <mxGeometry x="10" y="11" width="146" height="10" as="geometry" />
        </mxCell>
        <mxCell id="wLL7lNvXAYViG3V05X7u-19" value="24V DC" style="text;html=1;align=center;verticalAlign=middle;resizable=0;points=[];autosize=1;strokeColor=none;fillColor=none;movable=0;rotatable=0;deletable=0;editable=0;locked=1;connectable=0;" parent="1" vertex="1">
          <mxGeometry x="20" y="24" width="70" height="30" as="geometry" />
        </mxCell>
        <mxCell id="wLL7lNvXAYViG3V05X7u-14" value="" style="shape=image;verticalLabelPosition=bottom;labelBackgroundColor=default;verticalAlign=top;aspect=fixed;imageAspect=0;image=data:image/webp,UklGRiCEAABXRUJQVlA4IBSEAADwMAKdASogA6QCPm02l0ikIyKiJRLJeIANiWdu+vwue6pgv23ZosSAFP7PMySA4Iqe3t9evTj6H+L9Mfk3w5+c/ivWvv9uectPrHzrf8f1t/17/h+xV/Xf8p08v3m9V/7v+q3/6/Yh/XPRJ9Mn1zv716zHnMetl/efOZzjX9qfRp8z/kv95/i/HPys++v4X9y/8j8v/6dlv7S9TX6B+TP4v+T9rn93/4fEn5of8H+Z9g782/qv+q/ufsK/odx3wX/J/83qI+4X23/wf5r8q/hN+6/a/1p+2f/m9wL+k/3z/r+wv/o8Wv8z/5vYI/q3+d/an2pf/rz5fsf/N9hD9jOu4PqAlixSgaPJ9Xd3d3d3d3d3d3d3d3d3d3d3dQ1nSSMJYsUoGjyfV3d3d3d3d3d3d3d3d3d3d3d3d3d3d3d3d3d3d3d3d3d3d3d3d3d3d3d3d3d3d3d3d3d3d3d3d3d3d3d3d3d1DWdJIwlixSgaPJ9Xd3d3d3d3d3d3d3d3d3d3d3d3d3d3d3d3d3d3d3d3d3d3d3d3d3d3d3d3d3d3d3d3d3d3d3d3d3d3d3d3d3d3d3d3d3d3d3d3d3d3d3d3d3d3d3d3d3d3d3d3d3d3dPTUDR5Pqocispeh54/tBo8n1d3d3d3d3UORWb2IH/NYvSTq60knCXGdkFwr6u7u7u7u7vF5tGkk4SzpJGEsWKUDR5XJzaNJJwlnSSMQDR5Pq7u7u7u7u7u7u7u7vCwAwFWkk4SzpJCik/JJwlnSSMJYsUoGjyfV3d1DWdJIwlixQzxnDYa6z+9o2AcHaRpJOEs6SRhLFilA0lCxXd3d3d3MXSAqJSiTMhcOMNt7sqXRJ2+w425k5M/uYzruprgoUNDS2rfB2ouYbs4so3bTLgVW/W3hBU4e/nCQuzNzY7gsC6xDI1QX8hObT3fNdpFqI1QzAcU6PmWjmf1kguIpoqa62eQ3xS1JfpgMMszVbfte7MeDIlJKGIpsNSaoSRJx9B9/5+6+vPxN9CL/v/RcKg9HIq/QicFuhsDq6FaDa/bv+LVR7//L9CbSxR9637fFdCLsMJYsUoFr2DFALdgFq2hDVBfzzw6FUDk73ns4B8Mydmr7NBLdqXzzgg4tsz25TzpgWnKXhX9R116M5ASMlCyaJfnn1G2QtDK65f5F/u1zoILKQG3b6L9GblpCoDe7rdZ/Msv431NVPqh7QDnX8eTWV9HVkI/3Tw5PnURgftcM3FPc3b84UCu865fa3d8i7fY9ivVGcr6K8DHrwbjb4uI2J5kcpcPWFSRw4JbAzmA2vkijO8DE2MND9WQJXTWLHIFd3d3d3OF7y4LdUKtgbCD1PKKn+t8oCbG7Y4fHDD1o+jHKBy7bQ6x4fDj/Av3KhVxRZ7UQqFTRHoEKCjLTkm6GFJlTw0J8ITc320IQPnqZEh/cUrEcsdUY5yw8jL57/0cHyY/b8/cXzg8lscorJV4XgTcCp1sVVrfOGKrTsI/6Xes7UidRZb3ihus1h7bMW9lQsemTZT2uuIf70N1cKCFN0RT2xF8NivsiH8kmO5Un8FfGEsWKUDQonW+fN9NlvwxmTnNlnPKiI5aH7r29o4vSOiVZaGfpsRNOneNGSFQrfZgdrCHBTElw6+I8Jk9kVLgXr0jqIQLkvdbBOqcFeKNIBY746hSB88aL5RQzsNs4224DVefw1rk51Kf9yxIb46QVarZhcn1n9iaccUkG+NOu3j+pb+I557b1y+CVr1z4XL5ifZkjGwcUUPfQilJIwlixSW2HNmC5Ug9tQObQCgt/j0IJqJhJtc2DS9VPICjW7WF/8bFw8TPlY+abPhOB9SOaMSOqxZMxQdPwq0EXCjPyEo+E9O2W+wcGhG6JHSiUrw5rqYdgb6EIOh+9SZ9XfpPMDq9pMmFiMMKG3Rh7B5XVqMQxj78Sq//HKmrgdmS2o4fyJu4yMccRlljTrWF5moD9MhMIsRn474EKzLpmua+QuR9MFJJwlnSSAHw7UPXjoZxGLmEY8NKUV2s7vnim4hsPUyOtlxTqblGkAiH7rnC40kPRyHh1GO/2Gfn6tL9f7eEs3xz7kwdeji5U8qZOnxi+yOIGoi26LRBgLZsTV3AUP50JvQn0/sRkqv4djO8HeE5jBO12Et80viRzb2KNAC+Bf+ZsVXeENS1fFUh8Tr/i75xR8JwDYJXthiJot46phUdXNf6IozlCpRDs4i8pSFOB9FCxTE67w9eVy78xoK14SMTl7mfpvpskUH/qutTbeKThLOkkYMpYVBWCVk6cIY0iSzldHa/REGYEN0gHP9CYBSFfVwW3u5DhUFuLVghWt5Oa+1ebZ5AgrbHMa9/mdAvlqOfhoKXLENbWo0efQPaNdLZl37Mi6IGTQv6C1V41Ty4BI3OgtlhJfX+5Fq7zLT1uEh0OuT1crJ+LZl/CQXyHPr8ZMFDEiYQvTTvhMLPcFiTgteCU+YAETAIrX1wVFHsaM9Ut/ZfCLU3bXOs1jwwGw6gk9qTgCcugUz6I85A5eTGnGbBt7onu1/z0IL5BJMEMDacJZ0ki2xuScUrphX6AKwX+4E1WMSmyeLpiQyLuhlcPmvUn7RWjLNmUQpcGYP/Xm2xg1k+QMbEmtE02CdFgmapcnhA3cuTlJ+F726zCJPPyuwjeQJf8JrxHfZbLTAtRHnCcgtS3P5yb/D49TDpfWWKonaVLSFeYrWAAgHE/2BhG4hX2eooRrBLa2NU9H9xPW1t77KKkUHdIcE/lNz4pNEcyqxXQwBtfdHlc3m8e9SNNsk2+blseMqUxvSwZKIEDkoi5SusnHXU4i6v9SgaPJ9XRL7p40r0xe+1oYaVOBTqPrQ1oFzbQUjQkIsTMfYCwdPuPZS7/gySRlPUcpMknA/UaDgY8v/W5DQZDbUR2U+rWWcQW870XgWQr2PWKuTQFfwXc2o2V/otPEl8mStiOMjZeKp3d7eYiRlzu01KqKuZFV8aLEnfkx7XJ3Y2lt2MIIk6/M+d8X9512YXLMnBuKez9He4VVb7jL68eskC20eatlxoGM2V3wAEOQ7sP/VX870/vpVAJ+O42lUwpYzuotHWmeAEfoGjyfV3dFwZy8dbKc/s5L9XP/0C/hEslqjnwX6K2TkM/XSjAQ085gXV9FQ/3huztC8VWaw+6cSQSbINL9/EMmxCLve1i31UUjOs2ViHRvIMF8uus5y/Tg+07Sj6WexMl9OdkS6a3rqqm86b32kB0E4alLGsTyoW0aeLPRlAEopC1CKstu6g4Cuh4OEaFA9N6MWUM3w1qIhFjdOer/Uw+a1zkp1kS/Xdwae51SAhIyAA+g5Gif9R17BCKSRhLFikrox7U/b+Vn2Wqum7ExBGXX1UEJ6fNROy7ZxRU1wtxNxlkM1RvMEpDm52k05dZvvhJFobTkRuu8Fk6+aYMOo2vHXPvwa/TCh4hboWHjcyFzb5ht9sfHvAzU2pfmZa9sAt66o1s9D+0VmWbA8ZALQOYNpovTD02fL06NabnqHICqt9AnFMTcywXEMYjWR62F3YYyn/pEA1oKCX5naA7Slw+92AzRhfDeJdiNhKOTFFUD0D1G2jSScJZycXrBNFz9D3Fxf11BG0mCJ6wbMWC+FuJ7881LhHMBuDsyb+lqqAE+CTXFBaOiQQ+nK4Wer5dVpvap6GMMvgiRB6f/OHeW8XwySJW6XvgQbITVWm3//CDAfA6p4byeCVfLwG9lN+JPh9YRiWOM7RdQaSVU1fITOGjl6kd7FfK7x0OD/8g2oEcPnJYivFbkYkgORcgnss7pZpGFpFi1f5K8iZWwWKpeTjnLZIF9DQPsCE02pOEs6SRchnWIs0YZTK9Uw76xlFPaje/5nfslifn5k3de8EaYsWcm5UMGSdDHB66S+F4PEF60Xc6gTOaqtHfhp3wnpMAZTWHvknVXxBzTIvXwJql+aafl0Z2B/UHisSBu9wx9NmZTdnfwiiMqhTN9KqAq7UaBpnnI/3x9AiUGtPv/RG1LY8eheJ48QJ34Mmml5vkZ+wrBNerT2MiGKLrqzkIcmqU402gW679pAdpLIL6zSYBjw9qCKuo1C0HO1PzhrmOcWKUDRxqMvFbKi3VlekGKfjLYKPd0/XzeefIQRHvwmGxS2Ss/fVVt7Tx/6Zoxd98tcJSd7KRXWce6LBgzn9WHXftFVvi/lcn0oXUeq5jcr5JWmxLDWzithCXN+MqVOBkbLBOtr5U4u7OAQXBJ7gHz60RCsWGsVhP+beDaOiygFV+OgKzAYjxUEvIFePYW+QFFMz55MUdP3iQyELZsYz6ACdn74TnKJtDWwLAw/VN6kjUaRw+8++W9QUzbBQQBuGaHzmH9waPJ9Xd3OY735IrSpBsW6X5MxfpRc5d4I9Xm6RB4AtS2r/qgieCegDeLqTxPUs2+GOQM+tPU4/ltZ+UyuPy7+P0Jf3iEo0bGs7J642AXiR17nxh57Mm4yOg1toDV4sqRulo/HRRdMAbsjr0dvHeybEwtiJmCX+I8vnFkmMiiX0PFIcKFw2lyKHJJYyZgoUWS20rZwfqGcmWX3pMcOjQ3yzdkFFSVYp8sPrzGvRN8HGMz8DZJpJOEs6SQfkYodLYtG1ekd9zXfITkLBaC7rK40MNN2GknLZMY0xRiU5d9eFOLGwXXc179KpmZ8UQwJNVItsfS/Twz9qPrhVwNXKSvNnXfHXIcrr96cNK030pJcuuhbrQaQ9c3wus8psQKw5svnDetKitaHFVBXrqJAKUfDvp8+Yd/fYL5FxBxAE9W9fuR2F4nzKB/4/2DdCFkEDEAVzgVqg96rG3hiWdJIwlimvbUCxaJu9U4PegDXWFKTYNy0R5eQ8kZrQBh5e66zPnrrQ7JLn0Al/C8KgzvpOdkliZqrTgLg6/wVXAYA/9nSFnRDG9L+4UHYPoRncpuY/8AXVmbn/pBB4xzzqzojtLTWCEBEdF4usFtwn6p57wNTSpVHmzqnvNecrCTDBDlvrzL4MGpM2iPU8lvjacGKRR298H6Zk1iCE3UDKX9VZ24MaHU5eQK7u7u7ubsgsVbXRvBovdNaiBE7JWeiyvklovFlXntiTyrjBY4BcGa6smXnELxLCQJYg7QT9CY1ktq5QyDaJc1pOW+xfs1hgHNadkjKTTE1PAV0qG9aP3gpswwr/GZvpAlyHzPUYLu9xPf/Pe+d+rb9XsI5ME4Jz5w3t4yexeSkrAcMCfjg0Xb+JQ89RlxzExv+xoutqftT5uv1ztKWdDWlixSgaPJt6kYPgUlL0bTqo5zOvmEOXqfULmtMvsRWO3oY2vi0PMMR+WB7wI1tzlwAGjF1s81wuyFfJwvDV8c2FCaPBzl7SGI0er8bpZbWlSUMCFMGCWYEGa/l9PNlg1dNKQnhQ0t6JsXG4XjWGsTuNskGj2yBmcHWhsoKXV+GWLr7akJDRCpyo0BsFNbfS+N6DuL28GqLTm1M3oXno1TzF8KoDu81zTSRXA6H/Vjk7AeEwLJQ8AscMXx4a0O+5ymDxE0QNHk+ru7m2YwDegJ9y7nEf8pkF5ntLZDudVIjs4teyWX5REHSG5TKw9k/QFe9AQlf2/gG9lFvWnhO2N7fCbQnEteqHA6nINRf4YJDQ1mbOf7bUqKChFfR6KqHZAVNexBhS7xhoBoap4tFJzgbZV69JYBbDp2LzkexkA0EgfCSpF6Hk+ru7u7vGOrrSSbm87J7Rd5s2MjAOw9RKkUkq9pJciyLUQ23tRJzpJGEsWKUDR5Pq7u75OxBo8n1fIM6SRhLFilA0eT6u7u7u7u7u7u7u7u7u7u7u7u7u7u7u7u7u7u7u7u7u7u7u7u7u7u7u7u7u7u7u7u7u7u7u7u7u7u7u7u7u7u7u7u7u7u7u7u7u7u7u7u7u7u7u7u7u7u7u7u7u7u7u7u7u7u7u7u7u7u7u7u7u7u7u7u7u7u7u7u7u7u7u7u7u7u7u7u7u7u7u7u7u7u7u7u7u7u7u7u7u7u7u7u7u7u7u7u7u7u7u7u7u7u7uYAAD+/7aFK2AAAMCQAAAAqmwAAAAAAAAAAAAAAAAINsAAAAAAAAAAAAJw867zbSKAAAGEUAAAAAFXOAAAAAAAAAAAAAAAKmxr4C6yGUdM289zFkvlLr3ikwh9gR43UDSuERHAUtQl+N5tSBRLgcTKdfaiSCyUeanqMDDWBRDqeIOi19NgCFb2zuhuGHMJY8IpZIvXrfza6VIbi/9Rb+OhdFuKFPvLlxN+ukEl6+/Zd+DzaNwDlCMfb5LliwoKdmK66x5iefPesBUOUkgmf1+/h06sonH8rSV/QGDj1XGxNRB9ZuwoJEwNtA6OiOtOIeMMPXmA407ERvJOKqZJVBqj5AUC22zI5W95G18jRffJqMZRB+kMaXlJdlV70hn+k12yzKbNKQUtCqJVNf+VKj4etU0yiJPA+7gjFje6bdfIgYZVyAyh6T8K+AisUQlj0fJUayZMTzziOY9bCxdHkC2KZRPT2crM9IABw9GNyQx+W6gXWppUvkW+b3ZRPhh+W/5IEzoyLQg01JtH3NhBN3oysQcO5m3FcaUfMfxGviHFHkO+joYc1uS0Ks5kiup9EY+m7akkTTtS7N55Em+1V6CfTL0MOUJ1Dh6dO5/jQINZCg/fbTrT9SnWwB6yJCsWB96m9bXKmXUcIxXFIlL7BcU44RmNxPuIjDzGv2GIK/qzzsGo92NkAI0+O6XAPpdzYLzrwDwYfvwhw6hxDJYQEhrXZvbDyz7gG+jV9/DbYjLDYSy4/P9FmgLKDkawHSrmG00fMX8+A5uxlzxvWHbhL9fS+kl/Ogx8ygu+RMxXWQpQUrba0Ww+IKBsq1myf99gyn/G/gtWtwouALm2xbaEsWnKkeOiYmGSn7M72HEj0BJa8bX1+3C1wsdqptKWtWMyrliB8P6GAFvGiQrTiPPG6RGxF7IYpElNFFR7QDcORS3DLSW/BRE9MetUhxngqQl3J3q/7oGQ5XUtu5TI9sU33rr1Yu88ERBc9YY3hen1E6etsyvRx03MX7a+CKvLNn8+/CsFPZ1hi75CrXa6fq9MohjhYzdTpRPLkLTXKXzCXnW7kCIT3E10VQk+aD1LTMPlS97NhxO5U0HAb3EMTwKrsuSbdOST8aQVewhfbvw7x7zFGbc81YyyloXBeDeIzgy1n8KEv5P3zIS2k2j+XQ9T7DoYVI50Fvm+xjk/M1E1JB9IaTw6BaT9Dtw2PG+vGC7+Yw8/dZKYre7ZZmc7SefM4W51BhTnG9dS9UGTrSI9phn0iA0w8caJGcXXW5O52xm+wOi3bvgdv2/v4tvwPhB3dzsUVwP/uGssx8dj9I6Bk4RQNeZiWZFPG6MJNWRt/DZt5lm0wZ4Ba8SmGD8tWk+alEd2jnmfj4BI/R7nOfzAqNO/lmUVSog7ijr5nhFsBZ9glD6RU/Ly0+hJVvjfO2qz7ldhZICvRINa8QgdFHALkvsDJKQTX9Ekny8NZhWNlPbwMKBuDZfehNJkewgkJ+7HKhG39DYSwXmDflYWFDSzCDLiMZOQEZ1JG6tWRbZvJ5K33Hho3NvrBHJwIdOIOwQYbPX2pOJdeToqPmB/lapjgKoZhyCDUR+jE9GxxKmISsuAZop5JaB5VjfbN39+nPt93HMu3RY4+RPmWugllqY1lbKyzGORbzY5kXcY7xQvyJHCVmMwKF9+2aRlx2Sp8nUvodgRTf+RqwXMxPNG/Vi96kFrVYxc1xn4C/c39fm9a/sas0x0sBmCObFuHo3bPrORzVRVgLm8T4/7yJhIMqAcVGsPKtwoozIH3XC+b94xxa6r77+DDSedKGz0s6oBgSrd8OoIiYLUhlBaT6YuX5aW2OC//+P7OBTm4q/lHRcuZrXC5tfu5NISA4yISEw2XXuHGrEBrA+zYz18M0T7G+l/PKS685CqZNYgwkYljNDByLVL6TbtecEWC0E10D53d+t5KxTV5rCzlVIaB7Y1hY5KQVYC47fTKvHe5+cmZwuUFeLJNtAZaX8NKBKKxK8YJFDt/hcCsAoQh7hzgjufklBv6bIb4F+gazNEdpiPdC5aDAX03p6f6jEYJl9IZuCm+WidCa58fDyrGhvSbXl6+DcXw3Y9AJPEy8BD+f2JuyXT2nwVWGDxxdvKvzM29BGFAQPtvMQ4Csm1AMiez27p3k40PWKwAj5HXJP7NHrrO7g5zXtIzzidCDs0nprHBvLPX8pqim+zrs3tpcAGE2GecYH13crndXaLAl3JGfHZ+kayExtdSyVaBJXNLT1UaTCHqsWiETAIwpMMT8uYIp9Its7vjky3a80jmrezeUcdgK8eMC9lMmnyy6ITKjrJznBzr0XXRWfnHJj0UypmhlWCwqaSkSZ1IbkRzly0oDhT7BdMqtpv9LiQoMOISkundAZhC8mHXUj+H+xZrZnY/+cBYcJ31ipfbTYAtvUweIUvx6f8tEX9KkSHsTIgSMCWmv/hylWVLTJmkJIZIzFxIZCJtsXuZycHC2kLcSfafQqQ0o2PYXEg1eFTV9sUI8KCbrYxnWY/j8Ra7Y4h0+Ci0gN2QyhkZNv4S5h4tLZmVXIfsOf8WIo/aXTVtfWAiP77eZeGuy5v2La4YdwlxeVylL7LgHPAsrwAYrip4fKauxdmAoZxm1TaX4n32vFBZ+8OzTcWd2Jnq/asVrnS2vkcGM/hZLDVmEyJKUTS1E2RLjg15Nhn+t7yNfTYa1yPnRU2awr5k8yjCyo9KlHhZ+24lwQ/WDQ02qhxMx03cHnOQi95eaN/2BhW6pPlDuxuVdHi1ye1AC7y/xhQpHk253jAmyoE6k+D2a3iKi5fBGtwpuxX05Mk6AyKlZs46ulCo1fM4EV89ggsXsS4WKO8Fm2OqCtORD4eQZY5GDhj4GeaB3OO1/KEbSfMI08NqWrFjgUtpbW5nvPEmG6bFZ05sHlvV/kbVmpCIdIHUQZfpRO1RsNCuuRqvSmbjOkkdjU/607YdxuF9a1eF8ff9ZqFmlHCx1jDJVZrS2IAc9AtaIUpcNqcbIrfZ1F92W60CmUOkNwN6XfD2Tq6KOnuGeVn+1Tcf4DoLMDQmyS6EsFgi53HKg/yEQT42EPVTQfFGBMt1vKi3BOKu/Iu04HR7uZ9XTOmFG+29RIJV0N4pEJBfNBaYJFY/DkJZgijs8WR29cZVAZ25+iUuEht6RaMlvHput20GfU+elp1q1zbPafSVFDb21zVkLBUSXz8R97TQrg5uzc7PHMPcj7lM5BsPd5qM4PZqY8yHPYRCsUjnwsL5p1y+eZqLe6Le0AebzfxurJ19+Vo0bBsYb9Ft5NzUOTYpORL/tCQ1scJrSYv4d5hFcjTGlyhPBfXGDfsZQXOgm9SVu5xqDDtHjywQPFmT04ZaqalEui8Rtw7jMNNEPZgWRTrKFzWsASuxpiIV1aRYrl7cxR4lLqhd97v0/7eRf0P3XQXBV3CC4mAoFjQ7TtoHLixQgSJeyTs5mTs3o+QwiX0ZZV+xDKQqTQXez25DxY24Y980hbZIjNKjDrfuXPI/8SPD/9Kvbq+f+0HA13Vg3uzfEQQeWxIWQ0pr9waf2x55Fva0eL38CUmpUpUqm2T8xdOq3jN9sqqu3q26SYziCjke69cIzy7y3L+E+0r8am9KdDlnLP3h9tpmscMFWSfxpalPOd/HR/ACdPlNPvWz1hCCNyC7oh5OFJfj7CTmL1rEHT6brQlnbQH0NNq0Ue2J4usq8uZFyHwpc3vUQ8aKiiAlNzYk6GlCGsmnD3CAgUdlrIIdDmp4DwNzXZfaNDG+D7uHI6D35UDxHVVMTALbsDpMyfL/VeMyE0JCowMk5VHMhE65uRg7r9y+r1CtTR6vQE0+qOf76n6DNrEPw4afYjHnNZyu00z13zgBaG4VlhA5IRh56eNMe04+xXqPqDrC0yC+CBhmIWLslK3Tj+q3PzEn6yOwQEeASZ7nIEr2sc2gcTwFxK4yKMM82/x4vvNxhjRi0wKlJir852/VR99i8ToZcOdvJ+uDkRbpcjhn457gPuC5bENkqLKk3vdQ7akEmhUSOcFdfwJiAIdm87W1JmfoYcxpMftn9A/kHLVmOH/A9m1ABsTsH98uJ7JuEWPbVsgh0OnUg5mftU1fCBN3xcdJ0gxGS92YgV8VTlQZmbDmoju3ky4w/Vpee00r2kGMJ7VJKVTy3gJYHkTuUZsRmew2iuo/BH0b4Bm3H0YeBoLl1MO4JuBwaC10AHnej6zYonmkl9dy0UyGKSqVNxFcl3zSUd2UcH//trirHZhRSySLOXhr3xdOb5+qXXCifLksZyiOtRQiOho8AUveTZoOIME7XUYJWFplI7R97IWpriSY3O8kJ4KOQW2zRkE41yqC0M9Il5yqOnYWahIa46VTktvkvQMj/xILOYTmq/XkZ98ZdZ8sAB6tc0GYvv/IQOUR0UgXWaBZfc1x5aj6UscnU3bbBKmuUNAbPnpaqhfM9GCukAwHu7gJCSZdfDtF5/YofqOyVxO9OjBxHvSRw85bzCoWOR00Eq96Nl/OdkVMV8YdbYUhWDlWJFQ+zUyCi5Ziel03O1muTDRMcNqCcO6lYXQREWtov4G2hTghC3dKCM9Y+PX4rdMcSoJ+XLOPvM55feprlnT0nM2ARx+EGut4DOozorjd9Qr4YoTIUpmFZ6ACP7I8J747Sco/4O64TX3r/g+ugu9DJ8CErKqghWXboK/kFLAh+j3WynZ7ku/MFO/gHxXtuMg2n1yqVX910Ybow5gYtSisbLiWI838HfbCHcHbGj+m5zzwaTht5gutw3L5QcmDNcl+AK5vf9HejNiI6O+hkLS+gF9YCuM4faS4FIYOeF0OwaGXokaBcQVzEKrhiCoVpJ7Pf5+JAgi0elJ92iTontl/nYXRnlmrKDwrq0xrg3xq0PMOMhu/ZPK0NO6xKtJGnk3Xg7EX8mG9a4CpC2smWteb9weMW09MB3ge671E8e5OJphplmjaB3tAY5WkzVYfX0TvUESwyDfhwkh4ohIEGiu1+f8w32dFViVYLCClvc1jPtDIk+iq/Cim3fMIxopfMswRrNTcN1Re696fsocrOO3FC8YNTgOKTTq0Gv2ILrohkN+y+ld24WF9BD8N054trWcfqtg1jEkGejZmp8lEeDYtroVxCyirKspN49H+Rdy0a/WAsx3mEh+DFZCQuz5gEJn5cPnLD76Foi5CeTxvb7PfAfG3cMzkBFBHSTtx5yel9E89uugaKVOBB58ZKQT9wZ/KqjvdXF7X4a3C3wJTm2IrAtT6yPJ1DhB44wBlg9yt4QmcMTJCyMJmfIghhZC7Gjg5tZ/GK0+6LcEe5R3597HpNaswPBj9mVt3I5x+myFnGttZNK/CI61FI2zYc7cTiG0+DVRvIV2xVW+jXgnvPbmAm0U5s190ovWmLhFp/3/xtZ3SvAeye2z2iw4SPQ5a29WQRn4969hGkzotJlslm5hhRNYLDOhZnYbN85nSKXfLzu7pABpZo/+fuhhgIj2gxfLLljNHk/j52DkPvXnyhMbmn3k80GXOsdKc/98LXOsrguL2mQ21VA7EQ7DGAwX8lU56H4XJs4sU52id0BYcNXeuFE9Ps+xIu3kQdWNuGbuF2JtHmoOwqupnn++6yrsHG22roRAYiCBgz91SdzNEXy66uDnjJpPkcx/Li0jyJglKkkCLQcF/OxcsrQvRJmQ6nmE1quotUmJ2lW091kHXlnBnQ9S6Uydh8eoI02Ft6rwhpjVsU+tENCOPSSNGheEh2CHBn7fCiBEzjqxOvilF3WkOtVIWW7wAT3O2zHM6b2ETdPeTkAZCy7oAdYNERnY5aZZcc4TphnNbUaIvhSvIQvrTfByq/FM8ny4oQvgdy3yqF5p8+edA6676//4JOswXJnRqSmi0PQ41kzNI8oeN3grb1HzMQcsikoT1KpMY3C48gdXb0EN0bIHFg/jWL1dgDR3AxtWEY+T1IHVgiPuPJ+IiiKUq1Hb3h7ChRwJnJ9+OhdiY5gOyJickpkUDLjzR9edbb8p+PHx75vy2IcQ7wIxEh0U3ihVXnhh4KWqwyx5e4pr5jasn4Zl/0muZ/HDLHVw967Kb7J8RKwWJywYwRJdiNtyMUCfJJIQPdnhBW4utoDbf2g6Us8sSC6x1WLAB3mzejiJZwMzxRV+vihXnDFHHKGB4b4Azju0Uw0mJ63lCBeEA4GF5nKw2W6XK2/pnbLoIKuXUoj9cru45h0Grjzlxn9G4om6cAvqgXeAoVpgH1fr96SRoXUimED/c8HIDXeSVye1OmTYxM33ntAt71fg/G0F8+poqOTUiMddaW+7B+VwJb5A/Am4NNkjyRgUYkYtW4pnj3/0kgu8e8fxhs0XIO6sBlejy0FuFOtZCv/aIXLz8soA0kFNph5mUclcb+u/AAMFWQSGQhf3uQMZIg/6hlYHltcRIjSHDHkJi4y4f48Dj/ix5ycuFXCDoTD5Wp/SktN+bnktmYz/aAHHnfJ2QWMgD7Lkes/Qtx+ikdr2IhoAB94B0ACAZgJRcHl79tvqvsZJXQ/733Bb/Rn2J/7ObztAORv9Tkwaoi6Iaioq+jaPVFHBuQmmXRRqZySJ45ugMroXfsBEFt5eX1F9qrRD3YcU9zDJ4E1wnFqq4T4hIRgOWoolJw7sXdHfTsM1ZBDVy/hLKUd2bSYvCPigMMCzNfa77sJAmUN9LJNjOJhzhyMPjwbehzqS1yXf+APZYxWVpIAYnurYt0aTaZ2NL2s+ahMlioRC4byuOXigDIqu+tpFOoli9GTatJkeyX4FQjB+EmT4RP3UJ8CiVcIb00Ku6/oCy70Yzu3ujAa/BHFKTV0j1jfRcsj6vmW1drA7uAFtr6oe42AWmDf/QBuZKWmUY/tz7jQ+OMWzbNPO0G/BO7aDs3jnztaFjfQ2ueS5ZokwKqgEf2bvnX0ZfmXd/wQsaoycbWuQ13dh84yQsN8C/vzTkIdRqfLT7qg+icLLWHfojRrCCEjOaVuaNb/0JU1vt1CtfESzCHEeE0vYomX700j2gjUXBfypznkZ2UXYPYDyYL3G4jInurnAb3fCJmqcJOjzplt0/XjWr7hLFs0nIEVT1N0gh4HekyTJ+TxUpp3w8tz57/PXJ2ghAbtRGWxkS9Kv/AxYrnCSY+T+Cmkem3uXPXBsDhbDFlXuOEn6Ya5/LYChPCz1uaTXvnqgRppiV85WGhRpea9OzYn8wsH9kaAqgrP0KXxoOJKWyUYcseNmRFDLbMLnfWc1PdH6iiDyl2rG1Hih3WECvrWMnGUGzKtoBJH/fURdk8LwLaDbKFmxw5f/YN8vclr0l95PLNFDJLtbE173o+JKA3aAaRlTOMfzpZukI75fNOqo/TGXr7NZL6n09vNi8N4NuQhKLC9OLyrmS34QJRfdqzgbbQy0Y0fCdMCeWXJjBDr6Al68TM++zzgCAxDBU1S5k5e20COTiFG1fuU285rFbXcB3v6/2t/lQldG8uLilHJ5K84Qi1cnZF5LvkY1B4iWJrmatTlygurMhoP476oHRzjbKumjZcGWKimidaoUgXxuRFCHseXOxk6avrQwRQPgbAkCvHmuufI5Gud1g3FfaxpbB9huipvRmii3S5N4UwhI+7IVqruQXedFo0bw5O+kdFUo068kN3Y9z1MToClpOwHosgDHRxcoiQDXsANQsEx8Nsq2lm+kWSjlXkJwYPT8GojF6yii/4yXz7GGVzqfoReIfFyqZW9hpnsGlPCrOnQsIlq1Xa9hO79pPjNVuBbuLRdoQWCQviOfxPjsFwHR446UeiWkckVqkAbFMjog8zGIZRRfUIU9CHePCitZETj6TJIdopGIDwvs+2jk+3fKy5jIudC+77RfXDpFiQD+aQPn0mW5OTIIvBBiR9onrxTCXDc/Nt3p2h3eTb8G7fWNyyGpP+zgbbchY/R42Q5ft0uccD3iBQ34Tcn7NThVn0wCICBqkxJYfEtg/Xdw0D7lrgPaYvUS8Cgvm1my1HdwAQayW9NDhtwtDHJ6AeqY6uXsKXGeumtvJRqh87k+x/ZCI3P3qSXIZY+7SYSWFkDVA7n/FSJltb1KYtBHBpC5mxoYNwyqgZ1ADJIRUuD7HwU+x4Wzsxz/WqX4P+l65gIjVb7EmZ7IeWvyCrB2AuQ63JUf4nXQ+zVzwW0BgskvsPuUdQiZQhFrVVOxwYJDYoygLdOz1HwLlS7Nh+ovOV9dKg/seByz4a+w3HfHZeE5NY6TbSvxTSQC7Gw+fczsYooEbxfZ7hERW423z1rptTRXJYYi3nGG5ZoWeYdWWqqtj5WUjk4PWrd+Y/8+Kzf0o3frRQtR2hxSpU8wpbXLSUNsEU8D4ZcCNqmyg26Sm1ez/oAULbov+xw79wmO6Sj5EwPEC2hTY8L6scr3dDlbhMZOi68lABWKifpUjaS3YQ6XI3Kfqj3Ev/WCAHwBmw25QaHenXbjiok9Em1WrouhzBA/GnpMbvKNAbVWv/cIofouGtU78CFrs7/vMgB6yVSduE1ZAm2BEpwZeSjvDLEeUnN3vTSAr+5ynGH02T6SL/3n8Yo/DLuXavTqvJPYdQ7PWEbGuorIlQGOBdAdMv7S90EBUDzAeDhIgtGrmycUmT2TdoKuav18lefISOQ/oLNJWMIhrG5iOVL+tzXlATXtvfWMWHZK98bnCao2copk0WgxRHH8XddoqSdXKZb3xgcA6xFuY1uYOZ5Bw+6+Z2ELxgN1QNucBGB40dq/BjMJOFmkkVTM+M881n7YmZc4J9D19qrjFoyTPVBj0Q1nhwih49M6KBfBGY7BNncQQ0Lcjuvg/QVXevdYNxyO9fGsRaU5Y8u3wzzcdfxoysOq9vdFd8HLhQUkTlF5m4Ez4wl89neWv1JvWmYWJ6r5e9iarkxBwfJ8axoy8+eX6dmplcUG79sXz3fBM/sJ4sshOZorGhmlOGVyYrASx66YClTKbVaPNWpSaZYJldQAFM08ZtqJfq9JQ2N8TG+ITSPPf6wkqC7bkPq7lEl5fHyO1HAIVc8z3dcCDugjkX+PGU31GUbb4aBJXzdtY/QDwQYAO4RMRRtmHrh52JUnldcN9iXwpJdHbtAvrXG0MOGVi17M0WqQ+ZfVk5Vft6ldkzJEy3KxBxMtWOUOvby1pU0PaKnj8qUX6jxGY7ipO/Q8BQSTkfIe1IlYu3dBIK+iifMbinyECnSHd0k98dZ6j7tdNSZ3lLvpVT6Emu6JQluf1RfSkIix3H9M0JFm0xrm5guLzGrDi7W+Zz2RCwiaypATBV7CkXjVMNAa3dSyNil/MDfRimk76WaXc6dJBXuSCjWrSRj0XYlOQ+mzK0YVWBZYLq0Ta9ewInydWHZB6x1qrjwUIINVo9RETeR3Bi0g7Yhp6S3Bbw0Ur7U4mt5pUXB5i6cwuR5P5ksKARMv0W1PbCvKJlUrotHgI+f3UnCovrVZTOyn7AWPB72dheKgLavWmG5dTIZDiMk2colRbcyWu7khH0qYw4jQ2y+2VVGvntgqlUlMl++FJquU9CnA5of7CLxuXihYYb7Vw2hZUbTUPpixYPFvqcIEJfCTSuhEXgLmxmnUPSm/gsIhrTX/UHvqRPdi8HpjX4cKt1dW7clvpolxrED5K0YerkyseWeA3uBiEizC00cKwxLvCuev0GoWgMRy3Ow3UbJ2fAl5hmL8b4+StooV+bX2TCzfe7inEedIIlerpmX/H7FOGSBvZDwGwIoT9+ZPR+nGTcCJOZaKvm5azG/AjG22DdhEjWEBSz5vRGese77d5xG4AwPEPYu+2PSBkJqDnpUovFZGQTJtNQ6M2p7mGraWaDhqneHxXBkRWsYzVn1lA1anqKEyotA5wogZ/EBp5OvFxUWF1IgiVHlXqaG4fvQyRxr4ex1ya8qVfWl8OxBetjske5Skm6a39wNuNmVsnCZN76lfgPp21Bawyt/l9PS/qt3p/asy48iYz8iB9WoKVSDANk8B5c6I8SHdaOMYK6QNap+j47pZ5hN8UgTCxJZEXmaipG0XpNX3aKc62ZY6TiFiRfW2znNz8Bhb8R5yyYNu7m8S6Nkf62XrwHuKgabKBXBfpJxdG12Qr/QZQe35hBjitApKeQ/LvagGn4FhD8aOd+H8hpwZ6rTuoYuBuT6vW5dArhL2K7daTr0FXp2r6vOw67mLGErn3U6jFyLhgseZyG7cgqrEqv23f/nsB8shIEOt4aJkoTqDly1QIfJ2BZFIqqVAbQrOCg3TbW/PAyJRH746OJygt8flwBadRc4bZFgfjzIROze4w9JrCAtAYzrDQTzGJUMrjk/mgOxY3MhopDq/6mXJ114ihryghJ6vjFnNgz2jtokIUWNLHiWm7fS5dzyL806axdiaVCcnLEx8ObL9EdpcaSyzwSCSdSAGhDKAsbF9YBN3G6H8feZ1T6QD2wT8m8yYMB9CV4Ayej02x8NOpXrOFGaNtvqKjcXXogOrmGV+jVRmEnywRjHhk+mJTFL2S8rWJfFBxDc5xCNG9DE88CyLPBZcAHUfsPDUFJ5RvhMqmFkLFsGiGsvHySEg+I6VVAqSsLx/hDp/PZFAFrSrR8Am5XoyPnmMSMpuRRk8wZBg7MjqN6f52ywwLpLqIwXgxF86TrIJlitShBgB72w/VEHrJxgZY8H39jLLh5DKJcGDViScO205kCFAiLnQW0GlS/COPjrTxQeOOsVpgP8Cw2DA/hrkzdt4Crl6azwq84EEKnvwRv+dJ7TlTuwaPcFSXjaqT6A9GSpAJBCIRUlZI26TYxAMSa1tLBvWxpd3DYu8D+xIRIkKV13+WdC9qCBSchg8WXBhtKhfCMm46a7tf+slQYn1JelJ1dNY9PHV7+3gCm+YQsexsfOZQKiY1rF/G7TQ05O9Je164bksH4m1/z9x6DG1DRoMgjnflBOCBK5jbZgRkGvCsA5ydmMTsngxIDj0+pnYIMZDsztk36vBKpuNBGv7BuqOw2HzGxVFIdaWpvzC4XJ6ueBpRjGj49fL+eIkH8xmrwdJqUKR7TaqmDqYp/cAF35CUyj2/M4IUY/wz3tMBTvujN7NpwPRmJH8uWIDg7DRA/E6dy59W+wjM0SVgMNos+p4Y0y045W6hf53nR6+ZLsmoAVoeT5mVc2OdXaJ3uX5Yh/q2CmVi1xPUyjE7LG+E3XSkAlYl+hGsOOqmvPPg5400r3E8rp02pTxlJNMDF3cixf1ps5x451Lw0ogyuCnckj7yJWJDUyon745fS6rySZm4WAZ1edFSqWa9ocH/zeS6jr3zR2SoIY7JYCe0wAlrR5AQReuSPwCT1fj/O5R4b56M/Npi7P47Hb3p280MxSO6ukjVBlvlS1rVrcOo5/AfQYvIia3ouKlGb14zpPMDc7JBjm4PF/BpTlwI/6HFC6JSdXyCfZEDFwrDpTev44dLx+bNa7e/93MBD1SQpJqn3fvm8YrpfSbqLeJ8DfNuKdXXaTmO25k6lRB58qWlsFqSdWKIDgOktOsjPM2rPk7rPa9l/7uVBhtwwCX/LC3cmIdLbKHFxphCk+1/VSAkOShoBcMC6dCv7KzSh4oUJysx2cl5Sg0HaWPOyEE+MJDTkkd3HkRsAfm1SBrma1OsvEZybf9lTXoPA+FJPsM5Lv1twJ1oy8NC1RjOLSrCnpGSlNiMZTZNuX+3AntztE82znreBFlUuHSx9AkNvqd/8RfTD+B9PMvZEBHRmhFwUW2n8n9v3O4iVWGJm8a1OtNyQWjAGhJ2Bhovr1WXm0sB3+yhikja8Aj1EeJju2yzYBWhligC1dizxl7F1XUDUHYMQVymthLNmR91f7FhQMP+gT41zqJwIw3kDCHSHgRc6827qVacRkg13bvb1l5HMwR3A8X93zAzzxcM66GdeNenkfTdEknc5kzV61XrWLZaF2Z1lBp9yVMV+Zi5uHesJQanqXP2Ak6/Fxq7ILWDfw8uYUvMDjwo5ySDcyElQ1yz7VgWWX+AaMKApw10HYeeAM5Afkyv3dxRXKhKNyNn4qwigrekxyB/IExG2hUrcjnbdy7UoA+L4msoXSN9DwouKRZl+6KnZI5XxcVq0YE8+6iE+MGjwuHLOlJSk3kUg48KgPlUmZzyds/5bpaw6UnP36lkns+8n8GUAByWCaEQAIv++DdKzi6khx1ruqx0ueAOn6B4Zq+7ZvU/c3mc66Th5VlDoRvN7ONvqZcaJum4pSKmbZdrTryEI5XfyWGe4x2XpBKpStNJfSd3DjzUIfZI9DBOdJYVuuZ65oogXaO83XprkKBcBhwiDIUdPWVgzgtfSoFnsQsAKEbYzLZ5TUX7obUojNd0MXU/yapUioby3KqmkXo3pdGJjkcmtfvdpJQiG3Sunix8GhuXY/oTDQF6D5oZ7dxDnPckEsjiY7hFAhycVfjLpaJ5CLEoWYWBnxBwiEbsS0baj62Km5RJMxGfIIk5n04b9TIprEroBs+h6pk98tREuletc8G8tGaTcU6imlPd4xAgVx68RCe9VRqn1hr5L5mOWnWQapIt1zD5O+hb/oEdHQSPfMo2nphCDUyu2J4pCiXigjSscp1XHep7vgkPXI23vnVDxieC+o1juDNt56bPwHfArtF1MYpy0L87N6QnGLLXXGyP7rFZO1SoIY7kJroZf+T5Uezg0xwkFBeCiPCoCArXMMWdUZjPO7/yPyUCRqxz5O61cQnRfuPbek0iN6Dt+Gy99AAlf/fB5OuHF6WoNB5qkNaAeM5uVM1uNiXiHYBSxrXVnrV8yUHxfB91QFmueYBNGg22P0vRmJuXgs812fTI/ja+kGfYtTKpVdgARsy67xKf1tYCnqziyAfsrVYfRlfITgyaRtC6koa0rShDAYVnPD3L5eJw/KNroGy4a1sFKKwFo+3RK/uebtirEBQpgWr32FmYQjQ0Gz8GGZVwLAswX3phmzBOe/SCI28YBm/oaM+6OvVy+QSC1AISUpNv7kfH87CLO4Qn0TGsOKKJK68HlcoBjBplCVkwPlnoVUVDKjsiMqbF2xDUE7YpKIpRMIgOEIz9mavVaRNwxL6ug9jsnxfITyE/bGDMuNSz9Rx1fsrJh8lPkL28tpAbYCE/0yNY8We9gp8IaE042EmWXsnzSYvZ8oBeG1PPPagCL96j3IIDUvA592Wv0YcPa+Ux8QzWNX7hjZlfiNoZ56uJDGXvWfVFmxSQbgL0HnGzYfDbFaEFJVVSXXunoTpM9bh/7+UcUzFX6FrT4Oe6XRlhAwM9HX7RG6e+O3pSoXxjV/I+hCOYQTbPdkKxvgVMktxOESs8kJO9v+wiO++oGLFwpb2m8iOy15uyVYS2BU3wL3TS5eot4l/k9ezHAweYDJmtQZgIDiVP8m4xcPO5+7rxu/6B2dgnpjnuJ9jA6cBcrhBvqL4qpkvvhXpD54bze5l2xl5nP0aMCChM29u/lrm7as00QEOrY6eLlQlSMSv+pWBJeRBmHdNglKSkY7IQOkdok0/fBJn5OLLoOoalPzUCgeebiQ43kG4D/5Sm0uN2z1lRW3XSJLZg/e2udcdNV1ohfmzLMFUWhnKPlY+SLg7XiBJe3XPgJQkMH97+H2Zu2EQPjgIMxRmpw0ZtitwNqMPfkJClJnquRZftdAgXMdu+1ujVz4P0+4R+hCeqNOWqu+DoHVic/nbX10s5Cb9G/jmyDgBcAMW7qygWLJvRvlfSegyeBGi6XP5lltEIoDtFsj+mtwVxJcmWL0j15jrvPnljggB9u7L6CVdO4aPbKuoha5dxks5OAaSeNtGnOIqAhi/6Cy+334KQVMnYGqRwIGbmK0ijyYw5+EbV0PtIjDxWagdqpQ4tuLl8apUJJfh1Gk8qIyip0wK9680bYoEsT8g/mWcMMrT5mBtyT1Vm+ohGODr1+zFFXKxj8u6vBDGWoUodRvCX5G/OdZAccC1gu7YXMBKBpPw6QSQ3ZvT7l2QiOSGypXxMa+aUDYz7Qx3Pq0XO8OTmIuDUcitVhChv3gENcHPNyShsU/3vgQA3PQky4xM8+QRBx079IBLm5DSScLmEynVX4HhPNu1WOaPVRmOZ4QJFFHAkb91zobfTPyP3mSgex3Adm9C0p3HPwFfD97p8VKUg36kBRfaA3JLvIFFMBVHpmjimSbQY6wqWeM0zCAGoyaEYcZsWul1yJLXyo2JolMIy+O4Rp8+2JF5bMJvmPByfBprsSwtnYCfgXFBZ7XuMK9Mx3Dx/B90hX1Fosb/j4k9hmwNeJ37dlyfx815/nb3asFfYqHm494a5l2U8J/+ZxfWJY63oX/Mo/R9ybmAlT1gPvvk2euvZbl+dLjom89nzDyE6aUtBjrxWuqGTi7USSECDMY/gX9+cFGtCHIqh9HLTwshtPllL9W0OLn/8VMOTw56L4cT8E/tDx+sY5sO1bYpXe/xQUIQiHZyYBq9+kasEpa7uPaES/DNCOCp+U0IcCHE24YIViHp8zwlnmQUGteHX3DO6aGdBUaV+gkIp6ClqzuYGyZHlNoBdWTx/i/yY9efLLF7UXdiY8plW2pCRu6Gy8S75wMo6zOKVQ4hhjRFqGWj2ki3lxD8p56uDFYIvOPnh7h0zhmQrcX8iwV6WWjmEZWgwY5kq1FUwYU0Lxk61YVRE2zOFmJUuY1mROnUgs3WwoY7RC3Rt9sYXuTygO/tHii6m8u48Mvls1wyBwW+F0t7GoqH+DnjN0uoaD7MTnxr4cba69IVT2XQIEZ08muhX+1V7w/QUV3C5LQMhc9IrCr8c+wV5nOL2Imaeh1px9qBTTxnUZAah7qHr8zioTKsPQibuZX6rXtVcESfxTNSkGtUraXAX2ekqpIaWGJ37sUj//HFVCusjNxOTTkjWaey22dG24awEBBPQK7GV6ru0D5ue7hqF0p8hGHCbVND6wY/uVwTMaVUlSo3VmkbNFK4xaqdMxMQZ451Oh46L8x8HEHMOaXlyXxc3g4Q8bdcqfisvCZnXQzPuscaUDdiSNrDHVHvTl0DvM66GfiMNC8b4F2jS7l2cndAgcXUnkSi6N6J9ssmI7Fo6CJ9ozvk8dYXlBidxTQ9vVVQJejbc7FTJh9biRJtsIRnF6U9WnI3CgUSZLbni3yKyyRVfym9LZXaJVhPIBjlSbEy0GYg+FjPvDvOZQ88sLrDTmimYWxpJQ4oeXdaeMKnpwJ70XU5U6nx6DZdMQWKUAqpU9l7Rw4ns6u7ZnT1MhQ/HZyUoeTSF6QK/BnZFonMuJZnmoAF08IS5XePgfaQrxDyI3ybUk3FdN6/Dvcu9PPiumOsjyDzm+Csmi+GaqhzWMxYCd3VISdLGc/KIwvQswK88JrdqIV/sC8C6fU0RKzG/sdbly8T24TRO2qd7gakL3mLZIQl2P26k6EWf6x5RP1FOpTEdfHgVGWV/kgljwIV+dUdD1QSZULKks4Gv/Br6N1M/dv39cRenHnw1oNpE+jygc5Bgr1J0NrohGRLVDXoNn9xsm+NTDpEkOgSOoCq//rSp6tPplSPWrmt6d8w0gGPi+A4hSxe3X4CAOYvcHs/R5BXVPDbNitGo/YniNjhB0/Q/nnhveTIqW9QS8OB/hou9QsEtimv80S1IMXdH3du503Q5lcm4glvcfLyC0VDrwZ/50uYyV7dZoU+CrQRN9736O3uwPSTgMqWkfJjGV8Ej8pLfkVo3hWVvmimD3RpFD7UTfOvlNO3oSzfQCn0hIcNbDpkmZyiVd0wjDJ3FiM0H2nKXCu4mDf145ORmaePWnWiDQw3tm3ViCv9PpMNrZnRet2S2jFpNNIcXsKfS/W58Yl/OIVM7WzDWXiVJczH5kbGyvBeweR9Hg/Lia2poYJA3vaKBRIE8cQWo6EKOyI/G+lVEZkhHnl3iTdRCoYz9CXYoONzgvwmQr2Br7+FxXESSbpRO+qSFOzeYWXiRP+kalEN/a84BSXqhut7vUOwxTfm9oC/vXbZcZLYFye2xQPzJAMOSZU53mKEcWZVF+8j60wyk6a2ewKxc7IpH0UWCk4s9s9b2GZdxm42D0z1cio4mQ6dNcOf0SWp7qyyCJQ0l5hmTnVyou41vcFTOiHB/PuUjM4gn3i1imKXHMkez8fioZRXzJJP8jFre+cC5ecBNWqBTV8t8gueENBBOOaEuwPHGXOh/9LJHXKpls+Zfd70FJZNcJZkOt5B6X8QvSzMcJQsSVXZPBAi1nQCUx67/DWj56JSi9AvUGymZcy+0fuhC4JOelO9XPWp6dQE9MJTqclWfWmnS51wM+ud9DdCWXiEAb8nU2ERwt2fPbFDbxq9tZU5JX5mIInyumRjUKfo8YsOitPNmK6tyJdOAp5AnQfAwy4FNFtpn4L/qWnv+7ewtFOupXyRuVX1TsfqURqyh2m2mLqi2VlyDYJ7Av6bpYF/ZOJcp3t2RLsK1cZRwPTkRrMfAm6nuPg8EX+8n14RGAJVZtkQgULzayitqDiwrpLZmfWT191SRffnKfXbduDi0vWpaMTBKU25ScQrzGLfqLTgN85CqXSJRRR53ORYjuXTVvo/kpHYmNZp/YB0KPIh7XhJ7+wTZZZvfQsk0nyboXppY9SKk1iM4CqFSQ63nGsayQduia35xNDwX7ZlwqD4/wxSGKCsfcWZsm8Z/kh4uvXjc5ZJSz76JBJMmbAmE5Dqtjfe9YcIMMGL2d8Zg2EHrR0/WgdwnPVTOI+auN79G4/ZCWk34QQfwqFPLa14UAvQtFgfM9mgeGz+xCUM/TEhuetZF7hVSJCmqLRbWr8569oQcwWjda5pbVrkCfl7i0ClmA82Mz1OBcQ9dOX2/JtFhu/UGwKVIeYjzsNFo7ySJFWFl7+lFXUb7Xmqnv4UGyhwAaUXl80w467G9+HrHLnWu8fSp+YLeWY0AKu5hKGuOoXhOYKsRm9PchUMeGNvkuB/zZJYXHYRe84R6YPha0ZL6oRWqzhlSwnpbfaDJhvbIwmdNLzXtqYwNjusL5CWCQAwzzn/pV2e5KCLrZ5bejBF0G79Pcq1NpmrYA0SuFWDn9PfX+Cg6kpkkTi/KqH23cYZyA9QNnVhZQ2oigwiOvhgyfSX5bqaDcDOuXWsHwfpeU1fBBrZjj8yC4Wl5kBUpY6b6GlFOgprWSeXM67CULYselv27ZEl3QXMuZcJ5mvxfemnKAxfE0o30Q3Fu9ncAxiBrOqPUmwQoYg1QYn0P5rSdqrC8Z2g691fegJm0xnTbURSy4K6FZxNBMYKxYQeLiEKd5lpEy/o9mQTblqQA2IeaaWmyCKgfRUjvpQsswfTaLakh8ZDct9DdBMA9RIOiWiht+SS4U2pen/662PMV80IrSajMZG2RmNWELs61dlGQ3FwDuNqWg18R1FthmYKrEixLkBdTYOFlZIg64lZo73Nr92Lwvrq0e6B/Pw1QAkYyF6YHjlwQWXNZFaRnKG1/J6/PCcXWkbTVmH1nAwPIgXM14RqP6Il9bMvNQDFmezVgvSNNcRRtY9u62XeLBt76mBRMWukU93OKunNv66d/plzRfh/4tSJeXMHzn1e0j1gKGXwI1g6ufsXEVFc2lJwoaEdv1Km7HjMDohjBT1k4r+9+PI2aawwOkH3WFTl1KPsOlO2AyXExC09iF9WQ8zFHaSvtuxr4BRIwaqFuSJNX0ZpSRRY5/J4qKMqR9UbNFD7GI5Zj7ROvCDjKj/3sF/qxRXbzhJkEOkA2YU1rXG+6KWwUh6Np8cXdhBtmrRTMCUKBdTYcvtqsZaKw6gBaTuwGZjICFPXkbMU/SYKmqCoyEoKJ1WfSCvMBRoPR7UYSvAiAiNCME8SPjkSTOSVpnST1iA8k3Ko2J5+L7do9lYygkxl2dNfR9u3lFyIgGdUv/MuLaqbe5bY6qJ466yaIrX6Y8t7iD/RVFtF3rPzgoqkS64GDbrG8HYLxIdJ+SGtHiRn4DJg9fwaVfnoj8WyfAlfG2e65Vy1z3a+CO2UP+7KAoveBTzM9ACxOOs7w4iEssw+w2beaBL49WzwQ+/7aRvDW4pYcQt964mndFg/VhcfiuluDdgHLL/Gc9grj6t3Cm5qZyWLSnvuR2G+WPgzALUmJy2KS38tbSX2ZrOqP4hDSHu7VRU15NzVoxB/7VOJkS/JPLyKXEUUKBHiRarohzjMI6H6mJ7mqM+du6McVjs+wc5m51KfzBwMAV/wlfiE82ENF1uNuqV5hO4NLhzajQMqzXHB5RedTAU+kSOqQvwzhnH7zlFqQ33EV1+bWMPkrYSXz4eRuTPfkRHDIT91r+Biymb53VxN4MO8ELLbaX8ymSmVEcPzvyVMhXKPfadiiwmUDRALyIL4SdQ5iKKNFGjTGG7Td0l4Y81DTI5ZuGLpA85BFMJIw4efZTY5G2v8ijEfVwP46c40f5qptyDcdycVGC2f9552dvJkM0j+S3c66ZOryQE3CEXABub980BkKiXKR7/kIOdf4/XOAqofL5BLn98dsYA0lcjzRbexrLs+If8kPVwYDxhMvhTB28n6IgFINI5NC7kYVRRBx3a01SfEZUzRzTWwwzt3VHlFbnRj0MvzxQiSZVTp4ODwtTXL7A0O1Mrlpz7fuMo9UfvS0nS02H51790vfryhmchmqErIs7x5CZoULpo8i3xSkoxZ/tWXl5q4/KusxSfpX5sgF/bPIav/BCNx7rw196A67PAn9dmAkweb3vFJl2oPPzyZLAVJq3jvsvwIoBr/v6PLD950pzRly4WbF+6Y4s5y0fxMD41DmjNEEoNtxMK/WgQqIYuu4LjEoPeiYo2lmMvo9Ei0mw2hSLGVFrZK17Le0g5EBFRrUnXWN2DxOh6Xo3MrwnfC0ZpXHKO9mVA4erDOZQITzVIXE2B0/zIVuGbFoL2k2s0t4LS6anBwBxYnj8tmjyAhOACKVrs3YhnpKLYnqMgQ4XHh9StsIPjvuzm2fP1toKQV0x1V2sn40vGW3+PAW93QGqcm4qXIhRDnlnNz1zI/UEua1epa3KZXPvR2t8Zz5wWB0Mvv5fh8mRBxa7D42QJkMbl9uCBrz5OtLJdj/20d4kLpX3/clPOmjbEw9VEVDZBX7y/7z8f0znPJnSgco6zVkAn02KRHP3G/RykNp61XFHciQSfIq3/qR6cJt4UCT2ApPHqDNbGn85pVDTBD86gG88uXPrqLvNNTu3b7Iw3yEiM0TT7lJEVpsSvTgG+Veypewy1ZvMbr4k7pM0BRsXvt858EPVmsj4+7B4ioh2smPeaTTwspFV91mXHOjPEUPMAUWuJ2AJc5nQvlS2dYAi1JGhp2RJXFEEqNdFOp6ADhCUHy2HIvTHm9kleXO9rmGbbaeZde7iVxaDH0qy89bzVnazsN/QY0izCYYNB3kV9W/KJZmHIYZVJpiB3KOFxV9tFrA5GGuEBb37vduh/5WppDGBV+gIB2E6K7gO3URshx4xE8kJnEE8oZO6Ma5zOZoHGLyjZZtInOHy2WQi+BeKShnODUemfkUW9MktqizejDz2uvy1zlmElXBd6yUpMNGvRY/1P0RkqWhfz8PJFBuD0hghZjVqS8aWHdNEy9wU+F6LemIYrSfvvkqj/FnZ2Ze+0mKJBo0T6pLIAC/qIR9sujVwMf9wLtNQvPTQE0DdUE9OgSVjwa/PRbcDiC9zPcDAT/xEWGtCERn/5Zy3uny5QCojId1A+AmSrBb+9FLiIvTwDo9mRYd1zSCmU2M1HyBdwlapKVHQ3kZhyUQngQoiZUAngObXiTdVQOusIFwSseUODBADueTwI4gLNJ7u7PzY6PYQuNLPK/YtRS6gnxZ7aFdyaUBZa8GeXQYQsuXZQDbvNfx4TQo8TJ3Zw2GESgXB/VyDjyR80bPRhHk6yO9mqfh4UM9KDhS0t01crB590sz1Gj4Ue18qaeA2wgUUzgBjuHzqfT8MG0ibYfuaIJ5PEty5jbCP4N5GsENuMMcyPeDZC5EC6c8zeTTgzkHrip1bOPIl51O1Cs2d9imQtXcPqvG3DTJL2n3B7DrYjxp+hoWvZDuD2SSsymTZpNGEPtFUdFjZ27uZVx53tm06FJQ8sFvNF8yfLLiRz1+UzlVICJyFBt/8vJnwEmmj2x0eFTe2w+qDno2wgSmkwrRoh8emx3fGmQ9YaC4DCrZ0rGPvXrSTD3wArPYdj+4GItiTjhVo49yUu84O0TKafdYG/Ixfekzv6Gl1Qq45/ImPun6AS8LK17LjWlv47HLRfID42wPLbQFjk+BmPVrU2VeMzh2qL2eGtwPk9EwzGqtubaBqrPPet7N+Ap1mXuHETOjTL8+dYgJffl0H2qNkU1iG5hsTnVCPoQzn0l+oV5LD4p8mzZgT2P3SRKSIKhWjhcAUi7aZBdm8pqiWWuwRXnPJmze+b9B8WWMaFSgspZyGJt5hi9RtgwvEopuGjnnlwilO/eJ/+zcDesb2lkJyV/FMH1Wo9tgD2t1o8Duab/U3qC94xV/DhXtY7AZ0K5MfGuOi9wsJQ22Gmir/+oKUaFehChcVwDzmFeO4RdYRzuFPqvppUazvlXIWwPhUwKDoVNgNjwq8VSeJ36/OMk7QMmIgSSLPdPPjm8nLuh9tAS3moYgG+3dwC99o+s9AUceTsQoRO2g82AsiwAkBJEVPBv0VxNJPQAZxvlxGHuYm+A3x8xfs8Porb1qA1gW5PdIV7Yttfj3t9IsFs455IvFJ0Ka5L1ynCCkAzkbU9I0BEkTXW0KHIJImFWajLFPkSPd9ZqJ0q2TbkPRlU/353kHhzUv4+qgMTFqrVzHNGL0ZKgfIxn2xdbyefJfVyeIhxWJVXzRMIG9m43+FiuIw+Hyn2AWqh7I4KSd0fhLdc+I01oVpYmNHvrqP8d8UKNjiXOiYE5KlRfKhs63ZvHCQGOlsmI1ZqTuzeaG9yxtIOIZVseeOFB+6LnBAGLU0K1hWSRh2tkIx7lluGVJAOIY+sOF85Q6lKuOrHcd0PS47vYyC+zlKyxe2dlgqtUuWs2i4NK08r/EDa9AT0tacPf3sG4ms9XEBh4Ca1OmSMqz6IGakSd/lD6Buxp8TEnBg2bjsHXRAgy/85uzCNHcCbJtUBmCEVvyt/9m2nSzUGF8PLVyPfgmtqIrw3tzLXiZbvmqNTcUl7pLctXoobijPY84Q7oRaVXLLAgrdmIGu/G013DHMfny4QqraKWkReQ6ZVBS8yOlZargHyPFohFg/pbKE6PNVC0tkwdhKCOp9venWJWS8OSAsK+IBCzQeUgIN/lR9TIbzGpjU2NGwyrra0mThbk5P5baMotkKcUdb7VU1xZ4j+SE91ZYhL80IuiBjZC0nMEA8nfOqemxG+tWICM7p0brPDtVCvgdGraKzIWeoaHSzRrxiPwZEou0P7oca1Ny0Ba45dxrpp+s3otNkaE/pknLHphYqLY469zi+37AX2d9jQkWOiySMgZ93YAilUiLXZ8s3qyVMmqGDp68OT0+jEaQbFUa4LPuXNnWpPnRsJF9nXgN/mkS7P/o4cpokbFGgb+jM9i1uae0W898qCEPafxzbwWn4DEZUmaAJ8bJyW/ky8hOZOhIn5WQDMWaDPLUvdHPnMvH9/7420Ro7Gglj1YcvBq349Ycp1L+DVMb/ZBhivY+WOZQbalQQ42vMQKH4J1KCVsIeBWm84+OEXf+VPqnF+D8SN7jkoIH9oSL/HyYoqxQ8bgKh/j3+bufbSW+KpCvsLHsXdw4Oh9GHcb5At6KL8GsX0IWiZbsn6ClsHQ0IbIXaPQbsCsN+1gAcx6eyu5rvuI88bwM6JWy6hdxfBKQG8QaSExozMacgSItb2NrMWO73dkGz1yRhayBYybT5UkPy1Wq6uB/ZT1qoFdDt9LE2p2flwlrmJGlpElGAt9bh9jlpA1Ygj5YPRCvtdmeMH9kyTCb+E6C8UIViUc31h7OKWeK9SVuDmuIY+ZxmoslOsy4ZUGS4Bh7aROmfv/94pA4J/7vQ+fB+YJYpP+xLQrMMkl948AI+lpXfKojKro+PeFrNz/dZ3YmWOivrPV9TRCHR6Sck28xt0tSr0r89qId3cV/MpQcFzjlg2020vlR3Cw+1h/FZM7QRK+PqBV8BoXtbzW6uxeFCORvGKtqdgbf2+z/byKrkqRenFaiAvTwWPMID1/QHFuXv+YUwrHsBCWBCsBmPR6sncpf898PP0d1/x7yHu2GuwkAuPhc3SLVkRhqZHK7SRw9f6Q3LHZSJgu11WNiuXAokk/LSYClLcn4sRz6zaEtYCOW2iJHEcgsoD/6pwuKjht2hkk1fDn98VzZL3/NnbVO64LVBsydDKRrhufvt5xPT9quqCG47eJm1rneLoDrqudHd+vkX7dJ8a2PzBlm/82qGuO1Lyb42f5OuEaOIbuTrnr+TyWkD2pL8anYOEhbWFFVRw/cP0HINvp3HqFIVdYJTUDJqXDyySrO66XZlf4aWtepMoHdBvkMBkAAdhScjqMooZa/O97KnGyC7wcxTBWoLus1wTeh159bJcAlEInqC8rBwbyS0UmCHei5oAhw2xoN6GaV5DoHiA9SU4wVp5N+y8j9GckC4UHaKnx18t7OVwpmPQHBB/aVOQsozmlC/I3b+4mzqFz1Uf1q677PfoewVcS1ei0JB3cn+zBv3YQEz5ou1VpJ2cl6YWUNN/uWYdP7rdjFspKeshhMZpCCcYMtrck9yU1Ul/muCW0pLA4yrx+88OvefYMQF5akW0QNc1f8/vue0g12L113Hl/FIlbZoE7+9PC/wJD10kLkxBBG9wkb6QUEnweEB5MjL0yPurjYo0xwAtaaHZguP6YGgKaixRcLdSpSoED9ApiPJS+iXfkQ6GOoyS7BwTMt6W6VGyf8qd7Cs0VlyzKKjMf+Bu0Hzqn6fzI+IHzCBBeyUYBqKhpnBmISErG/ea+tyPPrPwGVDR+qroddPQdAeuiIXG6+RSkLHKPUI84S+7q+L5Z7jKIkdpfIjeNJUn+zprJyIJ9zRW7XGhLfXknw47WbZhU6jlhbrePUS4usLbSBzSdiTvp65w8fV50WcOPh0ilPIxtpI3dRLGXjUQzEY6ye05YHpQqXiXial7Nubje75TeFyXlSv48hMZODtGXaSDEU6z/nc44ecBwM09GA3050Brlp8Mix2SK4fn8AcH9NVS68Yg7aXOm+kLXq5mioSz9QkWiiiaie3/PfYlOdHExr/ZHka3zm+U2We9hpJgzF/ViaKpI21UAb02OKAOh1qLErNyBhug/HXb6Bqz6Smk72OFeQRI9VaAvf+jRbc+x6LRbSNHvz10obATt8fwcaZ3aLxSw1V2I84jdPKviq/xT0zyNaI9+XKttAWbWJdZdDKMwpWZPE8Z2HWyescZMTqZMvyxztxD7u0FajX3sMWLeM0jUB4btWhJWPtrMGKjmh7pP7fc+4mB87oLuF1JG6kz8Gs4gvYyQY52y1QR6FVVRO7Fxigw2EJekkfoHZLHPkGFblDv/FOQzVSGrc71hyiryjrzZWqkSnR7YERoy4MSVrEyR6Jd6McLrQsCQa4UO314zIxBx4esc1vCLdGEEBOCzq4lD5MpQFi1tLClcCfEZSRItuq1k9B6/hefhvhZKzKiwyzt9fBub+lIqhtbS6Y412Bs55EIi43ymqn/F64wJY6AKUQldPFhSYw7EYHrw5BsnLDmOT9C88A5odHu9UiR6HtPCBuhBtY9SRivQim9Z6hEwU4fB6xCJ6De1drJDFXg2hXcegOs9H3N1OLlYvGMOMm61MOW0t0B1PdPRPepPzip3DqxCwNKXvipXaJmN1ek09+E1JsjiOhsgGKyaonEUS63fWlkuBit9eIKp0ITZq3bbFa5paN638Fmc8IgA4Knk3aGhP3a/ANoiBM0asE4eJ/Lwj63z3p/Iar/jn2kE8h70+3aWRvG5HeGyMm546jkPyxePuRuCuskpoalq+YvOpwjtDMAIdUXsllawfYo+uVdsWvjzLwlECNtGxkTvN5EId43pcLASwNmeQHMkaog5jzMT3aiGAI9Z/BaJAIYIHAic+bvD4T9BhwmPAptSUAfB/Hu7TsgmWsNg3z1fRNboPSZil92XOIMk2jrYj+oiP36/Zq9gTzKypiCJTjohTcgJnf2uhe3DqJ8hhd3+rvz2YmXPYd1lxjFGrU0/srxGl8NRsDhtIXz6rv5+mb62UJxBiB198ijg3r4bdTos6nvwumj/XnN1rAuLvybx6vDiI5isttTA6qR8+KeNHl3nKptZwfPr43Vd0BQWmwXosIA9c0T+IZAJlwBM4tC//dv0e4uSJ8khDe84xNIzG3wscjBvseqy+Ph4yZblv6H3SZBExfWSfvpiIh/oTYx2XNs2AhvQvJJ6VTSZ1Fwuctofec1udpjLP44DvzgehBnhbEwvVFwGVx49KWAtKya+TI2Z3XDHMJSJV1+dQonRMzA8NOCtME+id8nLJvxu+ipHUsuUngP57Hp/Xbm2JAPtOOPpMPuvI27u6XasiJaRyU3/pCG/UgvEqTyiJFBE2k6DWaq5hK5T2OQTUrY2mvv2VAhKpbOBcQ9oEyTToA6mIhXEC+j5GT+pn+xNwOWMjbGbaLcklGlZGbJYvl75lnAIWpftM8HbO1fEkQ2qQYDwfSCwjCWK39rT+Ku466h3j2QMKtUaoqEf0+lB37LL/45d7w9zaiPi0jMXp9Mf+TBAepX8FH22SUQpIYORiE59GVAMcprNEDTf/reQMu36xgT3KJ4b3SEVD0LF712PssRA6knxpu42oNW61D1b15LgFJCZPUPh2iB2pVmPhI7Dh4kgSQi7HWCLaPrdgklEC3eiFzM1DcvhZcGKgp7a6wZ97hHhHZlXzwMzD/nKbXSn9TL5gCUqADgpQz0fJDk9j+d0k7FCpZz2EYQ/8J/Kun+/5pBkeRLRgX4+ePpmA1e9AuUv4aBspKaAwJ2jgefYh2LDzu9y60Gev8fXLAVPNL7qYdVzxo7yAxjGSnDLUcjvmD2dT5M0xpSv6DltQhdrqFIZjBlMnpntrB6Tq1NtXQXjZYZr8GFOiASEcNwN9bCj40Bk/4u//9Z9PihTgu7Had3Zzetzk5DJRTXtQIcbEOTM2a6MPthnO+GE4smyVx0U3g230f/hHTfcCGBZZN7C2qcdKOsmqTTJvp3bKsyuQTKdJKSsePmst/971cPGhm86hLedqJmC8Ct8S+lW6x2lpxsbwEL4DffY91tve1X802C5LJPPPxxpbv4t+eNoSBhWfuirEHraHP1dmALsFvniujy9QVo7pt6bBEFGnzc9Glwvc2BFa5uoWQKtIVtn/8OSPXsgKQ0cynAXybWK4hUkAdTVjUlCtEX+IttQMGI4ePv+R8em1gEYZgurFx2qcatSg4FVvpP6G4R07tUkbmLjWjoLvTHlbSUGqmDMaZZz05sWnRUWS0Qjx7XDN3qqbSpyi02DF3eSerkUvake3SP/9dVDcAOPy8aH4XuoCbmwB7/DtxBa9mkwbYD3nWZg25J9WvbhYQjDqNmXS2FWXzyEY6EpNZ1q5i2urRpPO4V4/0eYm+0/LJAqxhw+l3xQGw2uvnOZ7qaNRBVCBylL5C4+YwDHjyppnl2BBJPDD8AseL6brFhctBXOlpnrKcvo0V4lBJ/JF6AWQGKCQpVmKDbixmFd22/sQiFNO74aqXwV3VsaRJZisLjt1pAK24xLA8Wht3k/roXtz66QyjCI1zWJ4r4nIy18bDdSea9+40nggAMfJuA67eKmthCnZWyAF8mrFcdb0CRerZ8fjhbc15g1uS90PSpDZZpagh8zu4z22jGjCrTYsqvE4MlpnUukSHzr7E1iBlsLkbwoH85wiWKlNped8zz2d3aKGK3HcocVBbRcS2FN6nCwuCw3Vy9RhRjeEQidxHAIdAGSALs6VcOwfV9VnW3nXDp1wdYP2Ey9AnQ2EqatChsS65CgXsjQMRG6IJGzcNS0ElgQhEkEte0Tsj0a/S4hyMP9O51owQhAIcgaLpGb8Z1p/s67h48vioIwp701toJuTljD3MeXVlPShjdBQzGjmrVnNWk506RpAqDXMaD+ReW0E9jNK3bID6CdRpjWy1NVThOQ8Ohe1gSXhGlYRpE3RhFDRvD8KFSUw1gPMi1n7Ik5N3NV56psjz3DMBSuQb8kPOWaoodE/0JF7xMacqLK1Zhuf2lXRDHOa2Cubt5SrFqKnKUXPBPGq+nByvXgRmj16vccC9Q+K9RxIAw7W8VFCkHZSIBt+RuB+FQr7LaFihABQ5AUjO9+DV7QPqBjDNX+WeKlcVzni8TbLzUAOpy/3X5RrhKz21gx9uDCa2qjJNtGAdtkHNoMYu/WkihCvoSaYvHC7RV6clxThjFF02148TTT3tI92VHe56CjXnnFs7v9RR8gffGGQX7OtRciohkr89VRUPliVMc0UKsJRAZipQyw06sTXvYYfuBEMkrowvouh3qjcyyQyYfp3sI8ORR+F0uZ86l+4z7U/O3MMGOjO32MqIyZOg7GWAFw8yttqB1WWh/E39XRt6NvlR5ghOP/R+zymSytbEWLREsd0t+bFfHX0my7ESZRzdDJZrtph5XSPGf5nZFyJA2w1M8r/Hesrqo/D8QzkZPdZx5QB4bj/vBhSfrUOY3nc9cRkVW/2TGcFFmK/5onC1/wyIf1+DwDQX/qp4Aamec9m3PzmfQpepOl4F2fadW/sSVjWEhk530xL6BRI+m3y75FrIi967PssK5inYJvSrU6TENwHBR0R/OS/WcUZ1fHLhxiq8m7ds7FmVpiq7AFV3r2clzYlZxtQiot/RY/R4saA8jN2rDKTeaO85fGFsYlfNhx3oOQSu2h/XwjJd2YcPqEG7UcEmwLqfGyzcU3B3aTeY/SPP4IM/yHrCAHeBs0C9ghyQFQLNpD+p+LHXfalWtuoCfLBdNmrvGhVvATe17KnO0Slw66Ekv2qz9wtRy4spQ15QK142ZRz/bQ2iRL2+MPuHR2W8/i+h41yRVKT6dldi6XjaYTxwLdn5ft5N3ZuApfEFYc6IpWN2cSA+kLYg9jZPUfEqt+tX9qn44a69wmgdtdqPnlQE5VyKGK8NVsK2PXbfXBHYR+OoM6d6+thSWPpJIfFNfLveLiXFYhxGTXy/3WTNTukw8PWgoYVQp1sIpx6tp0OZWOQA89o28n64vKbxJG+5yjlEPfd7C5PNH1NH7j+/UqyIbN7s45I/i22PJqPnTcRFdRWCc4aBRmfADepGtIBscTXwdg32b3VaFB/Kb7kAKZ7V1Mqi49LXmZ10UUuMR4RVlxfG7lJ949pBENVECRKQfMdyc1Svi0N97TM1N5pAqmBeaIEtAFJFcZxHmGuQ7FDm3cCrsa3oy3+mxhD5lxPQcbHDeICQBaAsv4hzFctHNhP6nt9bQyry2xk2GgizXLT0am5piwbMGL8VeNeHkm/xDw3lFZO7ZjR7mHvx3wER6C/ll+xd0WOMH7z5KAtTPV9gB7O/doBZkA/lO+Gflwev5gYoEnQObS8zdWd3L5nEHDlqmfNH7fZOnr8/d5OPZxAYfc2EJ9WN86atWOYh1rYPEYw036dR8tb+bYEQHiaXk+tpTNDgx5ggu8B5ZLRPgDjjODA3QQhUhNqD80X+ZjjjzVvBq2630IgdavV1B/QbPQ2Iftx7U8WSKr+YBqxju4y7w0MttKKHjalPITZBQCVRst+r2i+QhNKnAh7y8WSepZjjATKYMBJqYPeyWPcU4iDkpE6BvuYpAoqAPyED3cmywnJe9d5SOi90TkpPfPnELc1Hzg//mzWF295HgbiWQ1+CYZ6SV26Sa80e8swrQmuz5YUXWL6Z3+jlSxb1AbLzinTDfx/XrsmtaZdKwevcg9xCndHJeh46DgZzxsJwfz9EsAktY4UYsSavszDViYBuQ/VCweKNmm6BDZvUVyk14SnjTNPvKu/+8Kvu0XfT+bnoUyhDJD936ZsXiLW4Hu4cY6bBLTQBsR24qHBMmnTbiskjv7MW5eHvm+9Zi0VdYeqpHFh5UW2EAcKG0HP7G95LRghS6x2k5ZDX4LLsIJpEsdQ5ieJ7JmmxSB6M909Mc9P3MX4D9u86FG3SEH1YMmGuf8VEm6U5wJfI4zb+VNpByMAKscp38foYtgzpZ6FR4B1xRMIjepVmvePppg8jm3ev/VgsvT3OZakI6dMNRep1Ty+NYe6i/amv4tDh6DPxHuaDcDuAm9qu6/S2kJWF8VP2RMkU7VQSiN9238Is0uc9pZZUTcfQSFB+QpppSphcV824FIBA0ibttDORgp7BX6JnrPDi8Vzy8i3O+3a6nCkyXu08/jbzSFGZU0z5LLpbWAc8d5dFKFbYXasaSXRC1ZsY85L2k29LsyJPWhz+OBMrPKIQGe3cXO2s9nAM2S1lRHBFvvnUtjUiK4ZxkQBuIKsabqWBaA1M7Wrdl24tHNqDKv+oQUgGzwgip60+/JrCaNa3FqiQRE94LjN6dD0wjWuxkX6oYrzyXWPr0OGknIVgeZSdiODX+XWcq4UxK9QqR3SA3cz7/pVA85IqcUy0TY9O8qS3sW9NS6XZg6GxJcyduHD0e7BoU1wKCdOqFJ8cVpsVFHPqscseS4NJdIkWPKslfVwcfcM7cpvJryNqWfi5yrO24RQ9BAMptplljlFd1+vik05fqnw1c79vlztKlZcOk8xKI5im4FlE2sdV7tZpyImI1yREAivwHgcbnP6nW5I/Ui5SgG7aQOL9U+YQgsp6frlDiNPlQT8gs1+yKsEDK3TfxzIVQ/yyALDLPM3mBUSUYz2kH4JXdi9nowjcnIX7/aIFCZg+Xh5XvUkfaozI06iASqxy+wOr8kFQXxwPITDBDnQRDvVmZMZ/aVM/vkgZ7uA5nNBt8BlceRI+fFADHo0B7FVbHgKbpZi5tlAHUrW0GePGMJpD8T5fuJuSLJlz71TD3dnS7DM0oVjf6oWbhxxTyf+Fss/mJ4ywsEWTdketKv0Pm8gYnXb4eWAt32FvUlD3RxtsNPLLm4qxJB29zxBAz4YiUksIy0f6EyM0gXXb8AAZB6skZuTsuMvk6oqUEwBrnljrpBQtCxPkPCGNAd1YcxOdGyZ1leMHO6xAXHgqZAVKtrDeLGt3enZlJHQbSzcR+Bp445uo5hf29Fkdeq5qSXOJ9NEH/ybeKPI99ul8AclySyM6BudQsBwg6pg1U/Zw7kEeU7WVYo0E3hQETaeSnWh57LQLGu3WrRphYTCWQ/IT8HrjUKHYcH6iQzPfv3kVLZ3g86xmyTLOrnHo9Rh61SMKU7byXHMrAZ7x4mAEzBfzT2bDHW9H3KH1AJ/tZxTL8/MX/+Gov6VWcvlHhwzT1LoZmn/r5bvtd794ii8veY/Idbh/UXusFPOizhjRXMcTiSfMel1qK2CtVl/kcH8LQx2c6jYB1lXB/GHsM9kFV6RX1t3obQmDlFBtcmpOXvMcPzSWuXSQ4flNv+enDjPBoDfo4VtFIoIO1ie3zwXk6gVgzWLdLct7x+qn3W8DHryrYMWbvUAMQkaww2A4c6zbaqV3QlSkMxhqKfy9AkjR5q/JqOoONqwtPMwvKbPAJtkWTu+qqF51N+edAK2jz6jqSp79P/AT5w5KfiaG/31Sb4//Heo9RLi/54/pQUMauSgArmekp4Fg4+UUbt/SQnwi2a6JPB9iXkcJgSqalzv4aPwb9FOaqseGTFYz6ujJJeP+ldmIxzXeDjNhd0JMJTvuksx09u4r27LFnJKkxt/vyZnNNc+XZWD/2/qitd9q7gUDaz2+jnAp+6tP37akMuu2UpWmWbNgfxwVs+OtNgfuA5Zsf7D5JOZEs5wKTBmnODXJqeT1wo9MBQkN2tUMeVauWA4DkCze2cbOUp5Osb+peeUuPfjK2WRK12hV2N/jyq+v8Fh2mF7CPlGKMJ5sgJHOpbUztbm1+cvvKOvRunEOmMx6FKiMIBFE3Z4Dlli/kRMYxqoDSRazV8zLi3WQHnS6m+6uwIqT1eCoQsQQRgQCb+ixl51aMPNn6VlRSKy1UTf/e60OMCvhXsbQjyjPzlKNHEUEggeM+WYN9EanKpWEynKwR9G6PKmcYuhr3PnmUdDX9x7Fun4tXmHG1o+88oKSD4Kg1H5xrZvnS+5Jfw7hZ8lTvPAm51xWkDJJmZn3onaKKJgBHRCCxKsTiaRvJ+RHJr22xxij60AaLGKzJ6dZ822VF1qTcmQi8aPsHSkUD8oHOE6qp102LR5LpMlRaUj2tP8asUsJvRDNBKZCl7kAwcxyeNTgo/5LXOAyphUWCXc/9gIP0P+YWia/b/dTydNZr/zW2G15uZIRF596T9p7SWK7iisK5h7eAk5VJZwIuq3/zu7moRPyfrsGcLdc3ucsjXpPdXrMTVltaGdA6H0J4gCtzAV4s+lYnEwKi3al0EYRFNx1K9GAeUpYTvU/IHC2hSk8xwkicsqHbuj7iSJ6OnE7X3aijvjjL7pgBNObhQ+6FfiX8QyJVkaiRTOjrwer24sXecXPfw2pO1mu14nPRj4Dy0KbXEqfxxsFKLQmZF8GKbdo6q4nEh6omg5Ilr4juZs5b9iXTJcAN5bSLbO5M5B3SfyBLzIYokY46XW8IsqT8MjtAyC3wG+RMyhwx0fmYh2IHadyUCqj2Zc/JIfIg9NyE5UMXRd0W5PAycKe7yVKUzyc/hoas5ItqdBtfRd8/9YO67Zf8/Bi2rX/PW6csAM1Fxau4UBfzKDhnjBeO5SbZwMvSxLOwEs8PLI+M96AOlH32OVAdqAH/6qJq1HikT4NnKBrMcNkhUHwjx8+8+NunfxUWa5DFtoMit2oeCCgMXDYHOJaI/tcH3/nEx8mnEirkB3cFsr5U0+w2VSvf6aLJqO83yHGq22FQFzlwZGkTKqpPKH63EvSd/OoSYgj0/ngZqmwiVgswh9Gv5AD9mPCZXgcZoOH5SMsmVHskhLEgcTQODPUfmdmClpeSaJl5BZAOXD/5RbIQFRxhUp1Rvtf9MiiJXnSJ+kQwMhOLMHce3TQeQGvCCW4UPMaVzjS3H9rHVXKg0Ov4yK5mRUZ7qKcKEHbdx2LDK4syU5VBmQfapeN++44NALFvqM4t6sN78p0NaJL+VteQqltDJGpuiRVJ1ZhwO5mvJlzWtL+iDqO2VhvK20DeN2sr+W0Eic/4FRBEp9oXxQ4lPQkl+gGzASKo2044fwXQFQP5pfcE1rXNM5N6X7xZIAg7M3PuhHVaKeI4aiUhtKU2CAFv2SyRPrsDK8N8e+xgvgaa9SXFyJehh5Y3GxhxylgwHJKvS+3H42e4iXdxQ+suc1MOiiSaUEH7gzXX3uKB/gXGHIbmR3DSY3zgMlutEWMZQR2rHO+qEd1pfb+PDWFcA+R1101gqMp/0Jy2c+Ta1KfPEqrye732s3G8DxH4HAydY6EONJQr0fp5+HkiVqqRZIwXenB/seOsIMjVNLN36LKbQZ226C8f+kpWKDtPckV42RbYrr6OPUAX/fGDQY5ruarXUKJ6i6fgl7ZxWEd1eFpbSjqMtNrkb3SmGOxzBSdTgLbXHVTD+Pt95g9x24TjKGB2j220w7me6jL1ETL7flD2yTbPfi3ptW5XpSwS0wXykmzYVetU24RB3evvVnlwOZM6Ybf5Fk9EubgAlroj2z2Dx/iIhWfm9wwJ5NYW0/C2MkYx9P3m4eoFhiPHpC2ScUNdXqgHPWcp3I2+I4DNHK5PZnPCyFWF0Fe8AI/Fusbsn1gVurTwkkfSAY8HeH1UCyHk9imXKq598Kux4RAH1WLphOwvXvAyes5Hje9gL2NDMlz9AzImzGROkTRNGRTqLSMEbYu0TpQ8xzmo3ojmCrW0MZ50cTZ6l031nS4oKKFg10E1TS1BIaR1kUyG5p1bJ/cO3QPoAUp3dnqzTroaL8ZkinKFIeg6eH55GkY0kMXHPLfoM2l9xIQOcfpHx5QS0Mp0++qEDX7gVcQpTLfJhWaRecUsRuUCFIAX27JZZwbmnG4KTBVJm1hdjnDmkwpZJmsI63KGDYiTV3XOog5ZJ9z7/ygEZ2ZhBGRng+YOzmHnvUj9gttdMDQQC4LunnmspMCenYOEEzuZ1wlSEHpW2YLbU5Ui2KnajLt4MSjYxGcKE3yyluWQ8bFUEYJCo/Od1oBIIRrSBRYjKEO6M39SrTAopYuQTbyJAlxW1kAFhoqCXQPQljMzOMktcDPDTo5MKnddMxGjxDc3SsyMijrImtdnQwW0YnFCREuJaeIRg5ZGH1+8i7J4A6lBftFRddK+wEtID9CnKes4OVBZXMNgijsXa2bHZNPfzlEvgApCrbMc23uWpAkMg4pFHSADErO8PyVev17BITQTsSJiqD7c7rHI5JEtd2fQMcLL8aP+AxWWiy9l8QMtYU7UlomTeEiKlOYBl2u8Fub10YSCF1HwiIJLc/2q7Bauj7ApwMitNfdLCKvLExXvmmjJrwcyDX3ysIcRc+46H9il/bHNoaUAn7OXHASuu3PLES6+zEYidA1YJbqceNosttK2YZiEfM5rNZmuAll5qtb4CmwqPQQPYtg73u+GLenpcFGrF6oVqtOqwjaGDIqhP8dVJMNpvYlIb9C9hMK9m0Y72xfwTQGOtbJYusHX7SanMOOitQgukbIzF7MTz3PhtWei2PnB0CcYW9RlD8T2Fp/6W15Unnx4Sg3ksbB/u9m4v12C/2HGbEFYJKHrbKh8qrVy01Og571XHvaIrVn7t2Nngau/G/bl4u8OMX0wcV5CXAY4NbYtbJJ5ivZW9gqvFXPyFhMrgNeso5nyLIhjObjM4jgnwo3oZnp54/noYkid/eUK4hE3hmFo5Y+oywjK6N25lQH54JWE0x5Iaxo75p6C0qL6AUQIaemX63g0K1aA6JbES3SmDuz5AgAy7+gEWQlQ2W4ZLI4IyuOWXfK2PtRVhOR4ybwZ1lJIvD8PqSCTv3lVedu/77BW93K0bUQaoJxrqLpUjDWlcdVbd7aNB7hU2iPLGkqr3qTcCgHiQElKLkGCiwlIGAD99zMFepsUN+6hj7tVBtKiugLtGVw28vXZ7VJWwDGYa6LyuQlDFYSCuQY7GCQn3Mdipuq4C485eiKpvfvVHpyRsyKmpen2u8+SF/E7GnS4QhDdo+LNA9cSkWgLTxHSNzgreY75DnQTgsOQRoaeb+w3a2GZEYbLMSXmqtIpYI0QUbIPSW7mZN9xw5gKb75DJTEPbNVOo0vVTi+9zZTTbVEwE/GR+cGg78hf8rTn21WFuu7xnwm25G1TZM6Hp36+0LgGBuc0ZF8PCctQaaerjoSMH594C9e5qdU80R4y8ngikb+9RaSR71od+/OddFJNoMwxOSEOhup6g/ledTRXba1mdgnwoPeoaVwkpR4GiFxittrgEUEVzoxCxzjavXzX0IFTik7rMb7rBlAUuuAUeRoqXBTfpT/nsktf1tNeH07YVSwJenM20cgAU+jV906WV3IBF3sBzjQYyavJ0q/LbtnzVdSsOUo+93ZPV/LVSEIapqS+MefOhBYLE6knaWHe1iA8Q/4QzwQIwzOW6jvCkOfcAHdFLI6aRmOUdq/e66KWPw1V0Z0YbNlEY+YbxoGpco2bVFQlY3UAgNXHkSf0PYE2X5DlWFvJVFjKEW3fPWvcS3UEOnjhNMhPEhg6aUjHmVI9K+wc4NQyKfmUdr6laXH2LfdLEu8qhyh+tSy2KQYLZMb2OxPkiupJ7NKjLs7fRns865RSmxWPTQvKPZo0H4JTfQjvAZ+b12IGUvROhcayQmSsAbhNcCD61OQuBbRkbl0G0qwBcCzFh3TwNizAsXLHYbAWZqpz4yAXD9eO2+y7pldGl+s08iV4/qGscMikow0mVcg5g+oyXMbNws1KSg2/d/xFaC/zaj2UGxuUYqR0fNmISbAwSorUQqajQPNjzntd00eenSmib4ET5tPBPzIK/THyYAuGyGbGo4AtdKhOkAcVQmXyBYChx5FgEfZYkfckdSfQWQ46ivhxWoyRz+sxDKQ4U0V+2KTzUI0Q11z3j+D+eBCUwSCfsMf2Oy/xzjKrE6kkz/pqqt/WSW5SHrz2mEFuMHlJwzCuzvdftqeTogrGY983PkJuR2DPiQGDpZ3yuj/sdHkBvylULfUpXl0wSW/RRRElfUx8IR15NskF/eetmXT+DerVaZT+RnBn81L17wv9+wSOgY4tg2n1Bck/jHlHblcV5Z7P/q6MI8ZEKxnBdNTdL8HKN3hh3lPFCHWSqRmHBV92FfM+0eceOmeG+mUeKOZKdmgR25lR5Bvs7ZYt3ij3l6p61+A1NwahsStDfp6jGPS8LGpGyOjaF9rf4fXDfq1DK9xDl/BOGnr5BpzmdcpgVE3pUyjoykU0Mu5UeIfmV4mh1ofQi2IVidhn33Vg6qKwmqafopC7/aWi3QOfvsfUlK8dzGcWYCGXidHcSlaGtuVHXeoeQMuWFRJNyIJ0lQzkJhHKwKaZREV2ex4xWFQTgOvov0vCo5q5B6I0TA3dcEMSJjnrb8e5q+/y/78uc4wRWhy3781YoPT6nN15JntKaUjCUrXs7TvViT9SOOutCweC1ut2KcmREiGjYd85NjzeUDWTMLn1c2OTgXOrV/17nMeRnk8KgD/QruezGMmg4oP96rb5NJe7GDvPChEGNJWfMS43E4YFP5i5Rp3vGfuPmkZqk6omWQphKM37TzBbMezsdO624Go2aeovIM4/fLCGfJENsMH7nE2tN7R/SyKNyEEXwVj0y4BIu+2clFvnOjM6rEfkfzxYzqfUpzsZMktjpgXTHrPXaNKJZaumDFJboXGn9bnEBz1o0G05v7TvVnSg63Y7P8lGHQXbif1ltqDn8fsF0FLPKat4xAxQgvj0OdYhiETkvGGFN/31q0fQ5UhqpRiPolcsFtEF9mUX1KDBtSsUMVoRlgwLoUQmewMI/Ggp+G3lMKjbiLU1AADUIPH8qlD55XiZ4vcTS6fJIzcDJCpXpcQASv1YF2biBVk3dkRKvDnfGgP15nJa9dI31drVKrqOuMYEPbZIEV3+xAyyoe96K4Yf6WRzT4Z3bkRR1//lwlkaZIUKy9UnW2V3zhrAZqNx63mo3UwRts5XN8AYr6EPIKPpojigEIr6I7aZn/t6Zhap/aoq/YrmgGy/25rVbSBRq8ibSIk36KG/VBn7hr/GLXRiPChVTcmR4+qos7MkiNdMXm0c/uKxI4CzoTCIadZIYdAYF5s+7oU6VIVNJOlsf4ieckZk5Koz6N5FVZJtkUxB3ppSwgnbHx1gQAco6y30h82rewH0+EZsRNOvvT5ZV3WQMFEuY9Bh6wzajQ3A4yAqsLcJ9ILejwv8PR9lBv8ekJ4byNwHgGTsnuNjwqwyy/950KnxdOrMjL6B6G0dIO4p/dGAr0u+aViuQamWROxnqODomKjxdH/A2t4JZHynHfpXRC/OtC4pKr7+EnSQ/m3xRHuYiw4GUH2eMZ81ia6l+Lz5vU51quJC5s4yvI3IZ5vTI+nVgXqSlDRvc4rnIRtccQWhy0am7fUAM48c+T8JZxmTZP2mCz0tcRHZ2LfBZrsub85D28Xt3mPOsI+m7eRk443wSJZtG4kFG9CBl/PkoPcYUN15hosdQgwcNC+osn83aG3zJKXsladwJui8nMcPpd/+Pv77UQzg/fLTwGT28l1Ro42AZlqWMbI/HPF0c1v4knxXoF2OeA6fLn4w6GdETs2H4JFcYQ7SxSMMa65VwUwZI1WYWRaKBMlhchCZ7S6E5xNfdxQELei/aeOMBSaKwAhrowECfEYaYTFiX6eWtEYnpko3EnVWp+X8BSj80eQLhltBqjvZNtwNKaj7HEHtIwYDXSVV6MrhI81Cvsa0rygvHm7j9YnoFSv2D7/aofV/OW1eTxbxotNKWxuKfGDcbRTTmMGtnhawsvqdto1vNwUWcxM7x+LFr5gfDbax7c8kPMU+YzjWJbAFMP0uQfhHOhUyTyncVJt0Hmh46COGe/KNiH55XvcLNDATxk1dc0lYvFc39yU4ExCYyFSYgTpY33NSyj+/PtA8u9Xl7XA2wy8ob+5F2XCyECSUan8DS9t8+eN4+Crj1P2sqGlGjq3hj3NtJqa0MhfLSVV2Q4gjTTHWgop+vJFoOPov5/35fSr38+tf8G3+ZGzmdYoj82y92BeMctS0Vpgg8jPWVqtelNg2ePBxc5gSZ6D9MZtfI2QHMqEgUUVDf5fAkI4jWNoWSQX2SkKYh4CWc3y/+fV/PB5q8jDY/iOgnJURGZCsQZMUOJkCKjbdVDM2PaUMzOCLfWdL+mRZpjVdQPcSdhAY22FfOngmHQrERf5yQrlTx4fmj6LBBQn8/YgWbKMZuqvRklUUpINYnrPf7YgYab/yCfCzQzKsFiEMfoiLPh+bJcW8RmKvrBBXAyAaHGk6Ej0/Y76YTL5hCdwnJ3sGrXU5O6HWfx2XHP6OAEaswJXsrDXp5JQ2aYtELAuHAfhsdyu5dw0yx8PZUZYhp6hIe5qTIDC9Rx0iQJe4gd9OR1nfvNhokNbSIaD87Q9eC9W1n06BIlpu9C3U4ANJkuIAtz0g+Di4Jxs9InhB6dmrG5fj2ISvAF6/8ntf16Bfj79RrvvqRDDoJyzSfy7oaYtT9hIu5UDj1LLrCC+oR4bxEmT0wjafLBbcvVVz2bFAQTgbIYmrWWhr3VCj/r9Wfp1S3Z9Czh5ff6Djx/BVwGIW1HrKi7QvCvwOtHNQ1bASNMExnZ0GoMg2Dx1Y+YMZp7CKPYJ7FuZl0+Y5jDfrNl6uEepTWsyigENZeKmqIuY+v8fNr8vI9A6/0ofoNSZ105ozsRLxWBdIueqGORNG8h/Ev1/Yaa2AEVLHu+orTtpdlztZGClZM+Ljtkqz/CpzecWSzzci4jP3nkkOsmp24FMzYkxGDPCC4uJRFjsnAHMTjuVXmuZDK5iGvu3VWJ/cr0QyFPLDvThcHphAohSqZ+vhO6WFQwr6gVML9AlSjfT8ecnUEKfIppYboYOu8+pPnNhthywoMBM4+VDqYDZ28N2erggtqRQHu3JCsy60q2+AgsojNbT1pojuofUItThnnXcwb9uKEqpnUI9l6SELUqrT4DSzyXJGlsnbR36lkSlIKeSwmYWxT+t34w8xUUCvlvhGXVUKwCU0kPZH4wYBjp01QMzLuKpJcp5dG0eyPo+ew1HL5yTXZemce2jW1rb0E5i0GLuCVv1DA0pELnGHIdv6iMhgpKNUYV5hEpefoo2Tp2enhhaa+sQbXwWhKwuXlzxY6yV6a28d9Eya/wy58eja2Q0Df/qCCnSR4wsH7kmNPZGx1U0SiUGpEoBC521hiFGg6m27F3vzJ+JHVzcZ54YV8eOWe5E2ZRldvV/uut6dPaxQimQxj55i8zy2/tEiLnpyZrtLcGnqnKHUF3tkesfbnpH7Klr4dc5kQIqt3Nrl/T0f5lLGLvteImzOR8lwvtDPa9YirjnWQI8565TGHquIMrEsecRekkL8DGCDFDOr0MMcl4Vn0c96BQUT/49Dw1HupGZ7vWMb+OyNyQRBYYhhBqQb9soDjd6aoYlfyso416TTectJVgQre+YBa5wvJqHvS2Dwp1Zd2VtBgcEf6rMrwvmWyv45pvS+hnk9vbr3EljssgCBLkp9qnVldfBNROp/eBv75/Yx5ElRHExXZey1pUw7ahHymmwjvA21otJbVMzZY+8iR3rTGKANt8s2l4SULV2132zqNAXNbtQQxxZ9P9Xphcfb08J2oCc5v1Snikv+BqBG/XgDVPYJlp903s6MZRl0vK2VeJLgZZUvIU/72mOUQ3qmAnNB4RSf38czYRi8kQujiNJztjoG4lSIrLFXgie6sXY4tdDmnetjKeylJIDA4vfqGQTchV+kaFKls+Uk0gCRLOG/mlCn/BqHgS4vKvFbGj/KAPHuhvjGntMiWeqOtg7dWHG6h7gfrp+hRlN6H41wR7ZAAl/sP7odxsJdSqZiTCpExg1VM3tWCbFKimgTtPuq3zi1sxt3kTU81IasCgDvX2lxNttA7Ijic9SRnvL8UgfWDpBfZHPCk3PFUlJ/wCOVi68Zw2o1zq7yduQppgZVdomw2hdyAVTcYZZzhVaY0g9HaqlMHkKr4E6BhNmy4XgBTCf2IeYUvfRtLRKcyPWIDaPhKtG/sz/tms4/bhQDyAtBPWj5RzuPW9Ko8EwmkYxOygFCzDS9ET+AbciwLA4FS+/krO6+lpBFR5h4L40JiNQ1wTNjmyaTZGCL9Lfn2DaAV9eg0gkqB4DXMvCbKDgu64ggcbp2TJW1tQU/yAYoB6uecBf6RcRQ4hV4ceGzr6HyJBfSWhSa3msE1KyUMbTLhCxCtCWQGMLed4sBLPMTSmR2fyjwk9MRX1yKMIL8zhyo+gHFcwQ5wgrpAecXineGTx3aqy7HK94bMgewWXobQMd56PQPrtmg1tcx+eBYBqBtz4qu3JiDJU8rWvVhjBw/1MOrfj8QHMCIa8l8iKPBiRJmMKmmWgOwOMKqwLREOufKopRDcg/OD55y07tcHGhaYEp++RwZdr9FZnF5EDspvVhBxwuaWP1PvYj6ikN4o8625a+Nd4nxHohkrItckdIcf6pN3Ee6sQrYDTISvaYmYiIxU/xFsKUYwk5LtFTzBGhwvl9PLx7ndiobRCBl+bOG+3a8dFJO1ZLPsaX/Z130ugMIabU2pD6a9k1MT3cttIXgKd6zPq3psqOzZxD0Oc5bQcpuTJAka+CKWNyGdg5VCO4wzXEapJidHbeItpV2DtH0zHNoPQH0eJHNHgZjFrA2SY710LyNzaFYRcBbs1w/grgoqRgDshnaxVouQdNyiX2ZeewpHWJfAz0Yxr+uT0N3ALh48CdhrF8TtGDCbSojSW7ebKMhNCDRXG+co4AFcmAxyqFtEbgcpndr4evy8+TAUrrpQd2vwlCrHy9Oxcp1O6YjbCyj4dV8sDzKL475pUSMNzFK98xl3ycdAUq7BTkAPoJKmKFuJL+RuADv1D5BXAA2BKZtGfbCV1/wB8cB0mLr7pVZqr2N3WEKGlWMa8MsaHW3sZjC+SH+XJMRMO4+VhQ5WxUrddZ61/sNIlpmMcdfNzH13zzmEju/i44tYNT7WhnThge3Cs88IFPhMnDzb0slrU0DiP5jDj3i+J9eGbC7PcteoEHzT/rX45rwA+gdgQAAAALlXcQcAXWxfGYHQEBK40kpIQzykAcHxQAf6BBO04RCS360C7HxLGQX9FCx5TysCOgS6cuzDr/yf+gAAAAAAAAGUcAAAAAAAAAAAAAAAAAAAAAAAAAAAAAAAAAAAAA==;clipPath=inset(32.68% 12.33% 19.29% 16%);direction=east;spacingRight=0;fillOpacity=100;align=left;" parent="1" vertex="1">
          <mxGeometry x="180" y="11" width="211.44" height="120" as="geometry" />
        </mxCell>
        <mxCell id="wLL7lNvXAYViG3V05X7u-25" value="" style="line;strokeWidth=2;html=1;direction=south;fillColor=#f8cecc;strokeColor=#b85450;" parent="1" vertex="1">
          <mxGeometry x="150" y="15" width="10" height="49" as="geometry" />
        </mxCell>
        <mxCell id="wLL7lNvXAYViG3V05X7u-27" value="" style="line;strokeWidth=2;html=1;direction=south;fillColor=none;strokeColor=#000000;" parent="1" vertex="1">
          <mxGeometry x="140" y="24" width="10" height="62" as="geometry" />
        </mxCell>
        <mxCell id="wLL7lNvXAYViG3V05X7u-31" value="" style="line;strokeWidth=2;direction=south;html=1;fillColor=#f8cecc;strokeColor=#b85450;" parent="1" vertex="1">
          <mxGeometry x="404" y="66" width="10" height="74" as="geometry" />
        </mxCell>
        <mxCell id="wLL7lNvXAYViG3V05X7u-32" value="" style="line;strokeWidth=2;html=1;fillColor=#f8cecc;strokeColor=#b85450;" parent="1" vertex="1">
          <mxGeometry x="211" y="134" width="198" height="10" as="geometry" />
        </mxCell>
        <mxCell id="ZFm3JVolr57umnqWpC2B-2" value="" style="line;strokeWidth=2;direction=south;html=1;fillColor=none;strokeColor=#000000;" parent="1" vertex="1">
          <mxGeometry x="335" y="159" width="10" height="26" as="geometry" />
        </mxCell>
        <mxCell id="ZFm3JVolr57umnqWpC2B-3" value="" style="line;strokeWidth=2;direction=south;html=1;fillColor=none;strokeColor=#000000;" parent="1" vertex="1">
          <mxGeometry x="418.5" y="87" width="10" height="74" as="geometry" />
        </mxCell>
        <mxCell id="ZFm3JVolr57umnqWpC2B-4" value="" style="line;strokeWidth=2;html=1;fillColor=none;strokeColor=#000000;" parent="1" vertex="1">
          <mxGeometry x="340" y="155" width="84.5" height="10" as="geometry" />
        </mxCell>
        <mxCell id="ZFm3JVolr57umnqWpC2B-9" value="" style="line;strokeWidth=2;html=1;fillColor=#f8cecc;strokeColor=#b85450;" parent="1" vertex="1">
          <mxGeometry x="160" y="134" width="52" height="10" as="geometry" />
        </mxCell>
        <mxCell id="ZFm3JVolr57umnqWpC2B-11" value="" style="line;strokeWidth=2;html=1;direction=south;fillColor=#f8cecc;strokeColor=#b85450;" parent="1" vertex="1">
          <mxGeometry x="156" y="140" width="10" height="340" as="geometry" />
        </mxCell>
        <mxCell id="ZFm3JVolr57umnqWpC2B-30" value="" style="line;strokeWidth=2;html=1;fillColor=#f8cecc;strokeColor=#b85450;" parent="1" vertex="1">
          <mxGeometry x="160" y="474" width="119" height="10" as="geometry" />
        </mxCell>
        <mxCell id="ZFm3JVolr57umnqWpC2B-31" value="" style="line;strokeWidth=2;direction=south;html=1;fillColor=#f8cecc;strokeColor=#b85450;" parent="1" vertex="1">
          <mxGeometry x="273.65" y="439" width="10" height="41" as="geometry" />
        </mxCell>
        <mxCell id="ZFm3JVolr57umnqWpC2B-34" value="" style="line;strokeWidth=2;direction=south;html=1;fillColor=#f8cecc;strokeColor=#b85450;" parent="1" vertex="1">
          <mxGeometry x="100" y="15" width="10" height="494" as="geometry" />
        </mxCell>
        <mxCell id="wLL7lNvXAYViG3V05X7u-24" value="" style="group" parent="1" vertex="1" connectable="0">
          <mxGeometry x="170" y="180" width="480" height="489" as="geometry" />
        </mxCell>
        <mxCell id="ZFm3JVolr57umnqWpC2B-72" value="" style="line;strokeWidth=2;html=1;fillColor=#f8cecc;strokeColor=#b85450;" parent="wLL7lNvXAYViG3V05X7u-24" vertex="1">
          <mxGeometry x="30" y="371" width="211.5" height="10" as="geometry" />
        </mxCell>
        <mxCell id="ZFm3JVolr57umnqWpC2B-70" value="" style="line;strokeWidth=2;html=1;" parent="wLL7lNvXAYViG3V05X7u-24" vertex="1">
          <mxGeometry x="73.5" y="359" width="167" height="10" as="geometry" />
        </mxCell>
        <mxCell id="wLL7lNvXAYViG3V05X7u-34" value="" style="line;strokeWidth=2;direction=south;html=1;fillColor=#f8cecc;strokeColor=#b85450;" parent="wLL7lNvXAYViG3V05X7u-24" vertex="1">
          <mxGeometry x="36.5" y="-42" width="10" height="52" as="geometry" />
        </mxCell>
        <mxCell id="wLL7lNvXAYViG3V05X7u-1" value="ESP32C3 Devkit 1&#xa;" style="shape=image;verticalLabelPosition=bottom;labelBackgroundColor=default;verticalAlign=top;aspect=fixed;imageAspect=0;image=data:image/png,iVBORw0KGgoAAAANSUhEUgAAAXEAAAJPCAYAAACKH+TkAAAgAElEQVR4XuydB3hURdfHT3olCWkQIAFC6CEU6U0U26svYu/tE0QRuxQroqgg+Fqw94q9d4o06V16B+mEBBLSK9/933iTm83u3rm7d++2M8/DI7Jzz8z8Z/Z3Z8/MnAk4LSXixAqwAqwAK+CVCgQwxL2y37jSrAArwArICjDE3TQQ+vXrRwEBAW4qnYtlBYxXoLq6mpYvX268YbZoVwGGuJsGCCDOiRXwNQWWLVvma03y+PYwxN3URQxxNwnPxbpUAYa4S+W1apwhbr7mcokMcTcJz8W6VAGGuEvlZYibL6/tEhnintQbXBejFGCIG6WkuB2eiYtrZWhOZyAeEhJCgYGBhtbH0hjsY+G1qqrKpeVgh2t5eblLy/A245GRkS7vX0WTiooKKisrM0wihrhhUgobYogLS2VsRmcg3qxZM8IX3RcSAL5//37DmpKSkkIRERGG2RMxBBAeOHBAJKtQntTUVAoLCxPK62ym/Px8On78uLNmap9niBsmpbAhhriwVMZmZIjX6Gk0xN3xgqusrKR9+/YZNkAY4oZJ6ReGGOJu6maGOEPc1tBjiLvpS+mlxTLE3dRxDHGGOEPcTV8+HyuWIe6mDnUFxHFiztmExUxrJ0ldZZvdKQ17zNpMHPrD9+5MCg0NbdC37BN3RlHPeJYh7qZ+MBripaWldPDgQadb07hxY0pISKhnBztIdu/e7bTtpk2bUnR0dD07ZkAcuy+ys7Odrj8MxMfHU1RUVD1bZvjECwsL6ejRo061oXXr1hQUFFTPBkPcKUk94mGGuJu6gSFunjuluLiYDh8+bEhPJycnU0xMDEPchpq8O8WQYabLCENcl1zGZWaIM8RtjSZr7hSeiRv33fM1SwxxN/UoQ5whzhB305fPx4pliLupQxniDHGGuJu+fD5WLEPcTR3KEGeIM8Td9OXzsWIZ4m7qUIY4Q5wh7qYvn48VyxB3U4cyxBniDHE3ffl8rFiGuJs6lCHOEGeIu+nL52PFMsTd1KEMcYY4Q9xNXz4fK5Yh7qYOZYgzxBnibvry+VixDHE3dShDnCHOEHfTl8/HimWIu6lDGeIMcYa4m758PlYsQ9xNHcoQZ4gzxN305fOxYhnibupQhjhDnCHupi+fjxXLEHdThzLEGeIMcTd9+XysWIa4mzqUIc4QZ4i76cvnY8UyxN3UoQxxhjhD3E1fPh8rliHupg5liNcIj1uDSkpKDOuF8PBwCgwMrGfP1ZdCoA2nTp0yrA24/cjyBh6OJ26YvD5niCHupi5liJsnvKshbkZLGOJmqOydZTDE3dRvDHHzhGeI12jNd2yaN+bMLIkhbqbaqrIY4uYJzxBniJs32swviSFuvuZyiQxx84RniDPEzRtt5pfEEDdfc7+FeEREBIWGhpqueEVFBQHkRiQsOoaFhRlhSpeN8vJyKigo0PWMZWZ2pzgln8c+zBB3U9f440zcTVJzsf8qwBD3zaHAEHdTvzLE3SS8HxfLEPfNzmeIu6lfGeJuEt6Pi2WI+2bnM8Td1K8McTcJ78fFMsR9s/MZ4m7qV4a4m4T342IZ4r7Z+QxxN/UrQ9xNwvtxsQxx3+x8hrib+pUh7ibh/bhYhrhvdj5D3E39yhB3k/B+XCxD3Dc7nyHupn5liLtJeD8uliHum53PEHdTvzLE3SS8HxfLEPfNzmeIu6lfGeJuEt6Pi2WI+2bnM8Td1K8McTcJ78fFtmrVioKDg+spkJeXRzk5OYapsmzZMsNssSExBRjiYjoZnoshbrikbFBDgaZNmxICeKnT0aNHCRdOGJUY4kYpKW5HN8TPOussatSokXytFv5wckyBEydOOKxfs2bNqEViIbWO3y5dRVZNh/Jb0Z5jTejgwYOOVUb1VOPGjalpUiNKi99NYcGldKygGeUUJtPu3budts0G3KsArnxLTk6mqKgoqq6uJszCMQ6NSohQCTZwckwB5VrBn376SZcBXRC/+OKLHQaPrlr5QeaTJ09SVVWVQy3NbBtJ53RcQAEB1bXPr9jbh5ZuCHDInvqh5MRGdEmvFRQVWndn5N+H+tK81U6bZgMeokBAQIBLvscINYwXBCfnFED/4K7Yr776SsiQMMQvvPDCBpe3CpXAmawq4AzEL+h9kjqmbK9n93B+M/pyQZrTavdoX0pndlhfz05BWRy9+0cHp22zAd9WgCFubP/+/PPPQgaFIf7f//5Xmvk5P9MTqpUfZHIG4v06F1LfjE31VNp+pDX9trKJ08plti6lc7PqQ/xkcQJ9OKet07bZgG8rwBA3rn/BWri8fvnlF02jwhBnV4qmlroyOAPx4OAAunzgfmoWe0guM684nr5enEGFJYG66mAtc5Bk4qrBe6lp7DH546rqYPpjfRbtOGD+jTxON4YNmKoAQ9xYuQFyEf+4MMSHDRtmbA393JozEFekS4ipkraMnabsk8GSj9M4QQMDAyg9pYQaRVbR3iMRlFfo/MvBuNqxJU9VgCFufM+IuFQY4sbrLmTRHsSxlzcyMlLIDmdiBcxU4NSpugVvy3IZ4sb3BEPceE0Ns2gP4unp6XT33XcbVhYbYgWMUKCkpIQeeeQRm6YY4kaoXN8GQ9x4TQ2zyBA3TEo2ZJICDHGThFYVwxA3X3PhEhniwlJxRg9RgCFufkcwxM3XXLhEhriwVJzRQxRgiJvfEQxx8zUXLtGTIL59+3YqLS0lHJvGSbHExEQ+Pi3ck/6TkSFufl8zxM3XXLhEd0FciZkRGxtbewL38OHD9M8//5B65wF2x7Rp04ZSUlL4kJdwr/p2Roa4+f1rOsSjwiuoR/vjlJmeS0mNSwn/X1QaTLn54bR5TwKt2Z5EBcV8aARDwSyIFxUVESLVAciA9N9//03FxcXyaIyJiSFEtmvRogWFhIRQdnY2YVaufI48gH337t0pLCzM/BHMJXqUAgxx8e4IDDwtc7BrRi6lNimgmKhyqqgMoryCUNp5MI7WbEumQ8e148yYBvGoiEq65pwddH6f/RQRVmmzpWUVQTRnZSp9Nrud38PcDIgjwNby5cspNTWV4uPj5b9bC7qF6GmYcbdt21Z2qQDkmJkrCS6WM844o0EYU/EhzTl9QQGGuHYvIjLJeb330+VDdlFKYs1kyVrC4by125Pp01ntadfBWJv5TIF4Ros8eujGtdQk3naFLWuImfn0mT1o8954bVV8NIcZEN+0aZMcra5Lly5y4P81a9bYVROHjDIyMigtLU2elW/YsEGO34CEPcCIgY4Zu0hCuQiNC1dNeXm51Udgq2/fvrWf4RfDgQMHZP+8tYRfA71795Y/Qp5Vq1bZrQrCouLFpETWg+bQxFZC+/HLBJcnqOME4RcMQvHai7udlZUl/2pBwi+ZnTt31nNPWZapzg+tDh06JP+xpRXa0q1bN9mM8osKf+/UqRMlJCTI/w7Iotz8/HybbUT/4oXtSGKI21ctOqKCHrh2HfXqmC0sb2VVAH3yR0f6bkG61WdcDvGWTQto6p1LCZXXmzArf/ztvrR1X2O9j/pEfldDHCBBgP5BgwbJs+uKigo5djTghy/j8ePH67lN1KLiS56ZmSnHm167dm3t7B2xqOFaEUkA+ObNm+1mBZSHDBki5xF5yeBFMnjw4FpQ/vXXX5pVQdsHDhwov3xEyoBBgA7uJyRAFeVUVtr+hYl8vXr1kn/t4JfOkiVLZI3tJbyMELsdCS+uLVu22M2PF4TywsPYWblypZwf/YF+ES0X0McvM0cSQ9y2aqEhVTT5thXUqbVj8dk//r0DfT0vo0EBLoU4Kv3GuIWU3Fh8Bm5Zw5MFYXTHtLOoWPKb+1tyNcQ3btwoz54BJCTAG2AH1JTbXTCzBEDwx/KCDwAJgMCsDjN45XM1fOz1GUAG+3DVYHaLCwksE2a+7dq1k/959erVlJubK/8d+a3N+NX50RYF4nFxcQ1206BsaIzUsWNH+deFGuLYgQN9lIRfHMeOHZNhDY1w+QnSvn37ZPcSEjSxFS+7ZcuW8mf45QHtkQBerDtYS5jtK6EVRLRCXXFHJpI1iB85ckT+5aRVLl7QysvDXv9Z+4whbluxu67YILuTHU1wr0x8py+t35lYz4RLIX71OTvphvPrx7R2pAHfLWhDH/za0ZFHvfoZV0IcwJ03bx4NGDBAvlMRM2IASgEx/g1AwoImYIYvJ2aCCkQVYfEZfOH79++nrVu3yv+s/JuW+HPnzpVnh4AGXAdaadGiRXI94Bro2bOnVnb5haRAXIG0+iFAec6cOfI/AZjt27evB/EePXpQUlJSvXJ27NhBe/fulf9t6NChsnbQBS85vIzOPfdczXrB7bJr1y4539lnny3kflK0at68ufwLSCtZg7i6XPy6ccVCNEPces+kN8unl+5bLLngnItC98/RRnTPi4MlF2ZdyG+XQRzO+/cfmUuJcdZ9l1qDUP15UUkw3fDkeVRZ5V+R8lwJccAYs8f+/fvTihUrZLeIrQRfK35iY9YIEFhew4bZH/zK69atk10w8BUDTpYX7lraB0ABUsyAAVmtpEAcYAVgtZIWxPHCmj17tmwGs+QOHTpoQlwNQkuI45fEOeeco1UtGeCKhshv7ReIpRHUE/WFmwN9oZWsQdyRcrXKsfycIW5dsTGXb6AL+jo+C1dbffStvrRhV91s3GUQb5uaRy/cs1jvGLCZH75xy58Rhhn3UEOuhPiePXtkHzjAjC2FWglgBqgBbPWsW3kOM2O4CjDzBZgVP6w9uwxxkqHPENcafd79OWbfHz42l+JjygxpyM+LW9PbP3autSUEcSm30G8AzBLgK0S69j+naPKY44ZUGkY+/K0jfTu/ZiHJX5IrIQ4XAKCLPeJwBSgJ7pOysjLZz21tFwQgDh81XCeAuZJgC64Z7HyAuwGzWsxuXQFx9QKePfveMBPHIqza726rPcpMHGsBXbt21fwK8ExcUyLTMsTHlNJHj881rLxVm8Pp2gnNZXv4nmIdRyvB+SIEcbWhJ8YQTbpLy7T45z/+lU7v/qT9M1LcoufndCXE169fLy8Owv2BhTYkzAixSwN7vvHTHf+On+CW2/kAaLhA4IZRb1XDvzdr1owWLFggA1xZkLSltDITB8SsLe7BHaP2/2IPu1Ie/PXqhU38UgDcMZFQZraugDhcUFjIRFJm0YpPHHXALhBrCXpY22mCl5+yiKw8B181XqbqW+EXLlwo9wPKwJqDcus5nsHfsXCLtivbHrUgjnpau0pRWQNx9NvB7pSGyrVpDn+49i4pUc13SXOntueL5q7J5xDEp48jGnurvoLs5Z69Mo1e+Vp78cu4Et1vyZUQxy4FwACzbWVnhdJiQBWLjQAPAIGdFNgTriR8+eFLVw4KqZ/DdkXss1aO5NtTUYG4rTzqHSDIgxk+FhbtJbwM+vTpI9dbDXEshlq+KPA5FnORlF8O6t0pgKjyyxJ58GLD2gHcRXiBwO+PpEDcXr2wDx8vOCSADrtNrB2qUmuMLYkK+NUvD1vloD+xVoD+0YK4LRvWFoD1fBMY4g3Vykw/QVNGL9Ujo928x6QNWk0H6jPnEMTHjSCaNlZfQfZyf/VnW2nDe3vjDHqBJVdCHFDAjA9gWbx4sewft0wAFeADOGDmrgY54IKthFjMVP87/g0vAcyGtQ79KBBHPmsuBczEATIlAaKoN9w/ygEja92InS54Cakhbq+71b9ARPeJq91Faojb2i6IbZzqnS74BYQdQXBd2Ur4taG0H8BHOdgmaLnVU/081ibwwtKCOF5Q1mbicJfhF5qjiSHeULkWyYXSVusFjkra4LkN0oa/rpfoMycMccyAlJnLub2z6fGRzm8vVKr65g9d6Ncl9n2s+prl+bldCXEcmQfkMPPCAR/A2NphFcxocQoQQLE8oIL+BlCUQyVQFD/HO3euW3Sxp7ICcdFtc2qYWx6UwQxZ2Xut+O21II62Abpw+ygzXjXE8WtC2WGDXyyKW8nSL62G+Pnn6/udC5vqFxL6AH2hRIxU9qIrbQfMLcGPXxPKLxTl5aIFcWVnjdHfAoZ4Q0URcuTzJ/+QXprGqL18Y2Ma/0rNNlO4F5W9//asO3THZlx0GX08ca7T+yKVit0xbYgUDCbaGBW8xIorIY6DLoAF3B9IgBROUKJMbD9Uz/YwU0U+DBg8oyTM4jFTnz9/fu0iKHy88KuLJEchbsv2rFmz5I+UPd9aPnFrdtQQV+8Thx7Y0aPs71bvvnEG4tbqgC8lZtxql409PQF1rEMgYa872s8QFxmB5uXBTj3s2DMiffBrp3pH8IV2p0gDWGhh0/K2+2ljllDHVjUn4pxJ+481ojHPn+mMCa981pUQhyDYd42DOpYnDAEFwFq9aKnMlpUFNjyvHInHDFhZHBXdI47nvQniqC++BtAMs2T1DhmGeN3Xi2fi1lFz5dm76Kb/bHOaQ6dPB9Dt0gn2Izl1l6S7FOJZGTn0zO3Lna741I970pKNjvvpnK6Amwy4GuKYVQLYivujoKBADrAEnyrcC9jzrWwzxGwcC3nwSau3FmKGroSnhUyAOLbNYYeLVvI2iKM9yiwZ7YRLArowxBniWmMdkVvfHD/f6b3ic1el0stf1d9i6lKIo2Fjr1tHZ3Y/pNVGm5+v2tqEnnq/bnHLYUNe+KCrIQ7/K0CNoEmALmbZgDoABZcIIgZi37eSsGgJF4U6yh8W3gB65cAQgkIpsVi0JNd77N6ePfURems+cdFdF7bcKUrZWEvYtq1mRqUEtMICJVxRSDh2r97+p6WBtc+xiAw/t+XuHFu2MPvFLwQkdqc4org5z5zZ7RA9KPHQUd844kjd99JgOnGqftx+l0M8JLiaJo1YQVlS4HO9afv+OHrsrX5UWt4wMJJeW96Y39UQhyaAEoAB/y9iqaiDWGERTR2aFgucABSiFioJO0GwswQuFex3Rh5rux6s6a8O6tSkSROrx/RRHhbrkLB4ZytSoLVgVkb6xJX6q33NOMGanp5eb+ujtUBbyrPYWw+NsDMFf6wlaI6XJ15KapcNDlfZ8moi7Kzi+oL+0JJ94p75jXfUrYLQI4+82Z/2HG4YLM3lEIeUwUGnCcGwrh66U3ihc/7aFvT6t138FuDQzQyIAwyY+QHE8HHDVYKDIAAnQKNeyMRJQbgP1BDHvzm6Jc3a8X3Lr556cU+JnWLv64n8+BWBWawrIA7I/vnnnzJQlUBf+PWCbZpaoWiVhVJ1DBN7bVG2SiKPcmLTXn70IdqOFx9D3DMhjloN6HKE7rpyg3B47p0HYun5z3rQ4Rzrt/yYAnFFzlYpp+iyIXuob+ejVm/3wYx7teQ++VaKWmjvJgvP7R5ja2YGxFFjgAmnL+ELx3Y7ZSatdhMgHy58wIxPHddaHXYWLgW4I5SLCbTUAAgBcvjhbcXWBoyVHTTYymhvXzVmuai/slCrvhQCbh7lsI29ekFzxV2EtQJsrbRMCImL+mL7ITRBgi6AM2bFtvawQxdojF8/6nUFS/toM7ZqYjFZSXhJ2JqJo7+w7xuuFGUtQr31TLkUQl0uDmuJxGzR6kPLz3lhU0wxXMU2bOA+OqfXAUqMbRhXHlEKdxyIo5//ak2LN6bUi1poWYKpEFcKD5LulmvTIp+aNC6h6Ejpjs3iYDp2MoJ2H4r1u0iFWkCxdaoPP+PvvvtusREjkAvlwK8NIOBLj1k5trnhZzwOAgEsCF+K2Tki8CHmCn62Y8aOmR985wA4tt7ZiqctUA3O4uUKMMT1d2DzpCJKlQ4ExUSVSb/mAumE5PveJd2xWVgidkOWWyCuv5n++YRZM3G1utgLjVki/LeYDWK2BmAD8pYXBeDfAHpAHTNMAF0r/Kx/9qT/tJohbn5fM8TN11y4RHdAHJXDbhPAHAueOLUIeONnOmbj8Pviiwq3AeoHeMNVYRnESbiRnNGnFGCIm9+dDHHzNRcu0V0QVyoIHyxgjf3j8C/DHw2Q4w9cJgC46E4U4UZzRq9WgCFufvcxxM3XXLhEd0NcuKKckRX4VwGGuPlDgSFuvubCJTLEhaXijB6iAEPc/I5giJuvuXCJDHFhqTijhyjAEDe/Ixji5msuXCJDXFgqzughCjDEze8Ihrj5mguXyBAXloozeogCDHHzO4Ihbr7mwiUyxIWl4oweogBD3PyOYIibr7lwiQxxYak4o4cowBA3vyMY4uZrLlyiHojjijWcrLSXEItDHSYVB3dwjB7PKUfrcagHh3twyEedkE+5ngx7w7FXHHmt3dWo7C9H/fGlxv/jGD/uvbS0izJwuEipB/4Ou7g2zdbN8aICYl87QgEgwiFOl8IuDiVZ3hYPe8rhJQTNQuwT5EVYAUcOMeGCDJQHbRDV0FrC7UkoCwG7lABi6A+cgLVM6n5DnBnUDydjoadlQswUtAWfKadnlfqo8+K+T5GY75b20ZeoA9plTRuGuOjoNC4fQ9w4LQ23pAfi6tt1bFVEfa8iTmMi0BPAASjjeL06Ch++pLhDU0kISQsgWiaAAPHD1cGa1HWBXdhXbFvGGwdwli1bVmsWLwflIgoEn0LkP72BmgAaxHLZt2+f/ALB8/iDFxX+H2W0bNlSDiOLhPgwSkAqvOSUvPgM+ZRQuKIdrFxXB21wQYblgShogdjt+K/6Oju8TBHoyjKp+02JwY486uBjyjNKhEQEDVNemOrr85R86uvlRNuFfBg3iHppKz47Q1yPmsbkZYgbo6NLrDgCcUAPs15rSbmJHeBcvny5nC8zM1OO1AfQAHAoEzM3ABsBrywhjlCnCpRhB3FTMENX4lgjP14OsA2wIzwq8uPUJ0LYIu+AAQNqZ3G44BjAxUUO+AUAgALiiKCIG4P0XDKh1FV5ieBEKWJ+Iy43EmbHaBfqDFjjMgwF4igXsWIU8GH2jvoCSsin2BDpaEATWuKlAX3VLzg8j5cLYqOjDgC95Z2kSohea2F+AXHMgFE/9CdArk7WII7Pof/SpUvlmDgAsJ6EtqA/8MsB4wOJIa5HQdfmZYi7Vl+nrDsC8TPPPFPzZzJupkFYUnuzMcwK1dEIlZm45c01ykwaAFaAgi+9teP4CmDUwLeVV7n81/IXgZagAD9ioOPF1LNnT6v1QJmYUSpuDFt12Lt3rwxbayC2Vw9AHIDFTBsvJOXFh2fgCkFcdLgz4EKCy0MvxPFyAsgR30Z9mTPsuwri+LWChJcw6s0Q1xqJ5n1uOsRxcfKArCOUmZ4rx9FFXN2C4lDKzQ+nTXsSaNmmprRxd4J5CnhwSa6CuHInJCAHIIgkWxAHAHFJAny7eIHYS5ghw+cLaFnzjaufxawZs071y0GknqtWrSKsDyBeNnzSziRFJ722FIinpqbKLxT1jBr+ZPxSgZsFMdwdhXiXLl3klwFm8ohprrw0XQFxtYbw5SOeOkPcmZFV8yz4N7TXIerSJuffULTlcihuXMO2Q7rVbN2OJFq0vhlVSOFp7SXTII4LIe68bCMB4lpppxQM/Y3vMwn/9efkCMRF3CkKSDBbxCxTBHa2IA6XAa51gy3lggR1n+FzzKoBb8xs4T9XfNH2+hazPbgz9PikMcvFCwWuHEDSkYTZM2abuCINbhfUFS4ZPUmBOPoCLgwAVtEGV9JBb4B9wYIFDkMcv6KUXwrqG4AY4np6yj15oyIqacSwLXRWjwPyrWf2EoD+2ez29MfyNJvZTIH40J4HJYBvoNCQamHVKqsC6N2fOtOvS1sJP+NrGR2BuD0N1Atk6oVKLPQBwvgD9wVm55aX/dqCuOJ/xo068GurE2bpuFYMCT5nXDYhcrsOZuHw2cOlgwU6+NVFEuCLBUPl2jSRZyzzKAuHaD9mm/CT600KxM844wx5fQEaAejQAzNzZWbvLMQV1wzqCp3wsmCI6+0tc/OnJhfQEyNWUZP4Yl0FL9mQIl3R1t3qpTkuhzjukxt/w1oJCvbfONZaJI15mvF1N5q7Sv8XSZdCHprZEYhj1gjXhrWk3qqm+IUxQ0Y5mDErCVDHDB1+WyUpEIcNwAK+XiyWYeEP0AekLMGPMnBlG2a3KAOLioAiYG4rKXd+wreNfHBJKAl2sDPCMiEPtgMqd2piayJmqo4k/EpB27DgijqgvbimTXFXYNER/65OaDfaryQ1xNEexe2Bz9E3Sl5nIQ570BeLjop7Qy/E0SdYaLVM6H9rWxDZneLIqKp5Jlm6yWzamCWUEFvqkJHFfzejaTO7S5OBgHrPuxTisdFl9Nb4+YSfD46m8opAGj19CGWfrL9v2VF73vScIxAXWdi0pgFcHlikxIIfZo+AFmZ3yhdZgbiy9xgwgl8bi4Ois9Xt27fLwLB3ufKGDRtk14u1XSmAuHo7otIO/AJAHRTXjvqWeGf6G+4UQBEQV9qI/7fcyw2IY8eNNYjj39QXQmPbprJ33AiI4yWBbYn49YL+gosF9VZvMUQdbO1OgdsIu4MsE9ZLrP0CYog7PqKeum0FdW933HED0pOvfpNFs1bUd624FOJjLt9IF/T9x6lK4+FF65vTdOkN5G/JTIirtVV2r2DxTHF/2HKn6OkTzG6xmAcgAozqBNcA7vjELBe/JkT85tbKhjsFM+mzzz5b9/5yS3sK+HBwBn5n0aSeieMZABb1wo4S9ZZAIyAO+3ip4OUHlxbK0gNx0TYp+RjiehWryd+7YzY9futKxx5WPZVXGEa3TTmbcKm8klwGcTjsP500m6LC636mO9oCrM7e8OR5VFwa7KgJr3zOVRDHF93eARpsPwTI1TNQIyCOn+6wY7lXGTNo+IrRXksXit6OU15A1nz0altaGiAv6rNy5Ur5RYYXmmiyhDieg6sHmqv38BsFcczG8QsFri28cA4cOCA8ExdtE0Ncr1L180+4YQ0N7NrwNK4jVqd+fAYt2Vh3WtdlEO/W9jhNHrXCkTpafea5T86gxZJz35+SqyAOYGLrHnzJljCHywLgUhYVLd0plvvELfsDM2rMDAETtY8coMFuE4BcvU8ccCd4yNIAACAASURBVFMOAcHNovbDO9LXWNzEDhDUA+BV9oIrtpS1APi+sfCo+O3x68Bybzt0wi8D9S8SkTpZg7i154yCOGwrL0j0p+JaUW/jdOawj7ruPBMXGQH182BC+9mTsygizHG3strin6tb0Etfdqv9JyGIS7mFViXxc1GBwu1XldNzD5Tob7GNJz6d1Z6+nKtvq5dhhbvJkCMQB5wtFxiV6mOxD/2Dfb74MsK/jUMx2PKGZzCTg08cM2McNcf2PiWJzsTxElC2+WGBESCBPdjFiwE7R7CwpwBTmTmjDrb2jmPmjnqKJrQNC6CoC/TAs2g3AA/Y4cWhPkQ0a9YseYaMFwgOOKG+gDdOReL5Xr166bpL1FGIo1z4tLE2gTZAP9QH2zKVPsXuGSwkW1u4xctXOVGp9onDvYK+xYsLO5DwPBZs1Ye57GmrhDFAHtiBHx02lBPAcH0payV87L6hksmNi+m9R+aJDl/NfKs3B9E5I6LlfMrdt1oPYSlUCOJqQ0/fS/ToHVqmxT//ZUkreuuHTPEHfCCnHogDhthbbS9hrzK+bOh4QBVfRszQMHNDAugAPOUIvNoWtsnBp60+fWitLHzhsXgJ+0rgKeTDjB6zXdhWv2Rw6hBwsZfgGsHuEz0JbQQQoQnAgoRysegJW4AYtEB94T4CtKGFEuNFCRuABVZbL0Vb9YFrAxMaLRcMtlFCc7wkkFBPvGAtE7YkKpMj/MrAi8XaDh8Ev4JvHAk2lV9RqI86Lg4+h6tM9MWIXzUo11ZSl8UQb6hS+7ST9PzdtvXTM66R95/DRK2G6nvKIYhPfZBowkh9BdnL/cfylvTat+J+SeNKdp8lPRB3ppaAOGCmzKacsWX5LGaXmHW7wrZoPdE2tFGkDgrsRPKKlu9P+RjiDXu7Y6sT0tbCpYYNg8PSDtfm9g9HNyjLIYjfdxPRiw8bVm/6fE476eRSO+MMeoElsyDuBVJwFb1EAYZ4w45KSSymtycY505Zs5mo5xX6BkSANJMRcqcMGzas1nK/zkfpkVsa/jTUV3Rd7pe/8r9DPwxxR0cLP+cuBRjiDZUPDamiLyfPko7Yi59Yt9d/S6WdKVOkHSpK0lrYxC9hhyAeHlpJM6UthnqO2tuqOE4o3Tz5HDkwjD8lhrg/9bZvtJUhbr0fnxy5gnq0d+6gj2J5xtddac7KupPMWhDHcw5BHA8+cvNq6pd51OnRuWFXIj36Vk3sZ39KDHF/6m3faCtD3Ho/ntv7AN1z5d9Od3JZRRDd+sxQOlUUKjwTdwriLZIL6ZUHFmpG6rLXMszCx746QA7N6G+JIe5vPe797WWIW+9DxI56+b5F1CqlwKlOtrY26NKZOGp71dBddOMF2xyu+DfzM+ij3zo4/Lw3P8gQ9+be88+6M8Rt93u7tDx69o5lFCb5yB1JCM390Bv9qFyajauTyyGOwhA795LBe3TXe/bKNDngi9iyqm7zHv8AQ9zju4graKEAQ9z+kOjVIZsm3LRGN8j/OdpIcin3o/zCOjeKUpIpEEdhg7oepjsu3STf5KOVCktC6L2fO0khaOuc91rP+OLnDHFf7FXfbhNDXLt/U5sU0v1Xr6O2qfmamaurA+iPFS0lHnZsMAM3HeIoED8j4ODvL8UY79DyJIUE1225wbVE2yW/93LpejaEWiwp869gV9Z6kyGuOcY5g4cpwBAX6xBp1x+dIe1WOafXful6ttwGk9sDx6JprXQ9269LW9ORHPthuE2biVs2DQCPjSqrvWMzvyhMetPYv0tOTB7fycUQ952+9JeWMMT193RAwGmKiy6XWYjJ7IlTYbomsW6DuP6m+t8TDHH/63NvbzFD3PweZIibr7lwiQxxYak4o4cowBA3vyMY4uZrLlwiQ1xYKs7oIQowxM3vCIa4+ZoLl8gQF5aKM3qIAgxx8zuCIW6+5sIlMsSFpeKMHqIAQ9z8jmCIm6+5cIkMcWGpOKOHKMAQN78jGOLmay5cIkNcWCrO6CEKMMTN7wiGuPmaC5fIEBeWijN6iAIMcfM7giFuvubCJTLEhaXijB6iAEPc/I5giJuvuXCJDHFhqTijhyjAEDe/Ixji5msuXCJDXFgqzughCjDEze8Ihrj5mguXyBAXloozeogCDHHzO4Ihbr7mwiUyxIWl4oweogBD3PyOcBvEcYFyQmwpRYVXUHFpMOXkh9uMl2u+LJ5RIkPcM/qBayGuAENcXCslJ65ui4+RIrpGllNFZQDlFYZRQXHDyx9sWTYV4hFhlXR+n/1SPPGj1C7tJAVJlVcSgp/vPBhLKzan0G9L06ioNES/Gj72BEPcxzrUD5rDEBfrZISf7dPpmBRP/CBlpudQVERlvQcRQ3zdzmT6eXErOpgdbdeoaRA/u8dBuu2SzRQdUaHZSszMP/ytE/2+LE0zry9nYIj7cu/6ZtsY4tr9isuSH7x2nXRp8inNzLgofu7qVHr7h05UWm79ohxTID5q+CYaNnCfZoUtM/y5ugW9/FVX6Y5N6RoMP0wMcT/sdC9vMkPcfgf27XyMxl2/huBO1pNw0w/u2DxZENbgMZdD/LrzdtC15+7QU996eX9YlC7ft+mPiSHuj73u3W1miNvuv46tTtDTo5brBrhicc/hGJrw2gBpRm7ibfepyQX0yoOL6vm+9Q5R3HT/0Bv9acveeL2Pen1+hrjXd6HfNYAhbr3Lsf4344FFlNakwKkx8eXctvTprPb1bLh0Jv7YLauoj/Tzwdm0aU8CPfxGP2fNeN3zDHGv6zK/rzBD3PoQwIaOu67Y4PT4KK8IolufPZvypR0sSnIZxLHa+ukTsyk4SJ/vx1or4RO/5elz5AtE/SkxxP2pt32jrQxx6/04WXKjdGubY0gnv/pNFs1aUbfpw2UQ7595lB6+ebUhlYYRLHDOXZVqmD1vMMQQ94Ze4jqqFWCINxwPYSFV9MXkP6QJbd2WamdGzdKNTWnKxz31zcSl3LpLf+AWov9NcKaq9Z/9Ym47mjmrnXEGvcASQ9wLOomrWE8BhnjDAdEssYjemjDfsJGydgvRGZfrM4f9fbohPvVBogkj9RVkL/cfy1vSa992Mc6gF1hiiHtBJ3EVGeIaYwC7UqaNWWrYSDmcTdT8TH3mHIL4U/cQPT5aX0H2cuPk0ts/Zhpn0AssMcS9oJO4igxxjTHQLi2P/nf3YsNGyr5DRK3P0WdOGOKxsbEUElJzXH7EZaU09f5CfSXZyf3JHx3oqz8zDLPnDYYY4t7QS1xHtQLsTmk4HpLiSuj9R/80bKCs2hRMF46Ok+0VFxfLf7RSwGkpaWXC58OGDavN1jUjh56+fbnIY0J5pkqO/CWSQ9+fEkPcn3rbN9rKEG/Yj1jQnDlpFkWG14+P4miP/ykdw3/py661j2vtTgkICCCHII6KfyJtMRSJlaLVmIrKQLp+0nlUUmY9doDW8976OUPcW3vOf+vNELfe9+OuX0uDux02ZGA8+2FPWra5bkKrBXEU6hDE8eAdl26ii/rvc7ri89c0pxe+6O60HW8zwBD3th7j+jLErY+Bnh2O0xMjVjg9QHBWZtTUs6lMOvSjJJdCvFFkhbS1Zh7hv44mnFAaPX0IZZ+McNSE1z7HEPfarvPbijPEbXf9pBEr6YwO0tYSJ9LLX3WTzsu0qGfBpRBHSYja9dBNqx2Kn4KTmi983o0WrGvuRLO991GGuPf2nb/WnCFuu+dxCc70u5YQFjodSfBIvPhldymqa/2nXQ5xFDek+yG668oNhJNLogl+cGwp/GO5/8YUZ4iLjhbO5ykKMMTt90SL5EKaeOsqSkko0tVli9ZLAP+iG1VWNQzLbQrEUVtENISPPCsjV7PyW/fF05vfZxJCL/pzYoj7c+97Z9sZ4tr9hhvObrloG53baz+FBNuPLZWTH0Gf/tGecLeCrWQaxJUKtE3Nk65nO0Jd2uTKPyuwewVXseXkRRCiFS7b1JS27musrYQf5GCI+0En+1gTGeLiHYp7NYdIN56BhS2bFlBMVLl0z3Ag5UkXP+w40JjWbkuipZtSrM6+1aWYDnHxJnJOhjiPAW9TgCFufo8xxM3XXLhEhriwVJzRQxRgiJvfEQxx8zUXLpEhLiwVZ/QQBRji5ncEQ9x8zYVLZIgLS8UZPUQBhrj5HcEQN19z4RIZ4sJScUYPUYAhbn5HMMTN11y4RIa4sFSc0UMUYIib3xEMcfM1Fy6RIS4sFWf0EAUY4uZ3BEPcfM2FS2SIC0vFGT1EAYa4+R3BEDdfc+ESGeLCUnFGD1GAIW5+RzDEzddcuESGuLBUnNFDFGCIm98RDHHzNRcukSEuLBVn9BAFGOLmdwRD3HzNhUtkiAtLxRk9RAGGuPkdwRA3X3PhEhniwlJxRg9RgCFufkcwxM3XXLhEhriwVJzRQxRgiJvfEW6BeHBQNSEkbZPGJRQRXkWlZUF0XApFu+NAnByKkVONAgxxHgnepgBDXH+PpTUpkO5bKKKY6HKqqAygfISiPRhH+YWhQsZMhXhGi3y6bMhu6t3pmNVbfgDwNduT6bsFbWjbPxxTnCEuNIY5kwcpwBAX64zGjcpo2MC9dE6vA4S/WyZcwbbrYCz9srg1Lfq7ud2Y4qZAPDSkmm65cCv9d8BeCmh4u5DVVs9f24Je/zaTSsuDxVTxwVwMcR/sVB9vEkNcu4MHdT1CY67YQFHhYhfI7z/WiKZ92oP+OdrIqnGXQzxUulfzyZErKDP9hHbrLHLsPBBLj77Vj0rK/BPkDHHdQ4YfcLMCDHH7HXDtuTvpuvO26+4lMPCRN/tKs/O4Bs+6HOITblhDA6U3j6NpjXRF0ZPv92lww7Oj9rzpOYa4N/UW1xUKMMRtj4OzpavY7r92vcMDJb8wjO59aRDl5ofXs+FSiHdrm0OTRy13uNLKg/gp8dffzZy2420GGOLe1mNcX4a49TEA18nbD82X79F0Js1f05xe+KK7eRB//u4l1D7tpDN1lp89cCya7nx+iNN2vM0AQ9zbeozryxC3PgauPmcX3XD+NqcHCBY875h2Fh3Oiaq15bKZeHxMKX342FzhhUyt1o2ePoQOZkdrZfOpzxniPtWdftEYhrj1bn7x3r8Iu/OMSB/+1pG+nd9GH8Sl3BL/tVOfPn0oNLRmb+N5fbLpsRH6Hfi2Snnz+0z6dWkr7Ur4UA6GuA91pp80hSHesKOjIirp8yf/MGxCu2JTYxo3I1MuKD8/nzZs2KA5urApUAjiaksTRhJNfVDTtnCGr/7MoE/+6CCc3xcyMsR9oRf9qw0M8Yb9nZpcQK+PW2jYQNi4gyhruD5zDkF8+jiisbfqK8he7jmr0mjGV1nGGfQCSwxxL+gkrmI9BRjiDQcEtldPGb3UsJFyLJeo6UB95hyC+MQ7iZ68W19B9nL/sCid3vu5k3EGvcASQ9wLOomryBDXGAPpzfLp5fv/Mmyk7PyHqN0F+swJQzw1NbXWJ37NBafo6buO6yvJTu4Pfu0oH8f3p8QQ96fe9o228ky8YT/Gx5TRR4/PMayDV22OoGsn1Gy5hk88JydH07YMcSlpZhw2bFhtHqzEYkXWqISTmxt2JRhlzivsMMS9opu4kioFGOINhwNCjbz/yFxKjCs1ZKz8+Fc6vftTnVdCaIuhIxCXK/7on5QYW+J0xQuKQ+jGJ8+jqmrBwCtOl+gZBhjintEPXAtxBRji1rUafelGurC/5AcxID38Rj/atKduQisEcaFpuFQ59Uwcdb3y7N1003+2Ol3tr+dl0Me/+9fOFIjGEHd66LABkxVgiFsXvFXKKXr5vr8oMFDbo2Gvy/YejqH7Xh5E1aoJrUshHhJcTa+NXUgpCUUODyXECbhj2hC/jGbIEHd42PCDblKAIW5beGdn4/BoP/Jm/Vk4SnMpxFFAs8QimjZmKcVGN4yZqzXOaiJ39ZPj6vpjYoj7Y697d5sZ4rb7D5fhPDFiJSGmlCPpg187SZs70hs86nKIo0RssZlw41oZ6KIp+2QETZ/Zw68vh2CIi44WzucpCjDE7fcETm/ed/V66tv5qHCXVVQGEo7a//RXa6vPmAJxlBwRVin5yHfJzn17wdAx+/5jeRp9ObctFZWGCDfUFzMyxH2xV327TQxxsf5FWNorh+6iFsmFNh84fTqAVm5pQp/Oakf7jsTYzGcaxJUahIdWUnfp50TnNrnUJF66Y1OCe6kEbsy8N++Jp/W7kqioxD8vgbDsJYa42BeCc3mOAgxx8b4ICDhNHVqelN0rLaQ7NuFyxqw7D3dsSvcNr92eRMdORGoaNB3imjXiDLUKMMR5MHibAgxx83uMIW6+5sIlMsSFpeKMHqIAQ9z8jmCIm6+5cIkMcWGpOKOHKMAQN78jGOLmay5cIkNcWCrO6CEKMMTN7wiGuPmaC5fIEBeWijN6iAIMcfM7giFuvubCJTLEhaXijB6iAEPc/I5giJuvuXCJDHFhqTijhyjAEDe/Ixji5msuXCJDXFgqzughCjDEze8Ihrj5mguXyBAXloozeogCDHHzO4Ihbr7mwiUyxIWl4oweogBD3PyOYIibr7lwiQxxYak4o4cowBA3vyMY4uZrLlwiQ1xYKs7oIQowxM3vCIa4+ZoLl8gQF5aKM3qIAgxx8zuCIW6+5sIlMsSFpeKMHqIAQ9z8jjAd4rhjDpdEZGXkSpcol1JURIUcevZkQYR0m328dItPnN9diGyr2xni5n8huETnFGCI69MvuXExdWuXSy2SCigmqlwKRRtE+YWhtGN/HG2ULkPG/QpayTSIB0nw/k+/f2j4oD3UNKHYZr1y8iPox0Wt6delreTYuv6cGOL+3Pve2XaGuFi/dc3IoaukSyGypP/aSuUVQTRnVSp9Mz+DcvLCbeYzBeJ424y/YR21Tzsp1kIp157DsTTt0+506Hi08DO+lpEh7ms96vvtYYjb72NcHn/rf7fQRf33UUCA2HgoLAmhV7/OoiUbU6w+4HKIJ0guk2ljllBy4xKxGqty4WfFhNf7+y3IGeK6hww/4GYFGOK2OwCu5PHXr6UBWUd09xJuup/xdVeaK83MLZNLIY5Kv3jvYtkH7mjCTPzuFwb7pWuFIe7oqOHn3KUAQ9y28jdesF1yoex0uGsqqwJo7CsDafeh2Ho2XArxiwb8Q3dcstHhSisPfvx7R/p6Xhun7XibAYa4t/UY15chbn0MYB3w9bELCO4UZ9LWfY0l78QAwsxcSS6F+Jvj51PzpCJn6iw/m1cYRjc9dY5UcUEnktMleoYBhrhn9APXQlwBhrh1rUZevEXe1GFEwmx8u7R7xeUQb9m0gF59cKERdZZtjH9tAOEt5E+JIe5Pve0bbWWIW+/Hdx6aZ3dXnp7e/3peBn38ewd9EJdyqybvtotr3749hYWFyRkuO+sEPXHHQT11s5v3/V860fcL0w2z5w2GGOLe0EtcR7UCDPGG4yE2uow+fWKOYQNl9ZZoGvFkDQtPnDhBBw9qcxY+DCGIq2v52GiiyfcYVm8J4G3o/V86GmfQCywxxL2gk7iK9RRgiDccEK2bnaIZ9y8ybKRs30vU4UJ95hyC+PRxRGNv1VeQvdxzVqXRjK+yjDPoBZYY4l7QSVxFhrjGGMhMz6Upo5cZNlKyc4maDNRnziGIPzyK6Nn79RVkLzdOLX30W50fyDjLnmuJIe65fcM1s64Az8Qb6mL0+uDmXUSZw/SNQGGIZ2Zm1vrEhw3KpSdu36evJDu53/25s3wc358SQ9yfets32soQb9iPjSLL6bMnZxvWwSs3x9CdU9rK9sCIPXu0d73IEJeSZiWGDat7PeCo/XuPzNN8RjTDvS8Olo7ix4hm94l8DHGf6Ea/agRD3Hp3vz5uIaUmFxgyFj6b3Z4+n1MDcSShfeKOQBzGX3lgEbVKOeV0xbNPRtDIKUPrbXB32qgXGGCIe0EncRXrKcAQtz4gbrxgmxzwyoiEE+z7jtRNaIUgLjQNl2qnnomjsmd2O0xjpVgBzqbXv8ui35elOWvG655niHtdl/l9hRni1odAnLTN8K0J8ykyvNKpMbJySxOa/EGvejZcCnFE6Xp61HK74Ra1WoS4uuOkgz7V1f51WhO6MMS1Rgd/7mkKMMRt98glg/fQiGFbHO6y0vJguvfFQXQ4J8o8iKOkqIhKmnLHUsJeSb3paG6kfFLzZEHNASJ/Swxxf+tx728vQ9x+H44avpmGDZQ2eutMCH71zIe9afW2pAZPunQmrpQWFV5BY67YSIO6Hhau+vqdifTiF93oxCnbwdCFjXlpRoa4l3acH1ebIW6/8+GduHjQXrrlwq0UHCQWDOt4XgS98Hl32rQn3qpxUyCulNy381G6bMge6tjqhM2W7jwQK53OzKDFG1L8biHTUhSGuB/T0EubzhAX67i0JgV0xdm75YmtLZifOBUm3XDWmn5Z0oqKS21f02YqxJXmxceUURfpFFNyfInk6C+X7pELoewTEfKbBtezcapRgCHOI8HbFGCI6+ux8NAqykw/QS2SC6lRZJl0v3Cg7D7e/k8c7ZV2oIhEbnULxPU1039zM8T9t++9teUMcfN7jiFuvubCJTLEhaXijB6iAEPc/I5giJuvuXCJ9iDerFkzuuyyy4RtcUZWwAwFSktL6d1337VZVEREBEVF1d8iZ0a9fLkMhrgH9649iHtwtblqrABD3MQxwBA3UWy9RTHE9SrG+T1dAZ6JG99DDHHjNTXMIkPcMCnZkIcowBA3viMY4sZraphFhrhhUrIhD1GAIW58RzDEjdfUMItYJKquFjvVZVihbIgVcKECISEhhD+cjFOAIW6clmyJFWAFWAHTFWCImy45F8gKsAKsgHEKMMSN05ItsQKsACtgugIMcdMl5wJZAVaAFTBOAYa4cVqyJVaAFWAFTFeAIW665FwgK8AKsALGKWA6xBNjS6hfl2PUuXUuJcaVUExkORUUh1KudPnD5r0JtHxTEzp2ItK4FrIlVoAVYAU8UIGwkCrq2/kYdcnIoVQpFG1MVDlVVtWEosW1lGt3JNGWvdYvglA3xzSII4b4LRduoUHS5cnBQadtSoq7NJdsTKEPfulIuNGCEyvACrACvqRAUOBp+UKIiwfukcFtL+06GEsf/daRcNOZrWQKxLtKb5px0q33sdH2K6yuZGFJCL0kXc+2QrrdmRMrwAqwAr6gQHxMKT1y8xpqn3ZSuDmnpTnvdwvbyDDH3y2TyyHePi2Pnr59GeEGC73J3uWgem1xflaAFWAF3KkALo1/Vro0Pt2BS+NRb1zT9tYPmeZCPCKskt6aMJ8aNypzWDvMyG9/7iw6VRTqsA1+kBVgBVgBdysw/oa1ui6Lt1bfZz/sScs2N633kUtn4jdfuI2uOGuX09r9tqwVvfFdwzeQ04bZACvACrACJijQsdVJeu7OJYTb7p1JR3Ii6c7nh8gLoEpyGcQDAk7TxxPnUly047NwpZKl5cF0/aTzqLyiruLOCMHPsgKsACtgpgL3Xb2ehvY8aEiRT77Xh1ZvS3I9xDu1PiG9eZYaUmkYmfx+b1q5Ndkwe2yIFWAFWAEzFAiUdqN8MnGO5k4U0br8vqwlvf5dF30Ql3Lb3hOoKjkxMbE2zOTNw4tpyr35ovXSzPfx7x3p63ltNPNxBlaAFXBOgaCgIEpJSaFGjRpRRUUFnThxgvLy8jwqLHKA5JfAPbNxcXFyY1G/w4cPS7s3hFAlt61ly5YUHh5Op06dopycHEL8ftHn9SicGFdKHzw6V88jdvOu2hRKw+9JkPMUFhZSQUGBpm14ccSUUZmadBfRE2M0bQtn+Omv1vTOT52F83NGVoAV0KdAx44d5cu3u3XrJsNNnSorK2nLli20YMECWrhwIZWX12wXBkQ/+eQTqwXl5+fLYDx48CDNnz+fVq5cWZsPL4m3337bbgWnT59OixYtqpcH5V111VU0ePBgio2NrfcZykPdvv76axnq1lKHDh3opptuoszMTMk/Xd9BnZ2dTT/++CPBx2wkzDNa5NGL9y7W1xl2cu85QNTmPH3mHIL4tLFE40boK8he7lkr0ujVb7KMM8iWWAFWQFYAMAPYLr/88gZgsybRF198QTNnztSEuOWzc+bMoVdeeUUGpCMQb9u2LT3++OPUuHFjuz2HXw6TJ0+mXbvqb6oYMGAAjR07loKDg+0+P2vWLHr11VcNGx2dJdfyVANdy0dziFIG6aueQxB/8P+Inh+vryB7ub+Y25ZmzmpvnEG2xAqwArIC119/PV1zzTX11Dh06BD9/fffVFZWRsnJyZSVlSW7IJDsQRw/7Y8dO0aBgYHUokULCg2tvzX4f//7nzybB4hHjRol24PtmJgY+e+4yWrp0pq1tJ9++om2bt0q/z0hIYFefvnlerNvlLNhw4ZaG02a1B0MxKz83nvvpdzcXPlzgPuDDz6odb/gl8Snn35KO3bskOuJl5hSB+RH3Y4cOWLICGmeVERvjp9viC0YWb+NqPul+swJQ/zMM88k+NOQzupxjB4bsVlfSXZyv/5dFv2+LM0we2yIFWAFSPYLY3asuBYwS4ab49dff63nUgCM//Of/9ANN9xAP/zwg82ZOAANUCPhGrbbb7+dzj///Fqp16xZQ5MmTaon/XPPPUedOnWS/w1wxS8Cy3TPPffQueeeW/vPixcvlsuBm0eB9IMPPkgDBw6szTN37lwZ/EiWM3/8KpgxY0Zt3uHDh9PIkSNr/x8z/vXr1xsyRMJDK+mrp2dJGuv2Slstf9nGRHrszRqvBHziajeVrQoHSB0rVPqwYcNqbTSSAlt98sQcQpwAI9LIKWdzYCwjhGQbrIBKAUs4fvPNN/TRRx/Z1AiLiZiZK4Cz9ImrIQ4jkZGR9OWXX9baO3DgAN155526IA7//Oeff17rBikuLqZbb72VioqK6tlBWe+//z5FRUXJ/w7AX3fddVRSUkLR0dH02Wef1b6sUI8nnniCjh8/Lue94oor6Oabb5b/ym7ZGgAAIABJREFUjsXcESNGyP58oxJ26mHHnhHp7R8z6efFrWpNuWyfOEp4+vblhLgpzqadB2LpgRk6nUDOFsrPswJ+oABcDNhVhoS52o033khwRYgmLYjDNspQ0vbt22W/tDppzcS7d+9OTz31VO0jWOzEoqe19MADD9BZZ51V+xFAvXbtWvn/J06cSL169ar9DBeRz5s3j5YsWSK7XvByggZ4EeDXhpHpksF7acQw5z0TVVKAwJHPnk05+XXBAV0KcQR5mX6X86eULDe3Gyku22IF/FUB+Im///772uZjix7cH0hhYWHUu3dvq9LAX75nzx75M3sQhztlzJgxNHTo0Fo7KA+Q1ANxuGPuukva7vZvgi9bPbtX27ryyitl/7aSXn/9dfr999/l/8VuFrhyMjIyrLYLrgm8UIxyo6gLCZXCzr4xbiElNy52arhhBo6ZuDq5FOIo6I5LN9FF/fc5XPH5a1vQC593c/h5fpAVYAWsK4CFSrgYlAQwY0aKhFnpe++9Z/VBbMN799135c8sIa4sbMKHjlk4XBxKwswXUMdWPnXSmolfcsklsntDSSgbdbCW4NJVFkzxOX4FfPfdd7VZu3TpQo8++mity8XSBjR4/vnnCe4Wo1OvDtn02P+tkhZ9HXMxH82NlD0SBcUh9armcoijwhNuWEP9uxzVrcna7Uk0+YNe9eIE6DbCD7ACrIBVBbAJATNjZVET/mH4mp2BuC2p4ZeeNm0arV69ukEWLYifd955dPfdd9c+hxcPfOTW0tVXXy0vvioJWwWxZRAJPm/4vpHwIvnwww/lhVD84lBvO4Q7afTo0UKHaPQOrQv67qc7L9uoe5ETF0VMeK0/Hcmt8ferk8shjsKwKnvFWbvpuvO2270QQqkY/D5fz8ugL+a0I/ydEyvACrhGgXfeeYeaNq2LiocZLwCHGfRFF10kF4oZ9YUXXlhbAXszcXUtsUCILX7YkYIFU5yKtJa0II6DOVOmTKl9dNmyZfTss89atfXQQw8R9oMr6eGHH6ZNmzbJh3vUNp555hlavny5nA1bDLHYilm6kj7++GP50JArEtYJ779mPSXElgqZXyPFSXn5q27yjT/WkikQVwrG1WzDJQf/gKwjlCRdzWaZcvPDaenGpvTjX+m8E0WoezkTK+CcAnBvXHDBBbVGZs+eLW85VCec5MQsWkn2IG65O0WkdloQh28dh4siImoW87AN8bbbbpPDAahTfHw84aWk7E2H+wZ74JHfci88oK12mVguwOKE6QsvvCBSfYfywEd+bq8DdI70p03zUw1m5gj697d0m89Pi1vThl01R+xtJVMhrq5Ek/hiGeSxURWUXxRCALi1nwoOKcQPsQKsgJACqamp9Nprr9U7qQkfMtwVgCCSuyGOOsDNc+mldSdcNm/eTJhNK3FD4N+Hr7tz57rQHNhhovj1cZgJIFeS5Uwb+9TxMlESwKgVFkBIYIFMjSIrqHlSoRTxteaOzdxTYXTgWCPp72JeCLdBXKBtnIUVYAVMUMAScCgSe7C3bdsmu0CweNmnT5/amhgxE8fMF9BFgjtDidWCLX67d++W/x371ZWdInDvvPjii3LQKyXhJYOj9XgGR/LV8V5w2vL++++v3Uuenp5OL730Uu3LCidDEWcFJzaxawUHmZRYLLA3btw4wnZIb0gMcW/oJa4jK+BCBbCwCZBfe+21QrFTjIC4I7FTcKweJylxytRe2r9/vxw75ejR+psprIUXsLQDgCOgl6v84a7oRoa4K1Rlm6yAFyqQlpZGOH7eo0eP2gNAaAbAhpktXBirVq2idevW1bpaEG9EOWaPvCtWrKjdfmhPAmxhhDvEXoJ/2/JIOfzj8OEjxAdm34jRgoSZ9c6dO+Woh9gXjkVVawltQxux0KmO64IYMYjDAlcSFkK9KTHEvam3uK6sgEkKwDUBQOPoOg7BKKFnTSpeqBhsC1SCViEmuBJHReRhbK9EEC4cakLbsIsGLwJvTAxxb+w1rjMrwAqwAv8qwBDnocAKsAKsgBcrwBD34s7jqrMCrAArwBDnMcAKsAKsgBcrwBD34s7jqrMCrAArwBDnMcAKsAKsgBcrwBD34s7jqrMCrAArwBDnMcAKsAK1CuAwDa40U8LTeps0OEq/d+9eb6u2U/VliDslHz/MCviWAogfolwu7I0tQ4xwRFL0p+RWiCPOeFR4JRWXBUunpcQidvlT53BbWQGzFWCIm614XXmREgsRxbC8oiaUgGgyFeKAdp9Ox6Rbfo5QZpsThPjiUuwdOeXkhdOWfQm0fFNTWiLFFGeoi3Yh52MFjFOAIW6cllqWWqWckuKJH5Qvk2+RXChdmFNz7L+oJJh2HmxM63Yk0ewVqVRYUv86Nku7pkE8M/0Ejbl8g1xZrXQkJ5Le+L6L3AhOrAArYJ4CDHHXax0fUyZd0baBeksTWmUSa6vUEslL8e2CDOmmszY2J7amQPySwXvo/y7aquuCUClwGn0uXc+GP5xYAVbAHAUMg7j0Ba6qqqLqqgo6LQWWOl1dJf3BBcHSn3/JFRgYRAHSn0ApkFVgULAhi6me7hNvn5ZHj0uXJcdGl+nqUNzug/uGceOP6TPx83rvp7uu2KD5xrHVovd+7kQ/LErX1WDOzAqwAo4p4CzEAezK8lKqqiiXQ9jqScEhoRQUGiYD3dHkyRBPbVJIz925lBpFljvUPHgmnnq/d4Mbf1w6E0+MK6U3x8+nMOk+OUcTLkq+54XBtF+6rogTK8AKuFYBRyF++nQ1VUg37VRX6oe3ZYsA8dCISHmWrjd5KsTx4wMA79iq/r2getv33s+dpUlt63qPuRTiD1y7ns7qcVBvPRvkX7G5KT39YU+n7bABVoAVsK+AIxCvqqyg8pIi3B5hnLwS9YKlWXlIaHit+0XEuKdCfFDXIzT+hjUiTbCbB4ucI6cMlRc/leQyiOM255mTZlN4qOOzcKWSmI3f+OR5VFBsf5XWaYXYACvg5wrohXhFaYnsPnFVkmflkVGSO1Zs252nQvyxW1ZRn87HDJHpf591pwXrmrse4r06ZNPEESsNqTSMPD+zOy1cX1dxwwyzIVaAFahVQA/EMfuG79vVKVC6hSc0MloI5J4I8ZDgavr8qVlOuZXVGi+UAP68BHJdM3Eps9DvJFx1hGuPkMZcV0nTHjSugz+b3V7aqdLW1eOF7bMCfq2AKMRdPQO37IQakDfS3MHiiRBvmlBM7zw0z7BxtWZzIA2+SXIzSQlXy4lcS4fjOEIQV9fy2fuJHh5lWL3pt6Ut5b3jnFgBVsB1CohAvLK8TFrELHZdJWxYDgwOoTBpRm4veSLEO7Y6SdPGLDFMr4NHiVLP0mfOIYg/cx/RI7frK8he7t+WtaI3vss0ziBbYgVYgQYKaEG8Wtr7XVZ0ym3KhYRHyguetpInQrxDy5M0/S7jIH5AgniaqyCudqfceW0lTR/L7hS3jXYumBVwQAEtiJcVFUgHeCodsGzQI9KulfDoGJv+cU+EeJP4Ynr3YTe7U6RN+0LulGHDhtX2VO+O2fT4rcYtbFquyBo0JNgMK8AKqBSwB3EsYspbCd2c5K2H0ozcWvJEiGNh8wtpYRM79oxIi9Y3o+kze9Sa8oothgiGdeNT59KpolAjNGAbrAArYEMBexCHGwXuFHcnxDoPi5Jm44ENtx16IsShF47aI1aKEemFz7vT/LUmbDFEZcdet47O7H7I6Xqv2posHzflxAqwAq5VwBbE4UKBK8VTUkhYBAWH1ezQUCdPhfiZ3Q7T2OvXOi0fDvmMeFY67FNad2bGZTNx1BahZt+csMCp/ZE46HPfS4Np3xE+du/0CHCzgezsbN3xNNxc5driMftLSkrS3OLmKfV1tB62IG72lkKt+mMWHh4d6zUQx7H75+9aTO2kAFjOpA9+7UTfLagfS8qlEEdlL+z/D42+dKPD9f7ot470zfw2Dj/PD3qGAtVSYKT169d7RmUcrEXXrl1rz0E4aMLjH7MF8dLCfDkaoSclQNzSpeKpM3HoltakgJ4bs5SiIyocknHDrkR64l0EwKrvRnI5xFHbK8/eRTdesF2axQitj8oNxFLqN/Mz6OPfOzjUYH7IGAUSEhIMARfCks6ZM8eYSrnJir9CHMGtSgvy3aS67WKtbTf0ZIijJZ1anyAcwW8UqQ/kW/fF06T3elNxqRtC0Spd0K1tjhwIPSVR+5DA8bwIelPaE75yaxOPGzj+VqEZM2ZQYmKi080uKSmh7t3rjgo7bdANBvwV4nKAq2Lty1zM7hL4xOEbVydPhzjqiuiud13+N53R4bimZGUVQfT9wjb0hXRaHa5la8mUmbhScGDgaRogXc2G69m6tMmVAqPX7SMvKA6ljbvjacWWFFq0rlmDmLmareUMLlGAIV4nq79C3F0nNLUGtLUTnN4AcaVdGS3y6dxe+ykrI7fejWcVlYG0fX+cdLNZMv2xPE1zV56pELfsFOybjI6olMMq4o3DyfMUYIgzxCvKSqmyrMTjBiduBAqT4ql420zcmpCY4MZGSfvwpUuS1TtPRER3K8RFKsh53KsAQ5whDoAD5J6WEBQL+8V9AeLOaMsQd0Y9P3iWIc4Qr5AgXumREJdm4lG+MRN3BiUMcWfU84NnGeIMcVz6gH3inpa83SdulJ4McaOU9FE7DHGGuKfuTgmSLlYOjYhid8rPP2vSJ8CRAFiaVjmDVyjAEGeIn66uotJC94WftfVF8cZ94q740vNM3BWq+pBNhjhDHAp44olN+MNxBycvbPJM3IeQa3xTGOIMcShg1n2aoiMYsWzk2CkISqJK3rRPXLStWvl4Jq6lkJ9/zhBniEMBT4klrvSGrZjiDHHrwGKfuB+DnCHOEFcUKC3I85golDjkg8M+lokhzhD3Y1xbbzpDnCGuKIC94tgz7u4EP7jl/nClTgxxhri7x6fHlT916lRCJENnEwJgDRw40Fkzbn3eX2OnqEX3hAVOawuaDHH7Xw12p7gVHb5ROMcT945+1Loo2d2+cXv3a0JhnonzTNw7vmleWEuGuHd0mhbE0Qp37VQJCAikMPmme+shWRnitseYS2bi8TFllBRXTBFh0kGC8iDKyY+gnLyGd+Z5x9DnWmop4AsQf/311yky0vot61rtt/f54cOH6ZtvvnHGhGHPikAcN7aUFReYemkywB0aGd1gX7hlw71xJh4RVkkpCcUUI0UxxK09+dKF8IeORxEuiBdJpm4xBLiHDdxL/TKPUPOkogb1O5obScs2NaWf/motQ52T7yjgCxBfuXIlxcTUj5pnRA/t2rWLJk6caIQpp20IQVwqRTrFLV+cjNOcZiRbu1G8FeIhwdV09hkHaWjPA/K9m0FSKFp1KiwJofU7kuinxa0It/rYS6ZAHL9+Lhm8h244fxuFhmjf01dZFUBfzG1HX8/LEH4bmTGQuAzHFWCI29bOGyEut8aEGTlcKIiPYm07oTVFvWEm3lm6ou3B69ZJngixnT4rNjehGV93tXk5hMshjns1x163ngZ3O6SbACu3NKEpH/fkW350K+d5DzDEfRDi/zaporSYcPuP0QnxwkMA8EDxC2M8HeLn9DpId1/xt9Qm8fuGoStczQ+90Z+OnWjoznM5xG+7eDNdPGivw/07d1UqvfxVV4ef5wc9QwGGuO9CHC1DpMOKkmJpcq79S1t7RAZQSHg4BYWE2V3E9LaZeI/2x2nirSsbuE609ajJcTgnih54eWCDm39cCnHcIffCPYt13XJvrUET3+kj3TeXJNpWzueBCjDEfRviNd6V0/LxfMzKHfGVw3WC8LIh0gXIljFRRIe0p87E4UZ+Y9wCSm6sfVG8vbZivfCdnzrXy+JSiE8etYK6tdW+0Vmrg3ZIl4Y++Ip3HxTRaqOvf84Q932Iq1tYXVUpz86rKyulXSyVNhsfEBgo7zgBvIOCQ5z+GngqxC8etI9uu3iT0+3DeuHIKUMpN79uJ5/LIN4ospw+eWKOwz8dLFs7csrZVv1BTqvCBkxRgCHuXxC3bO3p6uqauCv4g51z0m4HPb5u0UHqqRCfeudSwoKmEemtHzLplyWtak0JQRy/lEQKP/fcc6WOCZSzDu52lB655W+Rx4TyvPpNFs1akSaUlzN5ngIMcf+GuFkj0hMhHh5aSV9OnqV7MdOWZss3JdOkd7vLH5eVldGCBQs05cV7UwjiaktjbyWaPk7TtnCGL+a2pZmz2gvn54yepQBDnCFuxoj0RIg3TyqkN8drg1ZUn/XbiLpfKpq7Jp9DEH9uLNH4EfoKspcbs3DMxjl5pwIMcYa4GSPXEyEONwrcKUalozlEKYP0WXMI4pPuInpijL6C7OW2tiprnHW25GoFGOLeAXGEFXjuuedq3aKuHhdG2//oo48IJ2s9KWW0yKMX711sWJX2HCBqc54+c8IQT0xMpJCQmhXmm4cX05R78/WVZCf3x793lE5wtjHMHhsyVwGGuHdA3NxR4R+lJcaV0gePzjWssas2hdLwe2rCQxcWFlJBQYGmbYcCYBn9E2Ly+71o5dYmmpXlDJ6pAEOcIe6ZI9P1tcLpzE+lnXrYsWdE+mN5Gr32bZ1rWWt3CoKHOQRxVPzjx+dQbLTzFS8tD6brJ51H5RU1O184eZ8CDHGGuPeNWuNqfN/V66VgVwcNMfjke71p9bbkWltaEEdGhyCOB2+5aCtdPmS30xX/Y3lL6c3TxWk7bMB9CjDEGeLuG33uL9kozwRip4yePoQqKusmtC6FeFREpbS1Zj7FRTseHKeoJJhun3YW5ReGub8n/LAGfMdmXaf7QyhaPxzipjV5wg1raGDXI06VN/XjM2jJxpR6NlwKcZTUPu0kPXPHcgoL0R93GEdMn/mwV72fDk4pwA/rVoAhzhDXPWj4AasKYFI7dfRSapVyyiGFflvWit74LrPBsy6HOErs2eE4PXDtWsmxXyFc+eLSYJohRS+0fOsIG+CMhijAEGeIGzKQ2IisQGJsCT16y2pCcEDRhEgFPy9uTe/+3EmKWtDwth9TIC5XXtpmc+t/t9CALkfsHj9FJZdLQdDfkypsLXauaMM5nzEKMMQZ4saMJLaiKBAcVE1XDd0l33IWHWF/YrvvSAx99FsHu94I0yCuNKCpdJdcv8yjcjCYJvG4Y7OSSsqC6HheJG3eG0/LpevZcL8cJ89QgCHOEPeMkeh7tQD7+nU+Slltc6hFcqG0dlguL1jmSet/26XIrWu3J9HG3YlyzDB7yXSI+15X+HaLGOIMcd8e4d7fOoa49/ehS1vAEGeIu3SAsXGnFWCIOy2hbxtgiDPEfXuEe3/rGOLe34cubQFDnCHu0gHGxp1WgCHutIS+bYAhzhD37RHu/a1jiHt/H7q0BQxxhrhLBxgbd1oBhrjTEvq2AYY4Q9y3R7j3t44h7v196NIWMMQZ4i4dYGzcaQUY4k5L6NsGGOIMcd8e4d7fOoa49/ehS1sQERFhyFVdVVVVtHSpcfcMurTRNoxzFEN3qM5lainAENdSiD83RAGOJ25bxl27dtHEiRMN0ZmN+J8CDHH/63O3tJghzhB3y8Dzg0IZ4n7QyZ7QRIY4Q9wTxqEv1oEh7ou96oFtYogzxD1wWPpEldwC8ZiocuqSnkuJjUspKryCiktDKDc/XAq7GC+HYeTkewowxBnivjeqnW9RSHA1dWh5ktKaFBC4WFEZRPlFobRtXxwdyG4kVICpEO/ZIZsuPXM3dWlzggICGgbJRdzcbf/E03cL0mnFlqaacXSFWsiZPEIBhjhD3CMGoodUonlSIV02ZA8N6X6IQm1cXXk8L4J+WdKafluaRqXlwTZrbgrEI8MraczlG2lwt0PCEq7bkUQvftGNThbwzFxYNA/OyBBniHvw8DStagHS7WoXD9pLN/9nK2EWLpKyT0bQ8591p6374q1mdznEAfApo5dRejPxO+WUmh7JjaLxr/ZnF4tIT3t4HoY4Q9zDh6gp1Rt58RYaPmiP7rIqqwLpqfd7ESa3lsnlEH/qthXUvd1x3ZVWHtj2T2Ma/1p/qxeEOmyUHzRdAYY4Q9z0QedhBV48aB/ddvEmh2uFy+Pve3kwHcmJrGfDpRAf1PUIjb9hjcOVVh585essmr0yzWk7bMB9CjDEGeLuG33uLzk2uozeGj+foiIqnarMis1N6ekPe5oH8ZfvXyS5UU45VWk8fDQ3km6berbTdtiA+xRgiDPE3Tf63F/y9edvp2vO2WlIRcY8fybtP1a3c8VlM/HkxsX03iPzDKk0jNzz4mDaezjGMHtsyFwFGOIMcXNHnGeV9uqDC6ll0wJDKjVzdnv6Yk7bWltCEJdyN9wPaKU6PXr0oNDQUPmTC/sfp8dv221IpWHknZ86009/tTbMHhsyVwGGOEPc3BHnOaU1iqygz56cZViFVm6OpXuf7yjby8vLo23btmnaljbFiEFcbenhUUTP3q9pWzjDN/Mz6KPfOgjn54yepQBDnCHuWSPSvNpgBo6ZuFFp8y6izGH6rDkE8enjiMbeqq8ge7nnrEqjGV9lGWeQLZmqgC9A/MMPP6SoqCjDddu/fz/NnDnTcLts0DMUyJROp2ObtVEpO5eoyUB91hyC+GOjiSbfo68ge7m/X9iG3v+l5icEJ+9TwBcg3rVrVwoKCvI+8bnGblWgtbS5Y4a0ycOotH0vUYcL9VkThnh6ejqFhdWcsLx8aB5NHnNEX0l2cn/wayf5OD4n71SAIe6d/ca1dl6BOGl74SdPzHHe0L8WVm2OpJsfbyn/38mTJ+no0aOatmWIS0kz47BhdY6aVikF9MoDxvmBcODH1rFTzYpxBocVmDJlCiUmJjr8vPJgSUkJDRyo8zeg06Uaa4Bn4sbq6U/W3n14HjWJLzakyZbrg8K7U/RCHLV9a8J8apZY5HTF86XIhjdNPoeqq/E+4WSmAnzHZp3aDHEzR55vlTXy4s3ScXvJD2JAGvvKANq+v3GtJSGIC03DJZPqmThKGDZwH40a7vgxU6WWn87qQF/OzTCg+WxCrwIMcYa43jHD+RsqkJJYTK89uEA46JUtDWvCkAyoF+HVpRAPCjxNL933F7VKcfzUJoJg3fW/M6m8IpDHhhsUYIgzxN0w7HyyyJsv3EpXnOX42ZkqyRMx7tUBtPNAXD19XApxlJQYV0rTxiyhpLgS3R1zSgqOPuH1/nQwO1r3s/yAMQowxBnixowkthIoTWonSLGk+nfRXoi0VAtLkq9+25Vmr0htIKTLIY4SUxKKpEBYaymjhXg42n+ONqJpn/aoFyOAh4H5CjDEGeLmjzrfLREXQIwavpnO77NfuJGIXvjGd11owbrmVp8xBeIoOTiomv47YB8NH7yXEmNtz8pxCcTPi9Ppx79aSS4U3pMr3NMuysgQZ4i7aGj5tVnccnbV0F3UsdUJmzpUVAbS/LUt5PXA7JP1w8+qHzIN4kqh8JO3SztJWRknJJgXU3SEdMdmWQjhKqJNuxOk69niCAHQOXmGAgxxhrhnjETfrAWuaevWLpeaJxZQbHS5zD5MZHdKu082SDwsKA7RbLjpENesEWfwKAUY4gxxjxqQXJkGCjDEeVDYVYAhzhDnr4hnK8AQ9+z+cXvtGOIMcbcPQq6AXQUY4jxAeCYuOAb4xKagUJzNVAUY4qbK7X2F8UycZ+LeN2r9q8YMcf/qb92tZYgzxHUPGn7AVAUY4qbK7X2FJSQkGBJDu6qqiubMMS4cpzuUZHeKO1TnMrUUYIhrKcSfG6IAxxM3REY2wgo0UIAhzoPCNAUQvB4zcm9MgYGB1LRpUwoI4HDI3th/vlxnhrgv9y63jRVgBXxeAYa4z3cxN5AVYAV8WQGGuC/3LreNFWAFfF4BhrjPdzE3kBVgBXxZAYa4L/cut40VYAV8XgHTIY6g6Fltcqlzeq50208pNYosp8KSUMrND6fNe+Lp712JVFrOccR9fuRxA1kBP1cAG50yWuRRt7ZSKNqkAoqJ+jcU7SkpFO3BOFq/M4ly8sI1VTIN4mESvK84ezdd2G+fXFlbqag0hH5b2pK+mZ9BuNGCEyvACrACvqbA4K6H6UrpUgh79w9XS3dqLt2YQp/NaUcHjtm+otIUiLdsWiDfLZfapFC4L47kRNK0mT1ol/RG4sQKsAKsgC8oEBFWSXdfuYEGSRAXTbjh7N2fO9Pvy9KsPuJyiON+zWl3LaW46DLROtfmw0z84Tf60Z7Dsbqf5QdYAVaAFfAkBXBF5cRbV1H3dscdqtZ7P3eiHxalN3jWpRBHpV99cKHk7ylyqNJ4KCc/gkZPG8J+cocV5AdZAVbAExQYNXwTDRu4z+GqnD4dIE9qN++Nr2fDpRC/bMhu+r+LtjpcaeXBL+a2pZmz2jtthw2wAqwAK+AOBdKaFNCMBxYR7hh2Ju0+FEv3vzyQAHQluRTi7z0yj5IbFztTZ/lZXBZ645PnUZXk6OfECrACrIC3KTD6sk3ypg4j0kOv9683G3cZxNs0z6eX7vvLiDrLNh55sx9tlG5/5sQKsAKsgDcpgK2E7z/6JyXGlhhS7e8XptP7v3TSNxOXcgv9BkhNTaXQ0FDZ+DUXnKKn73LMgW+tpR/82pG+W9DGEBHYCCvACrACZikQH1NGHz1uXCz9VZsj6NoJzeTq5+fnU05OjmZT4MMQgrja0sQ7iZ68W9O2cAasymJ1lpNnKpCenk4xMTFy5TCoDh48SFFRUdS2bdvaCm/cuFEORYt/w2dI2dnZdPjwYflZ2FDS+vXr5b+2b9+eIiIi5L8fOXKEjh07RnFxcdSqVSv53xCnfMOGDfLfO3XqVDuJOHToEB0/btwkwjNV51p5gwLpzfLp5fuN80rs/Ieo3QX6Wu4QxKePIxp7q76C7OWesyqNZnyVZZxBtmSoAtdff30tsFetWkW//vor4ZfZiBEjasuZOnUqlZaW0i233FIL4SVLlsg3/gDssKGkSZMmyX+944475DjeSPPnz6eFX9T7AAAgAElEQVSFCxdS586d6corr5T/raKigp555hn57/fccw/Fx9es3M+aNYuWLVtmaBvZGCvgiAKZ6Sdoyuiljjxq9ZljuURNB+oz5xDEJ4wkmvqgvoLs5f7qzwz65I8OxhlkS4YqwBA3VE425kMKpCYX0OvjFhrWoo07iLKG6zMnDPEePXrU/pz9T/8cmnjbLn0l2cn91g+Z9MuSVobZY0PaCgDMffv2lV0eWgkz4LCwMDlbcXGx7KvD+gju6FQSXCFwf6jzFhUV0alTp+RnlVk08sN1gpSYmEghISHy3wsKCqiwsJDCw8OpcePG8r+dPn2acGMQUlJSEgUH14RqgE3YhisGeR566CEqL28Y7gH5FftabeTPWQFHFIgKr6DPn5ol3QrlyNMNn1mxKY7u+1/NhDYvL4+2bdumaViGOL4IWmnYsGG1WRJiS+mDR+caVvE7nx9iN36AVt34c/0K3HvvvTR58mTatcu4l7H+Wrj2icjISOrQgX/huVZltg6fOHzjRqSPfusoxZaq2+QhtMXQEYijsv+7ezG1S8tzut6HjkfTHdKpTU7mKnDTTTfRyy+/THv37jW3YBNLY4ibKLYfF3XtuTvpuvO2O60A5tKjpw8hMFFJQhAXmoZLFtUzcRTQu2M2PX7rSqcr/vzM7rRwfXOn7bABfQowxPXpxblZAVsKREdU0FsT5tuN4Cqi3sJ1zen5z7rXy+pSiKOkR25eTf0ya3yWjqT1OxNp4jt9JX+OI0/zM84owBB3Rj1+lhWor8C5vQ/QPVf+7bAsBcWhdM8Lg+R4UurkcogjjvjTty+nDi1P6q783sMx9PCb/amohOOK6xbPgAcY4gaIyCZYAZUCN16wna4aulO3Jrgo57G3+tL2/TUL+qZCHIXhNp9bLtwmRfAS960u/juFXvs2S7r1p2ZnAifzFfAHiOOQUUZGhvnicol+q8DQngfpjks3UXhopZAGB7Ib0XTJpYxJrbXk8pm4ulDMxi8/azed0T6bQoKrG9SnsiqA1u1Iko/Xb9rDcVKEetiFmfwB4ldddZV8YhTbIjmxAmYpkChdTXnxwD10Tq+D8hWV1tK+I43o58Wtad6aFlRZFWizaqZCXKkFXCwAelLjEtnRD18P7pLbuq+xFDecXSdmDSStcvwB4rfddhs1atSIFixYoCUHf84KGK5AQMBpap1yilo2LaTY6HKqqAygk6fCafuBOPneYZHkFoiLVIzzuF8Bf4E4ju4r8VfcrzrXgBXQpwBDXJ9efpWbIe5X3c2N9VIFGOJe2nGuqjYW+u6+uyb8JAJY4ej9zp36V9NdVT+j7cKdAr84junn5ubSm2++aXQRbI8VcKkCDHGXyut9xhHm9b777pMr3rx5c7rmmmt8HuLXXXedHJcFEH/llVe8r9O4xn6tAEPcr7u/YeMZ4gxx/kp4lwIMce/qL5fXFhH92rVrJ5dz/vnn08SJE2nPnj0uL9ddBcCd0qJFCznIF6Ic+rLryF0ac7muVYAh7lp9vdo6L2x6dfdx5f1EAYa4n3S0aDMR17tPnz5y9kGDBtH48eNp9+7doo97XT7MxDt27Ej79++nkpISwq1EnFgBb1KAIe5NvWVCXdknzj5xE4YZF2GgAgxxA8X0BVMMcYa4L4xjf2oDQ9yfelugrTiCrlxYjJvmcdGxL9/sA3fKBRdcIG8vxFVXX3zxhYBKnIUV8BwFGOKe0xceVxNe2PS4LuEKsQINFGCI86BooEDAvze6AuIvvfSST1/Phpk4Yqds3LhRvlCZEyvgbQowxL2tx1xcX/aJs0/cxUOMzRusgOkQbyWFXRyQdZQ6t86lZCkUbZR091xxaTBln4ygLXsTaNmmprTrYKzBzWRzogowxBniomOF8zmnAELPDu52mLIycqhFUqEclhtxw/MKQ2mHdIPPuu1JtGJLE6qqDrBbkGkQb5ZYRLdfsom6tztO//5at1mxDbsS6K0fMmn/sUbOqcRP61bAUYgHBgZSaGgo4b9wT+APElwz+Hek6upqqqqqkv+rJOXzoKAg+d9LS0ut1hknSSsrKxu4PPA89rbjvygTeazZRrllZWUNbMOdwrFTdA8TfsAJBXCfwo3/2UYX9N1P+Lu9dOxEJH3yewfpovhmNrOZAvGBWUfo3qv/Fr6OCLUtrwii17/rQn+ubuGEXPyoXgWCg4OpdevW8mMXXXQRTZo0SfPYPXa0REZGyhCFXxk2ANUTJ07IdpKSkuQj7UiAMQ7VIGog8iYnJ8vwBnzxGf4Nzymghx38e+PGjenkyZO1dmALL4zExET5xYA/4eHhch4F1igX9mBbqRN2oahfIoB4kyZN5OP2qP++ffv0Ssb5WQFhBVISiujx/1tFqU0KhZ9BxrmrUunVb7KszspdDvFubXPoiRErKTio4XVsWq04fTpAvlvur79tv4W0bPDnjisgsjsF8AbEAUf1LBj/DpgCwoDpkSNH5Ioo4C0qKiL8AVzVzyFvYWGhDHok2AbEMdtGGcrLAJ9FRUXJ/668LFBmRESEnA9JbRv1APBRpvoqNmVhky+FcHyc8JNiCsRGl9G0MUsJXglH0vw1zenFL7tLE5P6T7sU4o0iK+itCfNt3iEn0pAyaUY+etoQOp4XIZLdqTzNmjWjqVOnymBQz9b0GFVcB48//jht2bJFz6MekRezWRy3R+rfvz898MADdo/dA7qAIuBoLQGkaogjD2bVmDljNm6ZAFrYs7zzErNly5l4fHy8/KJQyoZLBjP7o0ePWt1pkpCQILtr1HUFxLOysujgwYNymUuWLPGIfuBK+J4CmMz27JDtVMNe/LwbzVtb3zvhUoiPGr5Z1w33tloHl8pLX3ZzqvEiD48cOZKGDx8uklUzD4R9++23NfN5WgY9PnHMbps2bUo5OTm1PnDL9lhCXJmJA+CW/m+8AAHm48ePy5BXJ2sQt5y1K/XJzs5u8Dxm84C4pW32iXvaCPTN+nRre5wmj1rhdONw7+ao586S3c1KchnEg4NO0ydPzKZoafeJswkVvn7SedIlynUVd9amtedxUhGXIGAG/fnnnztUBGbggNF3331HH3zwgUM23PmQIxAHGNUuEXX9FYgrbhD8v+ITt8wHyOJyBms3z9uCOPKrXwYpKSkyqNX1QZl4OSguHHW5DHF3jjb/KXvc9euknSiHDGnwMx/2pOWbm7oe4lkZufTM7csMqTSMPCtVfJmq4oYZVhlSIL5s2TJ69tlnHSoC13vhRpwXX3yR5s2b55ANdz4EPzOuK0Pq3LkzjRo1yu6xe8zE8/Pza33YlnVXIA6/tbLIaOmqsgdZxZ41iAP6eCEo0McsH/mOHTtW6w5TbCMPfO2WCRAfOnSoDH60Ay9fTqyAkQoEBZ6mmU/Opqhw5ye0qNeclak04+uu+iAu5RY6yhYbGysvQiGNuKyUpt6vbwXWnnCfzupAX87NMFLbBraMgPirr75KLVu29FqIq0URWdhU+hwuFXWCfxrQBlgtfeLqfPjVAh853CvKYqa1TrYGcdwHChcK4IuEtQzUB+6U/2/vOsCkKJp2SU5yxx1R0pGFIwfJSQ5RTCBRwQCIiEiQLJIkRxVUkokoQSX4IUhQcpacM0cQjgxHTv7zzv2zN7u3oWd2Znb2rup5fPB2u6t73ul9p6a6ugqiRLWAvN1Z92jDG5um/qRYuYRAltC79ONnfxmGxbZ9Kah++1BZn7v9I3cDIdJciMTVnQd1IurX3rB50//WR9CURcWNU+hGkzsSj4iIcFS6AWG4O5oN8lm3bp2sMdhJXIm7xrUgfnrs2LFej92DpGERQ+CuUEIMYdEjSgR/eyJx9MVGJFwt6qgTWOoK6Sqx53DzgIzhJlHcJ7CysREKlwp86Ihkwb1AO1wHiN+bboXEMQ8cu8e46nmYuthYeZJBoHCe6zS243rDrveU5JXJF6VNnS4SH9mdqGcbbQN5a/3n5jz07W8ljVMoSOJVq1alqKgomRRASEpeETWZw1WgFNgNdhLX4hNXIAQmCO2D5Yv/B6GCaBF3DYIEoYNYXR+AyneutwJkqkSQIGwQVr1a1LpA8miDcRGpopA//s6QIUOCu4w5qN0q7BM39SfFyiUEiuW7SiM/2mgYFucvET1TQ5s6XST+ybtEX/TWNpC31nNWFqZZy+JqP5ol7izxatWqyT5TVytcTepwJYC8IUmRxM26H1boZRK3AuWkPQYO+EzpvcowEHZIkcvlGmlTJ5O4SIa3V1991aG5aonz1Pud7dpG8tL6619L0fItuQ3T506ROxJnS7x5oi4ezCRu6k+KlUsI4Gj93CF/EjY4jRDklxo2rbxDla8QQxicukg8fdpHNFMKMdRzUtP1QnFCqfWwKLp8PY0RGHjU4UriTRs1pJIlShA20CCefOLw0x45coQmff9j0Fvi8DMjTA+CmPkhQ4b4PHZv6k0xWTlIHBurhw8flv3tyslSk4dl9UkMgaHtNsuJrowQuJXhXlbEF4nL3KXHEkfH/q23UoWi/p1Qgp4DJ8Oo14QqRly/Vx2uJP7RB+9T8chisl9XeRNx51aBD/eiFKI2cMjwoCdxNUAi0Smm3xSTB+DoFJMBZvUyAi9VjqaP3tjrNxoPHyWjNsPq0LXY1NpIXMiXIqlUu1MwQp5ssTS+61q/XiNghX86sQrtl4jcbPFE4vLriEtkivw3JiRNEAR/SfKLDxg8LOhJHBuUzz//vAw1qt537tw50Ve7L1euHJ07d07eTF29erXZy4z1J0EEcPjxm25rKKeUctYfmfdXQZrx57NOKoQscb0kjpFa1jtMzaKO6p63FaGFyuRcSbxDu7YUWayoIyJFboc8ui4ZaBITieuJTtF9c23QkX3iNrgJSWQKxfNfpUFtN1PKFNqTAQKiU+efph7fVJVOrqewlsTBeR0a7aF6FU9rvlVrpRy6Y35G1i7vSdE1K/bQwZc7RR2RooQb4l9w+sVLFxOFO4VJnItCGPV7Yj0JEUBa7m5v7dS8V3j+SnrJI1GZkDvFVUy3xJUBQeKtXzlA6dLEJ+33dJORI2XGn0XlAz5Wlj1s1qwZtWzZktavX08jR44kWOLwiasjc1zjxBViTyw+ccR0N2jQQL41yO7Xvn37RF/tvkaNGvIpT5z8XLx4MXMPI2AqAgVy3qBub+4UyikO/lu9MxdNWlBcroDmTiwjcQyO3AH1q0RT5eLnqUDOm9KGYXzIDaztk9LrwmYpfGbxhgiKvRNXDcZKQZIkEPmyZcvkiIyPPgCJF42bwv+7URT/uJz/Q+VaUUh8/PjxclGFMWPG0Jo1a6ycvuFj8cam4ZCyQkZARgDcV7XEBYqqcFo+DJQmlXPWTkTi7TiSVTJk88luFG9iKYmrJ4IQxPCMcTU2b99NSVdvpqFb0r92EldLXB2lgnmqI1ZiJEsO0SnYFMSG4IQJExw5Pex0Tb7mgocUjq9D8EAbNWpUoq92j1Of+/fvl0+aesqL7gs3/p4R0IsANj2zZrpDqLn54CFqbEoFUNy4TTzpDxiJ671gK/spIYaKCyXOIP///CkqK1y9sWnl/MwYi33i7BM3Y12xTvMQYBL3gm18dEoy2N1yS7X1rRA6k7h5C9RszRydYjbCrN9sBJjEvSA8qH9fypI5XLa+4QN3F52idI+VEjz17NPP7Ptlun62xNkSN32R8QCGIsAk7gFObHKOHTmc7t2942SBq5srbhb8m1w6rj7lx2m0bds2Q2+Q1cqQMRCpYyENGzak4cOHJ/pj90ircPDgQTnrolJk2WrceTxGQC8CTOIekAOZTf72a3r44L7cwunEppsDPymlzbF9h47SV199pfde2K4fR6fY7pbwhBiBBAgwibtAgkgFpTBAn57dKVeunEryGCcyV5M6/v+BZMXBnYKc1olFmMQTy53k60jMCDCJq+7uhx9+SC+88AJ9+umnclY7d9EpCRYDolVUCbBQaQbiWq4sGBcRk3gw3jWec1JDgElcdcdRiqxw4cJyjPfSpUvlE5vq3CmuG5uKmwWbnkiANWzUWJo+fbocwQICDPZSX0ziSY0O+HqDEQEmcS8kDku8RPFIt7Hhcd3iih4pIYbjvp1E06ZNk795++236fr168G4JhxzZhIP6tvHk08iCDCJa7DElabu6mzi2D2TePD9ajifePDdM56xMwJM4gIk7jhu7yYqBd1hiYPEx0+YzJZ4kP3CmMSD7IbxdBMgwCQuQOIei0JI5K34yWNA4uxOCbqfGJN40N0ynrALAkziXkg85zPPUKVKFQmVXzwJSBwpTOfMmUM3Y28lKku8Xbt2cgKs48ePJ9ofDkgcG9M7d+5MtNfIF5a4EQgYiT/11H+UMf0DKb/4Y7p7LzndlFLPPnliTfEHT7fUNToF7apVq0ZRUVFeV8HVq1cJKWhxyjMxbWz26NGDcOgpNjY20f4KIiIiaN68eUF/0jbR3qAkcmGos4AshqihefO2dFZFymYoKpaSOMoS1Sl/Vs4n7ppD98HD5HTgVCY5n/jKbbnpvvS31cIkrh9xVEUqVKiQrACpB/744w/KnTs3tWnTxqF0xIgRdO/ePXrvvfcI5AnZsGEDrVixQu4LHYoMHDhQ/l/E7mfPnl3+/1WrVsk52iMjI6lJkybyZzgqP3ToUPn/O3XqJD9IIcgJv2nTJv0XxD0ZAZMRKFnwMkWVP0OlCl2msIzxhwSV2go7DmelJRvz0qXrab3OxDISrxx5gdo32kuZnvZ9ovHGrVT03aJIWrMrp8kwOqt3R+JICKXkEvE0GcSDR0dHJzpLXAv4TOJa0OK2SRmBZzLfpi7NdlHRiGs+YXj0+Cn6Y2METV9a1KN1bgmJv/3iIWpa55jPCbs2QIWfKYuKW1aizR2Ja5l0YnOnaLl2FMLImjWr3OXkyZO0b98++aFWtWpVhxocoHr06JH8mWIxHzt2TE4+hb7QoYiyMGvVquUoUoF2aP+MtFeh7FOgkMOSJUvkbijIgfJyEIyPebAwAnZCoHShS9Tn3e2UNrXvMpXqeZ/4N4T6Tq7otuKZ6ST+Rq3j1Orlg7pxnLOyEM1aVkR3fy0dFRKfOXMmbd26lTJkyEDXrl2TiUdEQkJC5LJskMRw2EfkmrkNI8AIiCFQMNcNGt5+k1SKTYxPXLUePp2J+kyqnMAiN5XEc4Tfpgk91miu7KyePPxDXcdXpWNnQ8WQ8qMVyBtEbIS0atUqUeRPMQIL1sEIJHUEUFNzXJd1FJHjpl9QzFpehOasiNt7UsRUEu/99naqWvK8X5NG511Hs1C/KfGv2n4r9KBg3LhxlD9/fr/Vw3Jv3rx5ospo6DcorIARSMIIIKADfnB/5d6D5NR6aB0nt4ppJI5XhlkDl1OqlFJVeD8F1vi7g6PoWmxqPzX57o4iwTiBmUIq8pA6dWq6c+eOoySb795xecdRbBexxyyMACPACACBgW22ULlnLxkCxrh5peQIPtMt8UqRMfTZe8ZVuflydmn6e0cuQ0BgJYwAI8AIWIVAqpSPac6gZYQQayNk/e4cNHJm/AFEIUtcGjiuSrAPgfWqJIfq/PYTGt3jsa8uwt/PXlGYfl5eWLg9N2QEGAFGwA4IYG9wSu9Vhk1lx4GnqFLzFLI+RGeJvPXH5VvVKMO7EvVuq7GTl+Z/bs5L3/5WwjiFrIkRYAQYAQsQQDz4qA4bDBvpXAxRrlra1Oki8cGdiPq21zaQt9aIGZ+8sLhxClkTI8AIMAIWIFAkz3Ua03G9YSNF/0sUUUebOmESR1w1cm1APmjygEZ1u6ttJC+tZy57luauLGiYPlbECDACjIAVCGTNdJd+6POXYUNt25ec6r6fQdaHNBYidX2fkqI1hNwpr776qmOiZQpfokFttxg28VGSI3+d5NBnYQQYAUYgmBBIkfwJzR60XPchH9drXSUFeHwhBXooIrSxqYfEsRM7c8ByKUuhvtNJ6okjs1fLz1+gO/finPksjAAjwAgEEwJGnZnBNY+cUY7W74k3aE0jcQz2ceM9VK/iab+xXr/7GSmkpqzfelgBI8AIMAKBQMCokGskB3x/+PN070G8QWsqiYdmuE+Te63yyxqHFd5hTE06fyUusRELI8AIMALBiMDgD7YQEmD5IxPml6Slm/I4qTCVxDFS9VL/Uo8WO6X4cSG3utPk4In/5teStHyr86T9AYH7MgKMACMQCASyhd2RQw3VucO1zGPj3uw0QnKl4AS7WkwncQwGl8qHDfdpSoT1WKryM/WPYrRwbT4t18ltGQFGgBGwLQJIgDWgzTbKHKItcm/L/mw0alY5tznFLSFxIFog5w366I29VFiKmfQlJ/7NSBPnl6BD0Zl8NeXvGQFGgBEIKgSeTveQ3n9tP9Usc46SS9kNvQl84DitvmRThMe6CpaRuDLREgWuyJkNI/Ndoezhd+WwG2TmunQ9He07HkabpPJsyFooFtQYVPeOJ8sIMAKMgAMBuFeQ3RBl2nJluSXX2Hz0OBldv5WaDkeH0s4jWWj1jpw+S1VaTuKu91BK+seEzQubEWAEkjwCerkw4CSe5O8cA8AIMAKMgB8IMIn7AR53ZQQYAUYg0AgwiQf6DvD4jAAjwAj4gQCTuB/gcVdGgBFgBAKNAJN4oO8Aj88IMAKMgB8IMIn7AR53ZQQYAUYg0AgwiQf6DvD4jAAjwAj4gQCTuB/gcVdGgBFgBAKNAJN4oO8Aj88IMAKMgB8IMIn7AZ5oV5Ssy5gxI6VOnZpiY2Pp9u3bol0d7VKkSCHrSJUqFd28eZPu3LmjWQd3YASCFYH06dNTypQp5bUvUt09WK9Tz7yZxN2gVq9ePWrcuHGCbx48eCDXswMR79+/n/7++2+6fPmyR9xLly5Nr732GpUoUYLSpEnjaIc+W7dupd9++40uXrzosf9T0jncihUrUv369SkyMlImcEViYmJo8+bNtGDBArpy5YqTjqFDh1LWrFmF1wMeKl26dBFuzw0ZAW8IYN1OmTLFbRP8hm7dukXXr1+nf/75h1atWkWPHrmv/oXfD9Y+fj+o3wsBgaPv6dOnafv27bRx40b5N9S5c2cqXlxbIXWseT0Gld3uPpO4mzvyxhtvUKtWrXzeKxQpHTBgAB04cMCpLazmjz76iOrWretVBxb0+PHjac2aNQnagbA/+eQTqlatmlcdd+/epTFjxsgPBUUmT55MzzzzjM/5Kw3wUHrrrbeE23NDRsAXif/+++9CIB05coT69+/vRKb4/XTo0IGioqJ86vjzzz/p22+/pYEDB1K5cuV8tlc3ePPNN+UHSrALk7gAiV+9epVAuOnSpZNdGmo5dOgQ9ejRw+mz9u3byxaEIqgzfeLECdlqz58/P2XJksXpOyziXbt2OemAzho1ajg+e/z4sazj2rVrVKBAAQoPD3d8B0umd+/edPjwYfkzJvFg/1kG9/xhiatJHG+vWLdql6D6CpcuXUoTJkxwfPT2229T06ZNHX/DUMGb740bNygkJISKFClCTz/9tPw9kzhRQEgcVX7yScnRs4Teo/RpHtKd+ynp8o00hDziT6RiEIEWV0u8X79+DpItWLAgffHFF1Klorh5wjfdrFkzx5SfffZZGj16tONvvK7BSgDZQ9CvSZMmhIWqCF4H27Vr53itrFChgmydKILXR/x98uRJ+aNkyZLJ/dUuH7xefvzxx1JGyIT5iatXr049e/Z06Js4cSItWbIk0DDz+IkUAVcSh9sDvwEI9ofq1KlDHTt2dFw9jKR3333XsbZ//vlngg8cAh842qKNIlj/+I3Akj569KhsibsKjKVx48Y5Pp4/fz799NNPtkQ8a6a7lCfbLcoopaJ9+DAZXYtNRcfOhjjV0fQ2cUtJPLc00YY1T1ClyPOExOiucvtuCtp6MDvNX52fTp13tnitRN8biWMe06ZNo7CwMHlKp06dclqQ3bt3p5o1azqmCwsDloarfP7551S2bHzx5xEjRtCGDRvkZq6vhqNGjaJ169Y5qcAPBQ8LWCWKqB826sZM4lauHh7LG4kDHXw/e/ZsB1HD0GnevLkMHCztmTNnOkA8d+6cbJy485vjgZA9e3ZCm2Aj8QxpH1L9KtEUVeEM5QhPGOiAymYHTobR4vX5aJNU1ce1JJv6ei0hcVSvaF73KDWrc1So1iaMyWVb8tD3v0f6TIhuxk/GE4nDOqhcuTJ16tTJYYl/+eWX8ganItOnT6dMmeIqEmHhwVqA79xVXIkVljEsZLxyYoErG6FY4C1atCC4U1zlpZdekn3vivzyyy+E8X2NxZa4GauGdSoI+CJxuEJA1LCoIcePH3dsrOMzbPjjd6AINvE3bdpEBw8elP+Da8aX2NkSrxR5gTo13SMZsg98XYb8/ZHToTRmdlk6fzmd2/amk3iK5E+oX6ttVLaI9irPeBL1/66i5UQusrEJgsZr3MqVKx3AgnhBpIrAxYENGneSM2dOmjRpkuMr+MRhSWfOnNnptQ+LVu0KUesqXLgwjR071vHR+vXraeTIkUziQj8NbmQWAq4kvm/fPtm1gRDbbNmyyf5u9Rsk9nAWL17smI7rfpB6nnAX4u0XhtOyZcsI/nJ3YlcShyei9SvOgRAi9yH2Tkr6dGIVir4QtxegFtNJ/JPmu+j5cmdF5um2zeb92Wno1PK6++vpKELi0IuNlrlz5zo2FuBigatFEW8EHBoaSjNmzHC0xS59t27dKE+ePE4+PoRhwfUi8iDYuXOnky9d6cPuFD2rgPvoRcCVxL3pQYgh3mbVezn4HWHNR0REeJ3C+fPn5egw/OsqdiTx6qXOU48W26W3eH3IXpH2Dbt8VV0u32YZiZcseIWGttukb8aqXiBxkLlV4kri8EfjlQ6veIgKKVOmjCNuFXNCmOCKFSvk6BWQuiLYiITrxZ3Al/fdd985vtq9ezf17dtXjlz58ccfHZ/Divn000/d6kCUyldffeX4DjGzw4cPT9CWSdyqlcPjAAFREofrT/3mqk3ViDoAACAASURBVEYPVjvOa7z44ouUO3duj8Du3buX+vTpY3sST5v6EU3quYrCMt73a5Gs2JaHxs8raR2Jj/hoo1QQOX5XWe/sscnZ8Yv4cDu9ekT7+drYRAw2XCFKhAp2yLt27Sr/PWvWLEf4E8ISEbniblMGh3hA2orgIYCHAU6lzZkzx3GwB9Y+IlHcRZ08//zzciy5Ijj4o34AKJ8ziYveeW5nBAKuJH7hwgWCqy9fvnxOsdx4UwUBezrso8wFhhMO8hQqVIiqVKniFKKLNtgUdT20YzdLvHHt4/Ru/YN+w4sNzrYjalPM1Xj/uGnulNAM92l6/5VCG5kiV/bhqNp07lJc2JHZ4ovEsfny66+/yoQLQQigEjKIRYnNT0VwEMfdYZ5evXo5HeRRb5AOGzZMPqWmCF4Zd+zYkeCyBw8eTDjVpgj+Vh/6YRI3e6WwfncIeNrYxAE27OGo3SSuhgdcKbly5aI9e/a4BRc68Papts4/+OCDBC4Vu5H42I7rqXCe64YsmB8XF6MFa/I7dAmRuNQ6YfCxm+kgtA5hP5A65WOoT6v9hkwaSiYuKEFLNuY1TJ83Rb5IHCfJcMxXERyyQWghBKQKMlUE8a1wh/z777+Oz2BB48ivYsnD2m7durV8oAjiajnD54eHg/qIP47zt23b1qET7h7EmruLYmFL3JJlw4P8PwLeolOw5wODRUkhgTdMuAARfQKBtQ2i/+uvv2RDyTV8EC5NfA+ShiDyC9Fbym9HuQl2IvF0aR7RnEF/6vaFuy6sLfvDqc+EUvLHOHHqznBz7QM3vBCJqzv2bEM0Mo7XDJF5fxWiGX/Gx0QbotSDElcSRwgUjqbDAscixKakWr755ht5p1wRVysbJ9bg87506ZJ82hIHgtTiaq3jR4CNHfjeFcEuPHTgoYCFjv8UwQ8BD45t27a5vSImcTNXC+tOQBguJzbVh33Q1jU0Fq4QuAVhrGBd4zAdBOs6OjqasOmPQz/Yc8JvIkeOHI4hFy1aRN9//32Cm2AnEsf5mAndVxu2UPZIB7NLNdCmTheJj5IIvIdE5EbJ8q156OtfnB36Rul21SManYJ+iO+Gf1zts0aoIYi8fHnvUTXoM3XqVMJpMldBLC2sb19JfeBPRLIhdweKFJ1M4matFNbrDgFfceLog7dT+LcVgaGEUNq8efM6SNwXujBacEjO1QpHPzuRePH8V2l4+42+Lkf4+xgp31127ymVEujSReIDpPDogR8Lz8tnw0Xr8kuHf4r5bGdEg1dffdVrQii4P44dO0bLly/36LuD1Q63Cdwe8AEqrhPMD4sOceGIZIGV4Unw6ogdeuRhwRuAWvAaCT85NkGV4/ie9FSqVMnJ/YPNT2yksjACZiCAtY6j84pgrbueX0BWQpxEVg7GoS3yoCAw4LnnnpMJHkaQcvxe0YUshggkgPGE8ER3G/5oi9+cOlILcejQHQgpkPMGfdXF+cS1P/M4dlpyO9XTpkGYxBE2p/i6Wrx8i4Z18j8yRZnq1CVF6bdVBbTN3CatYVXjkEPatGnl10K8NrqzHrxNF8eRkV4WoVfQAR+7r119m1w+T4MR0I0ANjrhvoRRBLck8gzh32CSsIz3aFq/+EOB/s59677U1KRbNlkNuACBFb7kKelpJ+QThwWrSBFpJ3aMtCNrlODk5s4j8dn/jNLLehgBRoARMBMBJPxDpB4i9oyQxRsiaPLC+NzpvqJT8Gaki8RxKunHPisps5Sp0F9BYqyWn79Ajx7H5VpgYQQYAUYgmBD4uPEeqldR8oMYIH0nV6LdxzI7NPkicTTUReLo+GbdI/TWC559vqLXs3Btfvrhf9b4w0XnxO0YAUaAERBFoGCuG/RFp/V+n5s5E5NBOvhYk5DlUBFTSTx1ysc0sedqKW+4+yQ1IgDckPIEtBtZi27fiztYw8IIMAKMQDAi0Lnpbjn1rD8y4PuKtOOws1vZVBLHZCNyxBKO36P4g1Z58DA59ZN84chmyMIIMAKMQDAjAKN28AebqWiE71S67q7z5+VFaPaK+PMhlljiyiDP5r1Gvd7eQZlDxC3ya7GpaczPZWiPyvcTzDeQ584IMAKMQMb0D6RMhjuodCHPBdZdUYLrZPaKwjR3ZUICR1vTLXFlQqjk89YLh6nuc2cITyRP8vBRMvrrn1w0c1kRgivFLoIDPAgRDBZB6JG7I/jBMn+eZ/AggFQbrrVn7Tx7lFQMZJgiolXqV46mRlJSLF+uZhix05c+S4elwhCexDISjyfzB1Th2YtUvOBV6QLuEMoU3ZH83RevpaX9ktvkn4NZE+TLDfSCwMEEFD9WYuADPR+R8c+ePeuU21ykD7dhBPQg0KZNG7lMWrAICBxlE0HmgZQUyf+TLPJLhJTdubLGUohkpSMCD16II2dCJd93VqlMZcIiEK5ztpzEAwma3rGRerZVq1Z6uwekH3KtKDkoAjIBHjTJIIDj8kpGz2C5aORbQdK4xCBM4gJ3kUlcACRukmQRYBIP7K1nEhfAn0lcACRukmQRYBIP7K1nEhfAn0lcACRukmQRYBIP7K1nEhfAn0lcACRukmQRYBIP7K1nEhfAn0lcACRukmQRYBIP7K1nEhfAn0lcACRukmQRYBIP7K1nEhfAn0lcACQNTXBwCpgi/h450ZUc63w4yTOIyKudJUsWAnYoCIJ6q1euSCVebCBM4oG9CUziAvgbQeJIyX7mzBk6ePCgXPz1woUL8qkx/CBROxAVTFA7EBV8UJJNXfFEYIoJmtgxThwls6pVq0b58uVzqnSEyaNIxv79+2n9+vW2ISc9uBvZB5WdUOWmQoUKbtcDigH8888/tGXLFnr4UHtuIqPmagSJ44G0b98+wiE1FE1B3U0cxsEpaRRCwWGinDlzyvVpXatc6bkOjhP3gJq6KIQeYO3axx8SP336tFy5e8OGDXTtmnjiG5SXqlWrFtWsWVPXkWY7kTiOZaM4rq+ao7j/sMxRegul55KyhIeHU9OmTeWKUL4EVvm8efPkqjeBEL0kjofQ6tWrac2aNYTfiajgrQR1Y1H+MFeuXKLdnNoxiTOJ+1w4p06dotmzZxMqfQsWRnKrE6/PdevWpcaNG8vuB1GxC4mjqkijRo18Fnx2va4//viDUAg3KQrKkeEoO8r6iQosV9RODYSLRSuJo0btb7/9Jtd51VqmUI0HSrZVrFiRmjVrRrlz5xaFSm7HJM4k7nHBYFGiSCysSSN9vEgwhKP/NWrUEFqsdiHxMmXK0Ouvvy40Z3UjYIf8FoEgJc2TNbjDO++8I1dr1ypw14HI/TEatI6J9lpI/O+//5Zz+ty6dUvPUG774E2vQYMG8psLXFAiwiTOJO4WAfi5R48eTbDCzRK8QrZt29ZnMi47kDis8K5du2qyKNW47dmzh+bPny8EZaFCheQK6e4ERaVh9SkCP3PRokXlP12/i4yMdLh9YDEuXLjQ0Q8uLri3IHjIzJw50/Ed9jHKlSvndvzo6GjZbSAiIG+QuF7B29/hw4f1dtfVT4TEsfczceJEec/DLClYsCB1795d3gD2JUziTOIJEDhx4gQNHjxYjrQwW0BYffv29epesQOJ582b16/EYXirGTVqlOwn9yXwt7/yyitum+HeTJ8+3fFdvXr1qHLlyvLfrt9VrVpVdl9B4Gv+5ptvHP2KFSsmW3sQzGnIkCGO7+CjrVOnjtvxsWH7yy+/+LoE+Xtcg8jegSdlWh58QhMSaOSLxOHqAVZHjvhfqtHXdBAQgN8GHrjehEncTxLPmeWWnH4xPOM9QpL02Dup6GpsGtp7LIxOx4j7AX3dUKO+97WxefLkSerfv7+lqS1hdXz++edyyJk7sQOJeyM20XszZcoU2Vr2JYmFxJHyWGQz0xMeV69epfHjx/uCy9DvvZE4Ikz69etn6tup68Vg7wgPDW9+cruQeEiGB1SyQFwq2qfTxaWivXE7NR2OziTnEEd9BV9iWYghEqE/X+4cNax5nPJmj/U4r3OXMtCCNflp5bbcTsVAfV2Imd97I3FYa71799YUeWLUXMuWLUuffvopYYPHVexA4i+++CJVqlTJr8sVdQ8kFhIHISLkVK+4viHo1aOlnycSh8tp0KBBcuig1ZI5c2YaMWKEx1DdQJN4kTzXqcnzR+m5Yhc9Fk++fTcFLd2clxauLSAVyEnlEUJLSDws433q+uZOKlVQvCTRwVNhcnk2FIsItHgicSxSWOCHDh0K2BSbN29OTZo0sSWJY0MTG5v+yIIFC2j37t0+VSQWEocrQHRzzhMocOsZuanuC3xPJD5r1izhPQ1fY+j5HvsbAwcOdGvkBIrEkyf7j1q+eJga1Trukbxdr/W6VOFs3NzS9M8h975+00kcrwsjpULJcKFolSs30lDPb6sGnMg9kTg23bBQAynYmYfF4RrNYAdLnEk8bmVo8YknFhLH5iqu5cmTJ4H8ech7Mu72SgJB4tI+P6HifZ3y2iveP5HqbI6eVZbW78mRAE9TSRwulNEfb6QiecQPubjOEOWJPhlXQ/IVSQgESNyRONwonTt3lk9cBlqKFClCQ4cOdToFySQef1eCaWMzMZA4iLtXr17ypnGgBa6pr7/+mhB7r5ZAkHjzukephVRnWK88eJiMuo6vTtEXnPcNTSVxFEXu1MT3q7Cvi/r+f5G0aG0+X81M+94diU+ePJmWL19u2phaFcM3ro5qsAOJ+xtpAQx+/fVXIZ9qYnGn9OnTx2f4qLe1gRhx+KGtjBV3dacgjPDLL7/UuoRNa4916Fpe0WoSzxwqhVj2WEVpUnkuEi8CAAonfzbZeZ/JVBKf0H015c6m3Y3iejFwq7QaGiUtTJHLNL6NK4njuPCHH34Y0HwVrleJnBKwxhWxA4kjpl30cJKnu/bTTz8R4qx9SWIh8S5duiSwGn1du/p7hPPhrIKV4kriPXr0sIUVrmCACC4YXeoTz1aT+HsvH5T94EbIJ+Oq07GzIQ5VppH4M5lv0+Req4yYs6yj29fV6IgUchMIcSXxRYsWOcUdB2JO7saE9aMkB7IDies9ram+NlwTDt34ksRC4npPayr44NTmDz/84AsuQ79XkzhcKCBxu8kHH3xAOB+giNUkPqnnKmlf8LYhsMxZWYhmLSuijcSl1kI2MHyzyDgGeb3WVRrU/qwhk4aSHySXysIAuVRcSdxuloYCMqJUEK0CsQOJIzMjTtDh5KYewQnYSZMmCXVNLCSOU6cvvPCC0DW7a4Rj7WvXrtXdX09HNYnjUBWMHLsJDmohaicQJI6zMLMGGud63bovA7UdHJeWAecCkPnRl+AXKETiakWffUg0pLMv1eLfz19dgH76I+6otNWiJnGcyGzdurWlPkfR6y1cuDANHz7cNiSOieDBglAvPbJ48WI51aqIJBYSx4OvY8eOHg9xecMCJ1yxiRcb6/kchgiWWtuoSRxpFkTcX1rH8Lc9orimTp3qiMG30hKPyHGTvu5q3IP1kLRfXPRlbYjoIvHR0htV99baBvLWesW2PDR+XknjFGrQpCZx5G7GUXA7ChbqjBkz5LchO1jiwAhRAdg/8HSy1BOOsC7gFhDdoEssJA48kNulfv36mpcY8sMg5bHVopA4/PHvvfdewMMKPV0/In+UcwtWknjx/FdoePtNht2Wi1ItkGzVtKnTReJ92hEN7aJtIG+tf5Ms8ak2sMQRLYFThHaVsWPHynkj7ELiwAk5VFq0aCEcdXHp0iXZagIpiEpiInFcM1wqnhJ6ucNk69atcubMQIhC4ogNR3SNXQUPGKXmgZUkHpEjVrLE1xgGy0Fpf7SY+zRBHscQJvGk4BPH66poRjrD7poGRfBBI7mTnUgc00eRA/yAvCUmQnwxikEgdFNrnunERuLADJkRkbrAWx55POhgge/atUvDKjG2qULiKO5gdd4WLVeCB2O7dpJ1KYmVJG4Ln7j0SivkE1dX9skRfpum9DYuOuWTcdWksJrAR6fA5yzqp9WywIxqi0WKxWo3Eleur0CBAnKJNmx24ng58r6gTB0SJcGXK5Kx0B1WcNcg57o7wQMBYaGKgBSV/CSu3+FzhTQxF2wcKQI3VUhIXGgXfhJ4Y1BE3c91Drg+kQgbd3MHTpgPfOUYAw86HKnHvHHQDJuIejEzas0pJI49DISE2lXwZtOtWzfLSRwDTuq5WtepdXdYzllZWIpOKez4yrQQQ4wwoccayi1l5/JXLl9PQ62H2SNOHLkY9u7d6+8lmdYfIWo47m5XEgcRRUVFEfz3LP4hEBMTQxs3bvRPiQG9FRJHtR4URLGrIGHcZ599FhASNzJOvMtX1en4OQvixIFUVIWzUq4A/1/zvvu9OP2+LiJga0O9sYmEV8iFYVeB7/mNN95gErfrDTJwXqipGYiNTNdLUEgcdT7nzp1r4BUaq6p06dJyWlyIle4UjBceck+yxv0/sblbOrHZ18oTm8idMvKjTVQ0Iv6VVOttOflvRil3SvWApqVlEtd61zy3Z0vcOCyZxLVhGUgSx0yb1jlGb7+oP+Ppg4fJJS6slqDmgqnuFEwcTv1RHfRnMezxTVW6dD2w6WiZxLX9WLy1ZhI3DksmcW1YBprEceYNuaSiKujLYjhqZjnasDd7gos2ncQxIvKJf9J8J5UuJJ5P/MDJuHzigSZwzJ9JXNuPhUncOLy8aWIS14ZzoEkcs0U+8bekTIZNnhfPJ34tNjV9Oac07TwSoHziCsxwrdQq8y+9ISWBwQkmT3ImRqrsI1Wy+OufXNJOvL7j2tpure/WTOK+MRJtAUscNSzdVSMS1cHt4hBgEte2EuxA4sqMC+VGZZ9jVCkyxnNln3sp6Y8NeWnRuvx083aAK/u4Qo3kWHKNzZC7lFGqK+eosXk8nEDidhMmcePuCLtTjMOSSVwblnYicWXmqKuJGpt5st+Samzel2tsXr+Vhg5Fh0oJ/zIJ1VGwxJ2iDWr7tWYSN+6eMIkbhyXi1JG7O9DC0SmBvQNM4gL4M4kLgCTYhN0pgkAJNGNLXAAkVRM7WuLarsB9ayZxARSZxAVAEmzClrggUALN2BIXAIlJXEbgKT3H7rXBa+/WTOLG3R+2xI3DkklcG5ZsiQvgpc6dItA8aJowiRt3q5jEjcOS3SnasGQSF8CLSVwAJJObBMOxeyTo0lvtx2T4gko9W+LabheTuABeTOICIJncJBhInOPEjVkETOLacGQSF8CLSVwAJJObMImbDLCN1DOJa7sZTOICeDGJC4BkcpNgIHF2pxizCJjEteHIJC6AF5O4AEgmNwkGEmd3ijGLgElcG45M4gJ4MYkLgGRyk5YtW1LDhg1tnU+cSdyYRWA3Ev/ll19ozpw5xlycCVqYxAVATQokPmTIENq5c6cAGoFp0qZNG7lSup0r+7A7xZi1YTcSX7hwIc2YMcOYizNBy3PPPUe9evWSNVtdFMKEy3Go5BObAuiq48THjBlDmzZtEugVmCYff/wx1a5dm0k8MPBbOqrdSHzZsmU0ZcoUSzHQMlitWrWoY8eOTOLeQEsKlvjUqVNJ5MmnZXEZ2RY1QEuUKGFbEi9YsCCVLFlSLjTM4h8CqFMK69cuhZK3b99Ow4YN8++iTOzduHFjevPNN5nE/SXxkAwPqELRi1Qs4gplC7tL6dI8pDv3UkjFH9LRgVNhtO1AVkISdDuJ2hJfvnw5TZ482U7Tc5oLLKHw8HDbkXhYWBjhIQ8ShzuKSdz/JVS8eHH5PmNN7tmzx3+FOjUoWQzPnz9PeBO0q3Tq1Ilq1qxpGxJPkfwJlS18mUoUvEy5st6S03LHpaJNRUfPZKLth7MQylP6EhGj0pDcKcib27LeYbl4cqqUjz3O6+GjZLR6Zy6avqSIdDH2IHM1iZ88eZK6d+/uC9eAfJ8pUybZ1wexk088d+7chA3X1KlTy1XumcSNWR6RkZGUIkUKWdmWLVto6dKlxijWqEUhcTyYW7duTTdvei76olG1oc2//vpruUoXJJA+cRTIebVaNDWscYwyh97zeo17pRoLM/58lg6eyuSxnSUkXjTiGvVssd3nhNWzBIGPmVWGUN050KIm8SdPnlCrVq3o1q1bgZ5WgvFr1KhBnTt3thWJh4aGUrt27Sht2rg6qUzixi0bWOLAUxH4pAOxX6OQOOYxatQo+YFiN1EbOIEkcdQc7tlyB5WSrG9ReSxVOJu7sjDNXlHIbRfTSTzfMzdpePtNlF5ym2gVVHce8H1F2nciTGtXQ9urSRyKv/32W/r7778NHcMIZT169KBKlSrZisThhwTZKMIkbsSdjtPhSuIPHjwgWJuxsbHGDSKgSU3iq1evludgN3nppZfo/fffd0wrEJZ42tSPaGi7TVQo9w1d8MyRiHzWssIJ+ppK4qklt8mkXqsps1SGTa/ckPxDH46qTbfuptSrwu9+riS+b98+GjBggN96jVSQPn16+uGHHyhlyjic7OBOwZzgelInu2ISN+6uu5I4NK9atYrWrFlj3CACmtQkfu/ePUKYK/61kwwfPpwKF44nwECQeJdmu6hO+bN+wfL5D8/RP4eyOukwlcRb1DtCzaOO+DVpdEah0O9/L+a3Hr0KXEkcemD1njhxQq9Kw/s1atSI3nrrLYdeO5A4Dlc0aNDA6VqZxI279WqfuKL1zJkz8sPcSlGTOMb96aefaPHixVZOwetYhQoVohEjRji1sZrEURh5bMcNHosii4J19mIG+nhsTYKLRRHTSBzO+6l9V1JYxvui8/PYDtErLQa+IO/cBkLckTh8j4gZt4PA3wwXT0hIiK1IvE6dOlS9enUmcZMWiTsSv337No0ePdqkEd2rdSXxq1evUocOHQjuHTvIZ599RmXLlg0oiXdquofqVjhtCBz9plSiXUfj9wpNI/Eiea7RGOnJY5TAN75DCrkJhLgjccyjf//+tH///kBMyWnMd955h15//XWnz+xgib/yyitUvnz5BCS+Y8eOgGOWGCbgjsQRITJo0CBLQzhdSRzYzps3j+bOnRtwmEuVKiX/Tl3FSkscBu30/ispNIP/Bi2uY/GGCJq8MH6fSYjEpX5CJzOyZ89OqVKlkvFq+cotGtrxqmE3cdqSovTrqgKG6dOiyBOJnz17lrCA79835uZomZPSNn/+/AR/nxJqpnxuBxLHg6VMmTJM4npurECfYsWKOfZA1M0HDx5Mjx97DuMVUK2piTsSf/jwofzbOH3aGOtT04T+vzGqSOGtBLwUSBIPD7kneyWMkm37UlPjbtlkdQjnvH79uk/VcL4Ikbha00Ap5n9AB5+6hRssWpdP8otHCrc3sqEnEscYK1eupIkTJxo5nLAuuFGwSHPkyJGgD5O4MIxB29DOJA5QQeC9e/cOmJHzySefULVq1dzeXyst8YK5btCXndcZts6OS8/FgvW0qdNF4qOk8zA92mgbyFvr5Vvz0Ne/lDROoQZN3kgcagJxFB8bhH369CFsHroTJnENNzhIm9qdxAErjuKPHDnS0jcDjNukSRNq3ry5xztrJYkXz39VCrPeaNgqi7lClN39s8njGLpIHAQOIjdK5q4sRDOXFTFKnSY9vkgcB4BwFB9WuRUCAsehnqpVq3oczg4kXq9ePapcubLTHDF39okbs0rckTjcGEOHDjVmAEEt7twp6q4IecTGu1UuHmTxxMlRb3VcrSRxHKmf2GO1IJq+m+0+RFS6oe926hbCJI68BMoJsjrlY6hPK+M2/SYuKEFLNubVNnODWvsicQyDDaWff/6ZFixYYOqmEvx8eE103W13vVQ7kDgiUxChopZkyZLZOpWvQUvGEjXuSPzatWs0btw4S8ZXBvFF4mi3detWeV5mxo9jbTVt2lS2wn2JlSSeLs0jmjNomd/hhco1bdkfTn0mlJL/xMlxYOtLdOVOCZF2Yqf3W0nJkml2p7udT7uRtenfy+l9zdWU70VIXBkYgMLqMONYPjYxu3Xr5najxo4knjdvXjlFgVrYEjduibojcSTCmj9/vnGDCGgSIXGoQSDA2LFjTdnszJgxo5xm1pdxo1yOlSSOMRGph4g9I+SH/0XSwrX5HKqEolMkK1OIiV1T0Y74aCNF5vM/QgWZvDp9WcOI69elQwuJY4AbN27QtGnTaN26dQRXi78C6xvWxcsvv+yUK8ObXjtY4nid7dq1Kz399NOOqTKJ+7sa4vtjPwTY4ucJowH/zp49mw4fPmzcIAKaREkcquBSQfpcPGiMsMphfeNtDwnWMmTIIDDbuCZWk3ij2sfpvfoHhefnqeF//z1FbUfUppir6awh8aIRV2mkROTSb9kvGfJTBdpyIC6kJhCilcSVOWJ3ftGiRbRx40ZdBx+QtCcqKkpO4Yoj7FrEDiSO+cIyeu211xxTZ3eKlrvovW3RokUdIb1oCUsXpzUFbS7DJqKFxJVBERqHU51//fWXUIic62SRERN7QihFqGQm1HJBVpN4mlSPaLKUgiQso3/pCP7cnIe+/c05wMNUSxygdm66W0o/e0YLvk5tN+7NQcOnl9Pd34iOeklcGfvOnTuy32r37t108OBBunz5stsfGmK9MRaKOoD8UDwBpKdH7ELisMbxFoFXfwiTuJ676b6PmsRxUvPHH3+kK1ek0AWLRQ+JK1OEZb5r1y55nwQH586dO+d2AxTrKEuWLPI6wu8CpdaUzJh6LtdqEsccq5Y4T73e3q7bqL18PQ11GVedbrik6DadxFMk/4/6vreVyj17STPW+0+GUf/vKhKyGQZS/CVx17njNfLixYvy6yT+g7sEr4JYpOrUov5cs11IHNeAhxNcQTj4wyTuz1117quQOIgbRYovXLhgnHINmvwhcddhQOr4beChBOMnTZo08n/qg4QapuaxaSBIHJNpUOMktX5lv2Yij72TknpPqEKnY+Jdk8rFmU7iGCi5tLn51guHqcnzx4V2aOGB/319PsIpTRSJCLQYTeJWXI+dSFy5XlT1QZ3DQFiLVmBusQr23wAABCxJREFU9RjY6MYbHvJ3BzJPiZEkbhWGgSJxXF+lyBjq2GQ3Ibe4iByQjNmxs8vQxWtxOfldxRISVwbNmeUWNax5gqqUuECo9OMqSDe7ZX82WrCmAEVfSPjEEblgM9owiRuHKt446tata5zCJKwJD8O1a9cGHAEmce23IH3aR1S/crSUmvY05cxyO4GCR4+fogMnw+l/kjGL/UBvoSWWkrgyUySEyZs9lrKG3qUMaR/S7XsppRqbaejUhYxSNIefu6Da8fTZg0ncJ0TCDZjEhaHy2ZBJ3CdEHhsE0hJ3nRRKtOXJFkuhTz+Q3qiSyTWGj58LoXsPxNzIASFx/dAHpieTuHG4M4kbhyVSvlpdAMLd7NkSN+6e6tHEJC6AGpO4AEiCTRDXjLBJFv8RYBLXj6GdLHH9VxHXk0lcAEEmcQGQBJswiQsCJdCM3SkCIHlowiTuARjXE5v6IbZXTyZx4+4Hk7hxWLIlrh9LJvEkRuLZsmVzqpStf+lY1xPHsK1OhCRydUziIiiJtbGLJY5i2DhBGUyCrKM4dJcYhN0pAncRp8WQXF5LbgYBtaY2OXnyJB06JOWstJkwiRt3Q+xC4jhFiWRnwSI48o9UGFanJzALHyZxs5BlvW4RYBI3bmHYxZ1i3BWxJj0IGEriSHSUWJ5uesDkPr4RQMpQ1xzjvntxC3cIMInzuoCX4Pfff/cJhK584j61coMkiQCTuHG3nUncOCyDVZPhJM6WeLAuBevmzSRuHNZM4sZhGayakDNn2bJlPqcvbIlDExO5TzyTdAMmceNuP0qxrV692jiFrCnoEBDxh+OiNJH4559/Lle4Zt940K0HSyaMcM0qVapYMlZiHwSpWkWssMSOQ1K9PlEC10ziakBRtBQLjYURUBDo06dPgtDH0NBQXdVdkhKqqOyEHNtqyZw5M02ZMiUpwZDkrxVrYNWqVZpx0GSJa9bOHZIMAqdOnZLjc9W1FVOlSiWX2dKzMJMMcNKFotpTdHQ0IcZZEWxqRUZGylVuWBgBbwgwifP6MASBlStXOlU6R5UfFDaoUaOGXFqMxTMCqOKDGprYyLp//76jIQ6g4Y2XhRFgEuc1YCoCsCJhbT958kQeB1Zk8eLFqUKFCvLfTOLe4QeJV65cmZYsWUIxMTFOe05FihSR32ZYGAFPCLAlzmvDbwSwCXPpUnyd1bCwMGrQoIFDL5O4GImj1fz58532EFKmTClXS0IdShZGwB0CTOK8LvxC4MSJE06hcDh636RJEyedTOLeIUaF9/LlyzsaTZ061fFWgw/z5ctHtWvX9us+cefEiwCTeOK9t5Zc2dGjR2nbtm3yWOHh4VSpUiUKCQlxGhvV2h8+fGjJfIJxEGxs4j9FZsyYQZkyZXJsdObOnZuqV68ejJfGc7YAASZxC0DmIRgBRoARMAuB/wOWRemVqeC2gQAAAABJRU5ErkJggg==;direction=south;" parent="wLL7lNvXAYViG3V05X7u-24" vertex="1">
          <mxGeometry x="10.504999999999995" y="2.9950000000000045" width="182" height="113.01" as="geometry" />
        </mxCell>
        <mxCell id="wLL7lNvXAYViG3V05X7u-23" value="&lt;font style=&quot;font-size: 5px;&quot; color=&quot;#ffffff&quot;&gt;5V&lt;/font&gt;" style="text;html=1;align=center;verticalAlign=middle;resizable=0;points=[];autosize=1;" parent="wLL7lNvXAYViG3V05X7u-24" vertex="1">
          <mxGeometry x="14.5" width="30" height="30" as="geometry" />
        </mxCell>
        <mxCell id="ZFm3JVolr57umnqWpC2B-5" value="&lt;font style=&quot;font-size: 5px;&quot; color=&quot;#ffffff&quot;&gt;GND&lt;/font&gt;" style="text;html=1;align=center;verticalAlign=middle;resizable=0;points=[];autosize=1;" parent="wLL7lNvXAYViG3V05X7u-24" vertex="1">
          <mxGeometry x="154.5" width="30" height="30" as="geometry" />
        </mxCell>
        <mxCell id="ZFm3JVolr57umnqWpC2B-7" value="&lt;font style=&quot;font-size: 5px;&quot; color=&quot;#ffffff&quot;&gt;5V&lt;/font&gt;" style="text;html=1;align=center;verticalAlign=middle;resizable=0;points=[];autosize=1;" parent="wLL7lNvXAYViG3V05X7u-24" vertex="1">
          <mxGeometry x="25.5" width="30" height="30" as="geometry" />
        </mxCell>
        <mxCell id="ZFm3JVolr57umnqWpC2B-19" value="&lt;font color=&quot;#ffffff&quot; style=&quot;font-size: 5px;&quot;&gt;20&lt;/font&gt;" style="text;html=1;align=center;verticalAlign=middle;resizable=0;points=[];autosize=1;" parent="wLL7lNvXAYViG3V05X7u-24" vertex="1">
          <mxGeometry x="132.5" y="84" width="30" height="30" as="geometry" />
        </mxCell>
        <mxCell id="ZFm3JVolr57umnqWpC2B-23" value="&lt;font style=&quot;font-size: 5px;&quot; color=&quot;#ffffff&quot;&gt;GND&lt;/font&gt;" style="text;html=1;align=center;verticalAlign=middle;resizable=0;points=[];autosize=1;" parent="wLL7lNvXAYViG3V05X7u-24" vertex="1">
          <mxGeometry x="121.5" y="84" width="30" height="30" as="geometry" />
        </mxCell>
        <mxCell id="ZFm3JVolr57umnqWpC2B-24" value="" style="line;strokeWidth=2;direction=south;html=1;fillColor=#d5e8d4;strokeColor=#82b366;" parent="wLL7lNvXAYViG3V05X7u-24" vertex="1">
          <mxGeometry x="143.5" y="113" width="10" height="67" as="geometry" />
        </mxCell>
        <mxCell id="ZFm3JVolr57umnqWpC2B-25" value="" style="line;strokeWidth=2;html=1;fillColor=#d5e8d4;strokeColor=#82b366;" parent="wLL7lNvXAYViG3V05X7u-24" vertex="1">
          <mxGeometry x="85" y="174" width="64.5" height="10" as="geometry" />
        </mxCell>
        <mxCell id="ZFm3JVolr57umnqWpC2B-26" value="" style="line;strokeWidth=2;direction=south;html=1;fillColor=#d5e8d4;strokeColor=#82b366;" parent="wLL7lNvXAYViG3V05X7u-24" vertex="1">
          <mxGeometry x="81" y="178" width="10" height="22" as="geometry" />
        </mxCell>
        <mxCell id="ZFm3JVolr57umnqWpC2B-27" value="" style="line;strokeWidth=2;direction=south;html=1;" parent="wLL7lNvXAYViG3V05X7u-24" vertex="1">
          <mxGeometry x="69" y="170" width="10" height="29" as="geometry" />
        </mxCell>
        <mxCell id="ZFm3JVolr57umnqWpC2B-28" value="" style="line;strokeWidth=2;html=1;" parent="wLL7lNvXAYViG3V05X7u-24" vertex="1">
          <mxGeometry x="73" y="166" width="66" height="10" as="geometry" />
        </mxCell>
        <mxCell id="ZFm3JVolr57umnqWpC2B-29" value="" style="line;strokeWidth=2;direction=south;html=1;" parent="wLL7lNvXAYViG3V05X7u-24" vertex="1">
          <mxGeometry x="134.5" y="115" width="6" height="56" as="geometry" />
        </mxCell>
        <mxCell id="ZFm3JVolr57umnqWpC2B-32" value="" style="line;strokeWidth=2;direction=south;html=1;" parent="wLL7lNvXAYViG3V05X7u-24" vertex="1">
          <mxGeometry x="69" y="260" width="10" height="60" as="geometry" />
        </mxCell>
        <mxCell id="ZFm3JVolr57umnqWpC2B-33" value="" style="line;strokeWidth=2;direction=south;html=1;fillColor=#d5e8d4;strokeColor=#82b366;" parent="wLL7lNvXAYViG3V05X7u-24" vertex="1">
          <mxGeometry x="81" y="258" width="10" height="112" as="geometry" />
        </mxCell>
        <mxCell id="ZFm3JVolr57umnqWpC2B-35" value="" style="line;strokeWidth=2;html=1;" parent="wLL7lNvXAYViG3V05X7u-24" vertex="1">
          <mxGeometry x="160" y="314" width="80" height="10" as="geometry" />
        </mxCell>
        <mxCell id="ZFm3JVolr57umnqWpC2B-36" value="" style="line;strokeWidth=2;html=1;fillColor=#d5e8d4;strokeColor=#82b366;" parent="wLL7lNvXAYViG3V05X7u-24" vertex="1">
          <mxGeometry x="85" y="365" width="152" height="10" as="geometry" />
        </mxCell>
        <mxCell id="ZFm3JVolr57umnqWpC2B-37" value="" style="line;strokeWidth=2;html=1;fillColor=#f8cecc;strokeColor=#b85450;" parent="wLL7lNvXAYViG3V05X7u-24" vertex="1">
          <mxGeometry x="-65" y="323" width="305" height="10" as="geometry" />
        </mxCell>
        <mxCell id="ZFm3JVolr57umnqWpC2B-49" value="" style="line;strokeWidth=2;html=1;" parent="wLL7lNvXAYViG3V05X7u-24" vertex="1">
          <mxGeometry x="134.5" y="166" width="33.5" height="10" as="geometry" />
        </mxCell>
        <mxCell id="ZFm3JVolr57umnqWpC2B-50" value="" style="line;strokeWidth=2;direction=south;html=1;" parent="wLL7lNvXAYViG3V05X7u-24" vertex="1">
          <mxGeometry x="162.5" y="170" width="10" height="28.5" as="geometry" />
        </mxCell>
        <mxCell id="ZFm3JVolr57umnqWpC2B-51" value="" style="line;strokeWidth=2;direction=south;html=1;fillColor=#fff2cc;strokeColor=#d6b656;" parent="wLL7lNvXAYViG3V05X7u-24" vertex="1">
          <mxGeometry x="154" y="114" width="10" height="46" as="geometry" />
        </mxCell>
        <mxCell id="ZFm3JVolr57umnqWpC2B-52" value="" style="line;strokeWidth=2;html=1;fillColor=#fff2cc;strokeColor=#d6b656;" parent="wLL7lNvXAYViG3V05X7u-24" vertex="1">
          <mxGeometry x="157.75" y="154" width="22.25" height="10" as="geometry" />
        </mxCell>
        <mxCell id="ZFm3JVolr57umnqWpC2B-53" value="" style="line;strokeWidth=2;direction=south;html=1;fillColor=#fff2cc;strokeColor=#d6b656;" parent="wLL7lNvXAYViG3V05X7u-24" vertex="1">
          <mxGeometry x="173.5" y="160" width="10" height="40" as="geometry" />
        </mxCell>
        <mxCell id="ZFm3JVolr57umnqWpC2B-55" value="" style="group" parent="wLL7lNvXAYViG3V05X7u-24" connectable="0" vertex="1">
          <mxGeometry x="236.5" y="359" width="150.5" height="22" as="geometry" />
        </mxCell>
        <mxCell id="ZFm3JVolr57umnqWpC2B-40" value="" style="rounded=0;whiteSpace=wrap;html=1;" parent="ZFm3JVolr57umnqWpC2B-55" vertex="1">
          <mxGeometry width="150.5" height="22" as="geometry" />
        </mxCell>
        <mxCell id="ZFm3JVolr57umnqWpC2B-42" value="" style="whiteSpace=wrap;html=1;aspect=fixed;" parent="ZFm3JVolr57umnqWpC2B-55" vertex="1">
          <mxGeometry x="13" y="5" width="12" height="12" as="geometry" />
        </mxCell>
        <mxCell id="ZFm3JVolr57umnqWpC2B-43" value="" style="whiteSpace=wrap;html=1;aspect=fixed;" parent="ZFm3JVolr57umnqWpC2B-55" vertex="1">
          <mxGeometry x="35" y="5" width="12" height="12" as="geometry" />
        </mxCell>
        <mxCell id="ZFm3JVolr57umnqWpC2B-44" value="" style="whiteSpace=wrap;html=1;aspect=fixed;" parent="ZFm3JVolr57umnqWpC2B-55" vertex="1">
          <mxGeometry x="58.25" y="5" width="12" height="12" as="geometry" />
        </mxCell>
        <mxCell id="ZFm3JVolr57umnqWpC2B-45" value="" style="whiteSpace=wrap;html=1;aspect=fixed;" parent="ZFm3JVolr57umnqWpC2B-55" vertex="1">
          <mxGeometry x="80.25" y="5" width="12" height="12" as="geometry" />
        </mxCell>
        <mxCell id="ZFm3JVolr57umnqWpC2B-46" value="" style="whiteSpace=wrap;html=1;aspect=fixed;" parent="ZFm3JVolr57umnqWpC2B-55" vertex="1">
          <mxGeometry x="102.5" y="5" width="12" height="12" as="geometry" />
        </mxCell>
        <mxCell id="ZFm3JVolr57umnqWpC2B-47" value="" style="whiteSpace=wrap;html=1;aspect=fixed;" parent="ZFm3JVolr57umnqWpC2B-55" vertex="1">
          <mxGeometry x="124.5" y="5" width="12" height="12" as="geometry" />
        </mxCell>
        <mxCell id="ZFm3JVolr57umnqWpC2B-65" value="" style="line;strokeWidth=2;direction=south;html=1;fillColor=#fff2cc;strokeColor=#d6b656;" parent="wLL7lNvXAYViG3V05X7u-24" vertex="1">
          <mxGeometry x="173.5" y="258" width="10" height="65" as="geometry" />
        </mxCell>
        <mxCell id="ZFm3JVolr57umnqWpC2B-69" value="" style="line;strokeWidth=2;direction=south;html=1;" parent="wLL7lNvXAYViG3V05X7u-24" vertex="1">
          <mxGeometry x="69" y="319" width="10" height="46" as="geometry" />
        </mxCell>
        <mxCell id="ZFm3JVolr57umnqWpC2B-71" value="" style="line;strokeWidth=2;direction=south;html=1;fillColor=#f8cecc;strokeColor=#b85450;" parent="wLL7lNvXAYViG3V05X7u-24" vertex="1">
          <mxGeometry x="24.5" y="327" width="10" height="50" as="geometry" />
        </mxCell>
        <mxCell id="ZFm3JVolr57umnqWpC2B-73" value="" style="line;strokeWidth=2;html=1;fillColor=#f8cecc;strokeColor=#b85450;" parent="wLL7lNvXAYViG3V05X7u-24" vertex="1">
          <mxGeometry x="109" y="294" width="93" height="10" as="geometry" />
        </mxCell>
        <mxCell id="ZFm3JVolr57umnqWpC2B-74" value="" style="line;strokeWidth=2;direction=south;html=1;fillColor=#f8cecc;strokeColor=#b85450;" parent="wLL7lNvXAYViG3V05X7u-24" vertex="1">
          <mxGeometry x="196.28" y="258" width="10" height="42" as="geometry" />
        </mxCell>
        <mxCell id="ZFm3JVolr57umnqWpC2B-75" value="5V" style="text;html=1;align=center;verticalAlign=middle;resizable=0;points=[];autosize=1;strokeColor=none;fillColor=none;" parent="wLL7lNvXAYViG3V05X7u-24" vertex="1">
          <mxGeometry x="-14.5" y="270" width="40" height="30" as="geometry" />
        </mxCell>
        <mxCell id="ZFm3JVolr57umnqWpC2B-78" value="&lt;font style=&quot;font-size: 5px;&quot; color=&quot;#ffffff&quot;&gt;21&lt;/font&gt;" style="text;html=1;align=center;verticalAlign=middle;resizable=0;points=[];autosize=1;" parent="wLL7lNvXAYViG3V05X7u-24" vertex="1">
          <mxGeometry x="143.5" y="84" width="30" height="30" as="geometry" />
        </mxCell>
        <mxCell id="JWZnOgD56AcV8Kzp8Cnq-2" value="" style="endArrow=classic;html=1;rounded=0;fillColor=#f8cecc;strokeColor=#b85450;" parent="wLL7lNvXAYViG3V05X7u-24" edge="1">
          <mxGeometry width="50" height="50" relative="1" as="geometry">
            <mxPoint x="41.16" y="-40" as="sourcePoint" />
            <mxPoint x="41.16" y="-16" as="targetPoint" />
          </mxGeometry>
        </mxCell>
        <mxCell id="JWZnOgD56AcV8Kzp8Cnq-5" value="&amp;nbsp;Measured: 3A&lt;br&gt;Calculated: 5A" style="text;html=1;align=center;verticalAlign=middle;whiteSpace=wrap;rounded=0;" parent="wLL7lNvXAYViG3V05X7u-24" vertex="1">
          <mxGeometry y="390" width="120" height="30" as="geometry" />
        </mxCell>
        <mxCell id="JWZnOgD56AcV8Kzp8Cnq-3" value="" style="endArrow=classic;html=1;rounded=0;fillColor=#f8cecc;strokeColor=#b85450;" parent="wLL7lNvXAYViG3V05X7u-24" edge="1">
          <mxGeometry width="50" height="50" relative="1" as="geometry">
            <mxPoint x="30" y="375.65999999999997" as="sourcePoint" />
            <mxPoint x="60" y="375.9699999999999" as="targetPoint" />
          </mxGeometry>
        </mxCell>
        <mxCell id="JWZnOgD56AcV8Kzp8Cnq-6" value="" style="endArrow=classic;html=1;rounded=0;fillColor=#f8cecc;strokeColor=#b85450;" parent="wLL7lNvXAYViG3V05X7u-24" edge="1">
          <mxGeometry width="50" height="50" relative="1" as="geometry">
            <mxPoint x="30" y="327.65999999999997" as="sourcePoint" />
            <mxPoint x="60" y="327.9699999999999" as="targetPoint" />
          </mxGeometry>
        </mxCell>
        <mxCell id="JWZnOgD56AcV8Kzp8Cnq-7" value="&lt;font color=&quot;#ff3333&quot;&gt;I1&lt;/font&gt;" style="text;html=1;align=center;verticalAlign=middle;whiteSpace=wrap;rounded=0;" parent="wLL7lNvXAYViG3V05X7u-24" vertex="1">
          <mxGeometry x="25.5" y="300" width="60" height="30" as="geometry" />
        </mxCell>
        <mxCell id="JWZnOgD56AcV8Kzp8Cnq-8" value="&lt;font color=&quot;#ff3333&quot;&gt;I2&lt;/font&gt;" style="text;html=1;align=center;verticalAlign=middle;resizable=0;points=[];autosize=1;strokeColor=none;fillColor=none;" parent="wLL7lNvXAYViG3V05X7u-24" vertex="1">
          <mxGeometry x="39" y="349" width="30" height="30" as="geometry" />
        </mxCell>
        <mxCell id="d46RvbZk7lzVMZ_4y8m1-2" value="" style="rounded=0;whiteSpace=wrap;html=1;" parent="wLL7lNvXAYViG3V05X7u-24" vertex="1">
          <mxGeometry x="52.5" y="199" width="70" height="62" as="geometry" />
        </mxCell>
        <mxCell id="d46RvbZk7lzVMZ_4y8m1-1" value="Level shifter" style="text;html=1;align=center;verticalAlign=middle;whiteSpace=wrap;rounded=0;" parent="wLL7lNvXAYViG3V05X7u-24" vertex="1">
          <mxGeometry x="42.5" y="220" width="90" height="20" as="geometry" />
        </mxCell>
        <mxCell id="d46RvbZk7lzVMZ_4y8m1-3" value="" style="rounded=0;whiteSpace=wrap;html=1;" parent="wLL7lNvXAYViG3V05X7u-24" vertex="1">
          <mxGeometry x="149.5" y="198" width="70" height="62" as="geometry" />
        </mxCell>
        <mxCell id="d46RvbZk7lzVMZ_4y8m1-4" value="Level shifter" style="text;html=1;align=center;verticalAlign=middle;whiteSpace=wrap;rounded=0;" parent="wLL7lNvXAYViG3V05X7u-24" vertex="1">
          <mxGeometry x="139.5" y="219" width="90" height="20" as="geometry" />
        </mxCell>
        <mxCell id="d46RvbZk7lzVMZ_4y8m1-5" value="" style="line;strokeWidth=2;direction=south;html=1;" parent="wLL7lNvXAYViG3V05X7u-24" vertex="1">
          <mxGeometry x="156" y="260" width="10" height="60" as="geometry" />
        </mxCell>
        <mxCell id="ZFm3JVolr57umnqWpC2B-57" value="" style="group" parent="1" connectable="0" vertex="1">
          <mxGeometry x="406.5" y="494" width="150.5" height="22" as="geometry" />
        </mxCell>
        <mxCell id="ZFm3JVolr57umnqWpC2B-58" value="" style="rounded=0;whiteSpace=wrap;html=1;" parent="ZFm3JVolr57umnqWpC2B-57" vertex="1">
          <mxGeometry width="150.5" height="22" as="geometry" />
        </mxCell>
        <mxCell id="ZFm3JVolr57umnqWpC2B-59" value="" style="whiteSpace=wrap;html=1;aspect=fixed;" parent="ZFm3JVolr57umnqWpC2B-57" vertex="1">
          <mxGeometry x="13" y="5" width="12" height="12" as="geometry" />
        </mxCell>
        <mxCell id="ZFm3JVolr57umnqWpC2B-60" value="" style="whiteSpace=wrap;html=1;aspect=fixed;" parent="ZFm3JVolr57umnqWpC2B-57" vertex="1">
          <mxGeometry x="35" y="5" width="12" height="12" as="geometry" />
        </mxCell>
        <mxCell id="ZFm3JVolr57umnqWpC2B-61" value="" style="whiteSpace=wrap;html=1;aspect=fixed;" parent="ZFm3JVolr57umnqWpC2B-57" vertex="1">
          <mxGeometry x="58.25" y="5" width="12" height="12" as="geometry" />
        </mxCell>
        <mxCell id="ZFm3JVolr57umnqWpC2B-62" value="" style="whiteSpace=wrap;html=1;aspect=fixed;" parent="ZFm3JVolr57umnqWpC2B-57" vertex="1">
          <mxGeometry x="80.25" y="5" width="12" height="12" as="geometry" />
        </mxCell>
        <mxCell id="ZFm3JVolr57umnqWpC2B-63" value="" style="whiteSpace=wrap;html=1;aspect=fixed;" parent="ZFm3JVolr57umnqWpC2B-57" vertex="1">
          <mxGeometry x="102.5" y="5" width="12" height="12" as="geometry" />
        </mxCell>
        <mxCell id="ZFm3JVolr57umnqWpC2B-64" value="" style="whiteSpace=wrap;html=1;aspect=fixed;" parent="ZFm3JVolr57umnqWpC2B-57" vertex="1">
          <mxGeometry x="124.5" y="5" width="12" height="12" as="geometry" />
        </mxCell>
        <mxCell id="ZFm3JVolr57umnqWpC2B-66" value="" style="line;strokeWidth=2;html=1;fillColor=#fff2cc;strokeColor=#d6b656;" parent="ZFm3JVolr57umnqWpC2B-57" vertex="1">
          <mxGeometry x="-58.75" y="5" width="59" height="10" as="geometry" />
        </mxCell>
        <mxCell id="ZFm3JVolr57umnqWpC2B-76" value="24V" style="text;html=1;align=center;verticalAlign=middle;resizable=0;points=[];autosize=1;strokeColor=none;fillColor=none;" parent="1" vertex="1">
          <mxGeometry x="100" y="480" width="40" height="30" as="geometry" />
        </mxCell>
        <mxCell id="ZFm3JVolr57umnqWpC2B-77" value="5V" style="text;html=1;align=center;verticalAlign=middle;resizable=0;points=[];autosize=1;strokeColor=none;fillColor=none;" parent="1" vertex="1">
          <mxGeometry x="410" y="38" width="40" height="30" as="geometry" />
        </mxCell>
        <mxCell id="JWZnOgD56AcV8Kzp8Cnq-1" value="87mA" style="text;html=1;align=center;verticalAlign=middle;whiteSpace=wrap;rounded=0;" parent="1" vertex="1">
          <mxGeometry x="220" y="150" width="40" height="20" as="geometry" />
        </mxCell>
        <mxCell id="JWZnOgD56AcV8Kzp8Cnq-9" value="&lt;font color=&quot;#ff3333&quot;&gt;I&lt;/font&gt;" style="text;html=1;align=center;verticalAlign=middle;resizable=0;points=[];autosize=1;strokeColor=none;fillColor=none;" parent="1" vertex="1">
          <mxGeometry x="150" y="480" width="30" height="30" as="geometry" />
        </mxCell>
        <mxCell id="JWZnOgD56AcV8Kzp8Cnq-10" value="" style="endArrow=classic;html=1;rounded=0;fillColor=#f8cecc;strokeColor=#b85450;" parent="1" edge="1">
          <mxGeometry width="50" height="50" relative="1" as="geometry">
            <mxPoint x="150" y="508" as="sourcePoint" />
            <mxPoint x="170" y="508" as="targetPoint" />
          </mxGeometry>
        </mxCell>
        <mxCell id="JWZnOgD56AcV8Kzp8Cnq-11" value="&lt;font color=&quot;#ff3333&quot;&gt;I = I1+I2&lt;/font&gt;" style="text;html=1;align=center;verticalAlign=middle;whiteSpace=wrap;rounded=0;" parent="1" vertex="1">
          <mxGeometry x="110" y="530" width="60" height="30" as="geometry" />
        </mxCell>
      </root>
    </mxGraphModel>
  </diagram>
  <diagram id="hMMi7pQPAEDCX4EMD48w" name="Level Shifter">
    <mxGraphModel dx="1071" dy="540" grid="1" gridSize="10" guides="1" tooltips="1" connect="1" arrows="1" fold="1" page="1" pageScale="1" pageWidth="827" pageHeight="1169" math="0" shadow="0">
      <root>
        <mxCell id="0" />
        <mxCell id="1" parent="0" />
        <mxCell id="JJCBjCmSHSPGcAEJlLku-2" value="1k&lt;span style=&quot;color: rgb(32, 33, 34); font-family: sans-serif; text-align: start; text-wrap: nowrap; background-color: rgb(255, 255, 255);&quot;&gt;&lt;font style=&quot;font-size: 12px;&quot;&gt;Ω&lt;/font&gt;&lt;/span&gt;" style="rounded=0;whiteSpace=wrap;html=1;" vertex="1" parent="1">
          <mxGeometry x="150" y="260" width="50" height="20" as="geometry" />
        </mxCell>
        <mxCell id="JJCBjCmSHSPGcAEJlLku-5" value="" style="endArrow=none;html=1;rounded=0;" edge="1" parent="1">
          <mxGeometry width="50" height="50" relative="1" as="geometry">
            <mxPoint x="200" y="269.58" as="sourcePoint" />
            <mxPoint x="290" y="270" as="targetPoint" />
          </mxGeometry>
        </mxCell>
        <mxCell id="JJCBjCmSHSPGcAEJlLku-6" value="" style="endArrow=none;html=1;rounded=0;" edge="1" parent="1">
          <mxGeometry width="50" height="50" relative="1" as="geometry">
            <mxPoint x="250" y="300" as="sourcePoint" />
            <mxPoint x="250" y="280" as="targetPoint" />
          </mxGeometry>
        </mxCell>
        <mxCell id="JJCBjCmSHSPGcAEJlLku-7" value="" style="endArrow=none;html=1;rounded=0;" edge="1" parent="1">
          <mxGeometry width="50" height="50" relative="1" as="geometry">
            <mxPoint x="249.83" y="290" as="sourcePoint" />
            <mxPoint x="249.83" y="270" as="targetPoint" />
          </mxGeometry>
        </mxCell>
        <mxCell id="JJCBjCmSHSPGcAEJlLku-9" value="" style="endArrow=none;html=1;rounded=0;" edge="1" parent="1">
          <mxGeometry width="50" height="50" relative="1" as="geometry">
            <mxPoint x="290" y="285" as="sourcePoint" />
            <mxPoint x="290" y="255" as="targetPoint" />
          </mxGeometry>
        </mxCell>
        <mxCell id="JJCBjCmSHSPGcAEJlLku-10" value="" style="endArrow=classic;html=1;rounded=0;" edge="1" parent="1">
          <mxGeometry width="50" height="50" relative="1" as="geometry">
            <mxPoint x="290" y="276" as="sourcePoint" />
            <mxPoint x="310" y="290" as="targetPoint" />
          </mxGeometry>
        </mxCell>
        <mxCell id="JJCBjCmSHSPGcAEJlLku-12" value="" style="endArrow=none;html=1;rounded=0;" edge="1" parent="1">
          <mxGeometry width="50" height="50" relative="1" as="geometry">
            <mxPoint x="290" y="265" as="sourcePoint" />
            <mxPoint x="310" y="250" as="targetPoint" />
          </mxGeometry>
        </mxCell>
        <mxCell id="JJCBjCmSHSPGcAEJlLku-13" value="" style="endArrow=none;html=1;rounded=0;" edge="1" parent="1">
          <mxGeometry width="50" height="50" relative="1" as="geometry">
            <mxPoint x="310" y="370" as="sourcePoint" />
            <mxPoint x="310" y="290" as="targetPoint" />
          </mxGeometry>
        </mxCell>
        <mxCell id="JJCBjCmSHSPGcAEJlLku-14" value="" style="endArrow=none;html=1;rounded=0;" edge="1" parent="1">
          <mxGeometry width="50" height="50" relative="1" as="geometry">
            <mxPoint x="310" y="250" as="sourcePoint" />
            <mxPoint x="310" y="230" as="targetPoint" />
          </mxGeometry>
        </mxCell>
        <mxCell id="JJCBjCmSHSPGcAEJlLku-16" value="1k&lt;span style=&quot;color: rgb(32, 33, 34); font-family: sans-serif; text-align: start; text-wrap: nowrap; background-color: rgb(255, 255, 255);&quot;&gt;Ω&lt;/span&gt;" style="rounded=0;whiteSpace=wrap;html=1;rotation=90;" vertex="1" parent="1">
          <mxGeometry x="225" y="315" width="50" height="20" as="geometry" />
        </mxCell>
        <mxCell id="JJCBjCmSHSPGcAEJlLku-17" value="1k&lt;span style=&quot;color: rgb(32, 33, 34); font-family: sans-serif; text-align: start; text-wrap: nowrap; background-color: rgb(255, 255, 255);&quot;&gt;Ω&lt;/span&gt;" style="rounded=0;whiteSpace=wrap;html=1;" vertex="1" parent="1">
          <mxGeometry x="350" y="220" width="50" height="20" as="geometry" />
        </mxCell>
        <mxCell id="JJCBjCmSHSPGcAEJlLku-18" value="" style="endArrow=none;html=1;rounded=0;entryX=0;entryY=0.5;entryDx=0;entryDy=0;" edge="1" parent="1" target="JJCBjCmSHSPGcAEJlLku-17">
          <mxGeometry width="50" height="50" relative="1" as="geometry">
            <mxPoint x="310" y="230" as="sourcePoint" />
            <mxPoint x="320" y="220" as="targetPoint" />
          </mxGeometry>
        </mxCell>
        <mxCell id="JJCBjCmSHSPGcAEJlLku-19" value="1k&lt;span style=&quot;color: rgb(32, 33, 34); font-family: sans-serif; text-align: start; text-wrap: nowrap; background-color: rgb(255, 255, 255);&quot;&gt;Ω&lt;/span&gt;" style="rounded=0;whiteSpace=wrap;html=1;rotation=90;" vertex="1" parent="1">
          <mxGeometry x="285" y="150" width="50" height="20" as="geometry" />
        </mxCell>
        <mxCell id="JJCBjCmSHSPGcAEJlLku-20" value="" style="endArrow=none;html=1;rounded=0;entryX=1;entryY=0.5;entryDx=0;entryDy=0;" edge="1" parent="1" target="JJCBjCmSHSPGcAEJlLku-19">
          <mxGeometry width="50" height="50" relative="1" as="geometry">
            <mxPoint x="310" y="230" as="sourcePoint" />
            <mxPoint x="360" y="180" as="targetPoint" />
          </mxGeometry>
        </mxCell>
        <mxCell id="JJCBjCmSHSPGcAEJlLku-24" value="" style="endArrow=none;html=1;rounded=0;" edge="1" parent="1">
          <mxGeometry width="50" height="50" relative="1" as="geometry">
            <mxPoint x="440" y="245" as="sourcePoint" />
            <mxPoint x="440" y="215" as="targetPoint" />
          </mxGeometry>
        </mxCell>
        <mxCell id="JJCBjCmSHSPGcAEJlLku-25" value="" style="endArrow=classic;html=1;rounded=0;" edge="1" parent="1">
          <mxGeometry width="50" height="50" relative="1" as="geometry">
            <mxPoint x="440" y="236" as="sourcePoint" />
            <mxPoint x="460" y="250" as="targetPoint" />
          </mxGeometry>
        </mxCell>
        <mxCell id="JJCBjCmSHSPGcAEJlLku-26" value="" style="endArrow=none;html=1;rounded=0;" edge="1" parent="1">
          <mxGeometry width="50" height="50" relative="1" as="geometry">
            <mxPoint x="440" y="225" as="sourcePoint" />
            <mxPoint x="460" y="210" as="targetPoint" />
          </mxGeometry>
        </mxCell>
        <mxCell id="JJCBjCmSHSPGcAEJlLku-27" value="" style="endArrow=none;html=1;rounded=0;exitX=1;exitY=0.5;exitDx=0;exitDy=0;" edge="1" parent="1" source="JJCBjCmSHSPGcAEJlLku-17">
          <mxGeometry width="50" height="50" relative="1" as="geometry">
            <mxPoint x="400" y="310" as="sourcePoint" />
            <mxPoint x="440" y="230" as="targetPoint" />
          </mxGeometry>
        </mxCell>
        <mxCell id="JJCBjCmSHSPGcAEJlLku-28" value="1.5k&lt;span style=&quot;color: rgb(32, 33, 34); font-family: sans-serif; text-align: start; text-wrap: nowrap; background-color: rgb(255, 255, 255);&quot;&gt;Ω&lt;/span&gt;" style="rounded=0;whiteSpace=wrap;html=1;rotation=90;" vertex="1" parent="1">
          <mxGeometry x="435" y="150" width="50" height="20" as="geometry" />
        </mxCell>
        <mxCell id="JJCBjCmSHSPGcAEJlLku-29" value="" style="endArrow=none;html=1;rounded=0;entryX=1;entryY=0.5;entryDx=0;entryDy=0;" edge="1" parent="1" target="JJCBjCmSHSPGcAEJlLku-28">
          <mxGeometry width="50" height="50" relative="1" as="geometry">
            <mxPoint x="460" y="210" as="sourcePoint" />
            <mxPoint x="510" y="160" as="targetPoint" />
          </mxGeometry>
        </mxCell>
        <mxCell id="JJCBjCmSHSPGcAEJlLku-30" value="" style="endArrow=none;html=1;rounded=0;" edge="1" parent="1">
          <mxGeometry width="50" height="50" relative="1" as="geometry">
            <mxPoint x="460" y="370" as="sourcePoint" />
            <mxPoint x="459.71000000000004" y="250" as="targetPoint" />
          </mxGeometry>
        </mxCell>
        <mxCell id="JJCBjCmSHSPGcAEJlLku-31" value="" style="endArrow=none;html=1;rounded=0;" edge="1" parent="1">
          <mxGeometry width="50" height="50" relative="1" as="geometry">
            <mxPoint x="250" y="370" as="sourcePoint" />
            <mxPoint x="460" y="370" as="targetPoint" />
          </mxGeometry>
        </mxCell>
        <mxCell id="JJCBjCmSHSPGcAEJlLku-32" value="" style="endArrow=none;html=1;rounded=0;" edge="1" parent="1">
          <mxGeometry width="50" height="50" relative="1" as="geometry">
            <mxPoint x="360" y="400" as="sourcePoint" />
            <mxPoint x="360" y="370" as="targetPoint" />
          </mxGeometry>
        </mxCell>
        <mxCell id="JJCBjCmSHSPGcAEJlLku-33" value="" style="endArrow=none;html=1;rounded=0;" edge="1" parent="1">
          <mxGeometry width="50" height="50" relative="1" as="geometry">
            <mxPoint x="250" y="370" as="sourcePoint" />
            <mxPoint x="249.70999999999998" y="350" as="targetPoint" />
          </mxGeometry>
        </mxCell>
        <mxCell id="JJCBjCmSHSPGcAEJlLku-34" value="" style="endArrow=none;html=1;rounded=0;" edge="1" parent="1">
          <mxGeometry width="50" height="50" relative="1" as="geometry">
            <mxPoint x="350" y="400" as="sourcePoint" />
            <mxPoint x="370" y="400" as="targetPoint" />
          </mxGeometry>
        </mxCell>
        <mxCell id="JJCBjCmSHSPGcAEJlLku-35" value="" style="endArrow=none;html=1;rounded=0;" edge="1" parent="1">
          <mxGeometry width="50" height="50" relative="1" as="geometry">
            <mxPoint x="150" y="270" as="sourcePoint" />
            <mxPoint x="70" y="270" as="targetPoint" />
          </mxGeometry>
        </mxCell>
        <mxCell id="JJCBjCmSHSPGcAEJlLku-36" value="" style="endArrow=none;html=1;rounded=0;" edge="1" parent="1">
          <mxGeometry width="50" height="50" relative="1" as="geometry">
            <mxPoint x="309.76" y="135" as="sourcePoint" />
            <mxPoint x="310" y="100" as="targetPoint" />
          </mxGeometry>
        </mxCell>
        <mxCell id="JJCBjCmSHSPGcAEJlLku-37" value="" style="endArrow=none;html=1;rounded=0;" edge="1" parent="1">
          <mxGeometry width="50" height="50" relative="1" as="geometry">
            <mxPoint x="459.76" y="135" as="sourcePoint" />
            <mxPoint x="460" y="100" as="targetPoint" />
          </mxGeometry>
        </mxCell>
        <mxCell id="JJCBjCmSHSPGcAEJlLku-38" value="" style="endArrow=none;html=1;rounded=0;" edge="1" parent="1">
          <mxGeometry width="50" height="50" relative="1" as="geometry">
            <mxPoint x="310" y="100" as="sourcePoint" />
            <mxPoint x="460" y="100" as="targetPoint" />
          </mxGeometry>
        </mxCell>
        <mxCell id="JJCBjCmSHSPGcAEJlLku-39" value="" style="endArrow=none;html=1;rounded=0;" edge="1" parent="1">
          <mxGeometry width="50" height="50" relative="1" as="geometry">
            <mxPoint x="380" y="100" as="sourcePoint" />
            <mxPoint x="380" y="80" as="targetPoint" />
          </mxGeometry>
        </mxCell>
        <mxCell id="JJCBjCmSHSPGcAEJlLku-40" value="" style="ellipse;whiteSpace=wrap;html=1;aspect=fixed;" vertex="1" parent="1">
          <mxGeometry x="375" y="70" width="10" height="10" as="geometry" />
        </mxCell>
        <mxCell id="JJCBjCmSHSPGcAEJlLku-41" value="" style="endArrow=none;html=1;rounded=0;" edge="1" parent="1">
          <mxGeometry width="50" height="50" relative="1" as="geometry">
            <mxPoint x="460" y="200" as="sourcePoint" />
            <mxPoint x="550" y="200" as="targetPoint" />
          </mxGeometry>
        </mxCell>
        <mxCell id="JJCBjCmSHSPGcAEJlLku-42" value="" style="endArrow=none;html=1;rounded=0;" edge="1" parent="1">
          <mxGeometry width="50" height="50" relative="1" as="geometry">
            <mxPoint x="370" y="195" as="sourcePoint" />
            <mxPoint x="370" y="160" as="targetPoint" />
          </mxGeometry>
        </mxCell>
        <mxCell id="JJCBjCmSHSPGcAEJlLku-43" value="" style="endArrow=none;html=1;rounded=0;" edge="1" parent="1">
          <mxGeometry width="50" height="50" relative="1" as="geometry">
            <mxPoint x="379.76" y="195" as="sourcePoint" />
            <mxPoint x="379.76" y="160" as="targetPoint" />
          </mxGeometry>
        </mxCell>
        <mxCell id="JJCBjCmSHSPGcAEJlLku-44" value="" style="endArrow=none;html=1;rounded=0;" edge="1" parent="1">
          <mxGeometry width="50" height="50" relative="1" as="geometry">
            <mxPoint x="379" y="180" as="sourcePoint" />
            <mxPoint x="410" y="180" as="targetPoint" />
          </mxGeometry>
        </mxCell>
        <mxCell id="JJCBjCmSHSPGcAEJlLku-45" value="" style="endArrow=none;html=1;rounded=0;" edge="1" parent="1">
          <mxGeometry width="50" height="50" relative="1" as="geometry">
            <mxPoint x="410" y="180" as="sourcePoint" />
            <mxPoint x="410" y="230" as="targetPoint" />
          </mxGeometry>
        </mxCell>
        <mxCell id="JJCBjCmSHSPGcAEJlLku-46" value="" style="endArrow=none;html=1;rounded=0;" edge="1" parent="1">
          <mxGeometry width="50" height="50" relative="1" as="geometry">
            <mxPoint x="335" y="180" as="sourcePoint" />
            <mxPoint x="335" y="230" as="targetPoint" />
          </mxGeometry>
        </mxCell>
        <mxCell id="JJCBjCmSHSPGcAEJlLku-47" value="" style="endArrow=none;html=1;rounded=0;" edge="1" parent="1">
          <mxGeometry width="50" height="50" relative="1" as="geometry">
            <mxPoint x="335" y="180" as="sourcePoint" />
            <mxPoint x="370" y="180" as="targetPoint" />
          </mxGeometry>
        </mxCell>
        <mxCell id="JJCBjCmSHSPGcAEJlLku-48" value="" style="endArrow=none;html=1;rounded=0;" edge="1" parent="1">
          <mxGeometry width="50" height="50" relative="1" as="geometry">
            <mxPoint x="172.5" y="236" as="sourcePoint" />
            <mxPoint x="172.5" y="201" as="targetPoint" />
          </mxGeometry>
        </mxCell>
        <mxCell id="JJCBjCmSHSPGcAEJlLku-49" value="" style="endArrow=none;html=1;rounded=0;" edge="1" parent="1">
          <mxGeometry width="50" height="50" relative="1" as="geometry">
            <mxPoint x="182.26" y="236" as="sourcePoint" />
            <mxPoint x="182.26" y="201" as="targetPoint" />
          </mxGeometry>
        </mxCell>
        <mxCell id="JJCBjCmSHSPGcAEJlLku-50" value="" style="endArrow=none;html=1;rounded=0;" edge="1" parent="1">
          <mxGeometry width="50" height="50" relative="1" as="geometry">
            <mxPoint x="181.5" y="221" as="sourcePoint" />
            <mxPoint x="212.5" y="221" as="targetPoint" />
          </mxGeometry>
        </mxCell>
        <mxCell id="JJCBjCmSHSPGcAEJlLku-51" value="" style="endArrow=none;html=1;rounded=0;" edge="1" parent="1">
          <mxGeometry width="50" height="50" relative="1" as="geometry">
            <mxPoint x="137.5" y="221" as="sourcePoint" />
            <mxPoint x="172.5" y="221" as="targetPoint" />
          </mxGeometry>
        </mxCell>
        <mxCell id="JJCBjCmSHSPGcAEJlLku-53" value="" style="endArrow=none;html=1;rounded=0;" edge="1" parent="1">
          <mxGeometry width="50" height="50" relative="1" as="geometry">
            <mxPoint x="213" y="220" as="sourcePoint" />
            <mxPoint x="213" y="270" as="targetPoint" />
          </mxGeometry>
        </mxCell>
        <mxCell id="JJCBjCmSHSPGcAEJlLku-54" value="" style="endArrow=none;html=1;rounded=0;" edge="1" parent="1">
          <mxGeometry width="50" height="50" relative="1" as="geometry">
            <mxPoint x="138" y="220" as="sourcePoint" />
            <mxPoint x="138" y="270" as="targetPoint" />
          </mxGeometry>
        </mxCell>
        <mxCell id="JJCBjCmSHSPGcAEJlLku-55" value="5V" style="text;html=1;align=center;verticalAlign=middle;whiteSpace=wrap;rounded=0;" vertex="1" parent="1">
          <mxGeometry x="350" y="45" width="60" height="30" as="geometry" />
        </mxCell>
        <mxCell id="JJCBjCmSHSPGcAEJlLku-56" value="GND" style="text;html=1;align=center;verticalAlign=middle;resizable=0;points=[];autosize=1;strokeColor=none;fillColor=none;" vertex="1" parent="1">
          <mxGeometry x="335" y="396" width="50" height="30" as="geometry" />
        </mxCell>
        <mxCell id="JJCBjCmSHSPGcAEJlLku-57" value="5V signaal" style="text;html=1;align=center;verticalAlign=middle;resizable=0;points=[];autosize=1;strokeColor=none;fillColor=none;" vertex="1" parent="1">
          <mxGeometry x="500" y="170" width="80" height="30" as="geometry" />
        </mxCell>
        <mxCell id="JJCBjCmSHSPGcAEJlLku-58" value="3,3V signaal" style="text;html=1;align=center;verticalAlign=middle;resizable=0;points=[];autosize=1;strokeColor=none;fillColor=none;" vertex="1" parent="1">
          <mxGeometry x="30" y="240" width="90" height="30" as="geometry" />
        </mxCell>
        <mxCell id="JJCBjCmSHSPGcAEJlLku-59" value="1nF" style="text;html=1;align=center;verticalAlign=middle;resizable=0;points=[];autosize=1;strokeColor=none;fillColor=none;" vertex="1" parent="1">
          <mxGeometry x="355" y="134" width="40" height="30" as="geometry" />
        </mxCell>
        <mxCell id="JJCBjCmSHSPGcAEJlLku-60" value="1nF" style="text;html=1;align=center;verticalAlign=middle;resizable=0;points=[];autosize=1;strokeColor=none;fillColor=none;" vertex="1" parent="1">
          <mxGeometry x="160" y="175" width="40" height="30" as="geometry" />
        </mxCell>
      </root>
    </mxGraphModel>
  </diagram>
</mxfile>
